<?xml version="1.0" encoding="utf-8"?>
<!-- Generator: Adobe Illustrator 25.2.3, SVG Export Plug-In . SVG Version: 6.00 Build 0)  -->
<svg version="1.1" id="Warstwa_1" xmlns="http://www.w3.org/2000/svg" xmlns:xlink="http://www.w3.org/1999/xlink" x="0px" y="0px"
	 viewBox="0 0 978.4 305" style="enable-background:new 0 0 978.4 305;" xml:space="preserve">
<style type="text/css">
	.st0{fill-rule:evenodd;clip-rule:evenodd;fill:#FFFFFF;}
</style>
<g id="Layer_x0020_1">
	<g id="_2913010634624">
		<path class="st0" d="M215.4,293.2c-2,0-2.3-1.5-3.1-3c-0.7-1.4-1.4-2.6-2-4c-0.6-1.3-3.8-7.6-3.8-8.3c0-2.6,3.1-2.9,4.3,2.3
			c2.7,0,4.4-0.2,7.1-0.2c1.2-2.5,0.6-4.6,3-4.6c2.5,0,0.2,5.1-0.1,6.1l-2.8,8.6C217.5,291.5,217.1,293.2,215.4,293.2z M196.6,284.1
			c0.6-0.2,2.2-1.5,2.7-2.1c0.6-0.6,0.4,0.1,0.6-1.2c0.5-2.4-0.6-4.7,2.1-4.7c1.9,0,1.3,3.2,1.2,3.7l-0.8,12.2
			c-0.4,2-2.7,1.8-3.2,0.4l0.1-4.6c0.1-0.8,0.2-1.2,0.2-2.3c-1.2,0.6-1.7,1.5-3.2,2.7c-1.2,0.9-4.5,4.6-5.7,4.6
			c-1.9,0-2.1-1.9-0.7-3c0.8-0.6,3.7-3.2,4.4-3.4c-0.7-3-6.6-9-4.8-10.7c2-1.8,3.5,1.6,4.2,3C194.5,280,196.4,283.1,196.6,284.1
			L196.6,284.1z M237.1,272.2c1.7,0,1.7,1.6,2.1,3c0.6,2.6,2.5,10.9,2.5,13c0,1.1-1.1,1.1-1.8,1.1c-1.6,0-2.3-5.6-2.3-6.4
			c-1,0-2.7,0.5-3.7,0.7c-1.2,0.2-2.5,0.7-3.9,0.7c0.1,3.4,2.9,7.3-0.9,7.3c-1.5,0-2.1-5.1-2.5-7.3c-0.7-3.2-3-9.8-0.2-9.8
			c1.7,0,1.8,1.4,2.1,2.9c0.2,1.2,0.8,3.2,0.9,4.4c0.6,0,7.2-1.4,7.5-1.6c-0.2-0.9-1.5-5.9-1.3-6.7
			C235.8,272.8,236.4,272.2,237.1,272.2L237.1,272.2z M173.1,274c0-2.5,3.7-0.9,7.1-0.2c1.8,0.4,5.5,0.8,5.5,2
			c0,2.2-2.5,14.3-3.3,15c-1,0.9-5-0.4-7.1-0.8c-1.3-0.3-2.5-0.4-3.8-0.8c-2-0.5-0.9-2.5-0.3-2.5c2.4,0,6.5,1.4,8.7,1.6
			c0.1-1.3,0.6-3.1,0.9-4.3l-6.9-1.3c-2.5-0.6-1.5-2.6,0-2.5c0.7,0.1,5.7,1.4,7.4,1.6c0.1-1.5,0.9-3.2,0.9-4.8
			c-0.7-0.4-3.9-0.9-4.9-1.1C175.9,275.6,173.1,275.3,173.1,274L173.1,274z M167.1,281.8c0,2.1-2.1,4.3-3.9,4.3h-1.4
			c-6.8,0-8.8-7.3-5.5-7.3c2.6,0,0,5,5.3,5c2.7,0,3.1-2.4,0.7-3.9c-0.8-0.5-1.6-1-2.3-1.6c-1.7-1.2-3.4-2.5-3.4-4.8
			c0-2.8,2.5-5,5.3-5c8,0,9.7,8.5,6.4,8.5c-2.6,0,0.2-5.9-5.7-5.9c-1.8,0-4.8,2.2-0.4,5.2c1.1,0.7,2.2,1.4,3.1,2.2
			c0.5,0.4,0.8,0.8,1.2,1.4C166.7,280.2,167.1,281.2,167.1,281.8L167.1,281.8z M246,273.6c0,1.1,0,2.5,2.7,2.5
			c2.4,0,9.4-1.9,9.4,4.1c0,1.9-1.2,3-2.3,3.8c-4.2,3-9.3,1.5-9.3-1.3c0-0.5,0.9-1.4,1.1-1.4c2,0,1.1,1.8,4.3,1.8
			c3.5,0,6.1-5.3-1.3-4.3c-3.6,0.5-7.8,0.1-7.8-4.6c0-3.1,3.1-4.9,5.5-5.7c5.7-1.8,9.1,3.5,6.2,4.4c-1.1,0.3-1.7-1-2.6-1.7
			C249.4,269.4,246,271.8,246,273.6L246,273.6z M189.6,269.2c-1.7,0-2.6-0.5-4.1-0.5L189.6,269.2z M184.1,268.3h1.1v0.2
			c-0.2,0-0.5,0-0.7,0C184.1,268.4,184.3,268.5,184.1,268.3L184.1,268.3z M184.1,268.3c-0.2,0-0.5,0-0.7,0c-0.4-0.1-0.2-0.1-0.5-0.2
			c0.2,0,0.5,0,0.7,0C184,268.2,183.8,268.2,184.1,268.3z M182.9,268.1c-0.2,0-0.5,0-0.7,0c-0.4-0.1-0.2-0.1-0.5-0.2
			c0.2,0,0.5,0,0.7,0C182.9,268,182.7,267.9,182.9,268.1L182.9,268.1z M181.8,267.9c-0.2,0-0.5,0-0.7,0c-0.4-0.1-0.2-0.1-0.5-0.2
			c0.2,0,0.5,0,0.7,0C181.7,267.7,181.5,267.7,181.8,267.9z M180.6,267.6c-0.1,0-0.4,0-0.4,0c-0.4-0.1-0.2-0.1-0.5-0.2
			c0.1,0,0.4,0,0.4,0C180.6,267.5,180.4,267.5,180.6,267.6z M179.7,267.4h-0.9c0.4-0.3-0.5-0.3,0.5-0.2
			C179.8,267.2,179.5,267.2,179.7,267.4z M177.7,266.9h0.9c-0.4,0.3,0.5,0.3-0.5,0.2C177.6,267.1,177.9,267.1,177.7,266.9z
			 M177.7,266.9c-1.2,0-0.4,0-0.7-0.2C178.2,266.7,177.3,266.7,177.7,266.9z M176.1,266.5c0.2-0.2,1.2,0.3,0.4,0.1h-0.1
			C176.3,266.6,175.7,266.9,176.1,266.5L176.1,266.5z M175.2,266.2c0.2-0.2,1.2,0.3,0.4,0.1h-0.1
			C175.4,266.3,174.8,266.6,175.2,266.2z M174.2,266c1.2,0,0.4,0,0.7,0.2C173.7,266.2,174.6,266.2,174.2,266z M174.2,266
			c-1.2,0-0.4,0-0.7-0.2C174.8,265.8,173.9,265.8,174.2,266z M172.6,265.6c1.2,0,0.4,0,0.7,0.2C172.1,265.8,173,265.8,172.6,265.6z
			 M172.6,265.6c-1.1,0-0.4,0-0.7-0.2C173,265.3,172.4,265.3,172.6,265.6z M171.9,265.3c-1.2,0-0.4,0-0.7-0.2
			C172.5,265.1,171.6,265.1,171.9,265.3z M170.3,264.9c1.2,0,0.4,0,0.7,0.2C169.8,265.1,170.7,265.1,170.3,264.9z M170.3,264.9
			c-1.1,0-0.4,0-0.7-0.2C170.7,264.6,170.1,264.6,170.3,264.9z M169.7,264.6c-1.1,0-0.4,0-0.7-0.2
			C170.1,264.4,169.4,264.4,169.7,264.6z M169,264.4c-1.1,0-0.4,0-0.7-0.2C169.4,264.2,168.7,264.2,169,264.4z M168.3,264.2
			c-1.1,0-0.4,0-0.7-0.2C168.7,264,168,264,168.3,264.2z M167.6,264l-0.5-0.1L167.6,264z M166.5,263.5c0.2-0.2,0.9,0.4,0.3,0.1
			C166.7,263.6,166.1,263.9,166.5,263.5z M165.8,263.3c0.2-0.2,0.9,0.4,0.3,0.1C166,263.4,165.4,263.7,165.8,263.3z M165.1,263
			l0.5,0.1L165.1,263z M165.1,263l-0.5-0.1L165.1,263z M163.9,262.6c0.2-0.2,0.9,0.4,0.3,0.1C164.2,262.7,163.6,263,163.9,262.6z
			 M163.3,262.4l0.5,0.1L163.3,262.4z M163.3,262.4l-0.5-0.1L163.3,262.4z M162.1,261.9l0.5,0.1L162.1,261.9z M162.1,261.9l-0.5-0.1
			L162.1,261.9z M161,261.4l0.5,0.1L161,261.4z M161,261.4l-0.5-0.1L161,261.4z M268,259.6c1.7,0,1.9,0.8,3.3,3.6
			c0.4,0.8,0.7,1.4,1.1,2.1c0.4,0.8,0.8,1.3,1.1,2.1c0.5,0.9,3.1,5.7,3.1,6.4c0,0.8-0.6,1.6-1.5,1.6c-1.6,0-1.9-1.6-2.5-2.7
			s-1.5-2.3-1.8-3.7l-2.2,6.1c-0.8,2.6-0.9,5.1-2.9,5.1c-0.7,0-1.3-0.9-1.3-1.4s0.4-1.9,0.6-2.3c0.4-1.1,1.3-3.1,1.4-4.3
			c-0.8-0.4-1.6-0.7-2.4-1.2c-0.9-0.5-1.5-0.9-2.5-1.4c-1.2-0.6-2.6-1.2-3.7-2c-2.1-1.6-0.2-2.9,0.9-2.9c1.3,0,7.4,4.2,8.9,4.6
			c1.1-4.7,2-2.1-0.3-6.8C266.2,260.4,267.3,259.6,268,259.6L268,259.6z M159.8,261l0.5,0.1L159.8,261z M159.8,261l-0.5-0.2
			L159.8,261z M159.4,260.8l-0.5-0.1L159.4,260.8z M158.5,260.3L158.5,260.3C158.5,260.4,158.4,260.3,158.5,260.3z M157.8,260.1
			l0.5,0.1L157.8,260.1z M157.8,260.1l-0.5-0.2L157.8,260.1z M157.3,259.8l-0.5-0.1L157.3,259.8z M156.4,259.4L156.4,259.4
			C156.5,259.5,156.4,259.4,156.4,259.4z M155.9,259.2C156,259.1,156,259.2,155.9,259.2L155.9,259.2z M155.5,258.9L155.5,258.9
			C155.5,259,155.5,259,155.5,258.9z M154.8,258.7l0.5,0.1L154.8,258.7z M154.8,258.7l-0.5-0.2L154.8,258.7z M154.3,258.5l-0.5-0.2
			L154.3,258.5z M153.9,258.2l-0.5-0.2L153.9,258.2z M153.4,258l-0.5-0.2L153.4,258z M153,257.8l-0.5-0.2L153,257.8z M152.5,257.6
			l-0.5-0.2L152.5,257.6z M152.1,257.3l-0.5-0.2L152.1,257.3z M151.6,257.1L151.6,257.1z M150.9,256.6L150.9,256.6
			C151,256.7,150.9,256.7,150.9,256.6z M150.5,256.4C150.5,256.4,150.5,256.5,150.5,256.4L150.5,256.4z M150,256.2L150,256.2
			C150.1,256.3,150,256.2,150,256.2z M149.5,256L149.5,256z M149.5,256l-0.5-0.2L149.5,256z M149.1,255.7l-0.5-0.2L149.1,255.7z
			 M148.6,255.5L148.6,255.5z M147.9,255C148,255,148,255.1,147.9,255L147.9,255z M273,259.4c0,0-2.9-0.6,0.6-3.1
			c1.3-0.9,6.2-4.7,7.5-4.7c0.8,0,2,2,2.6,2.9c0.8,1.2,1.5,2.2,2.3,3.4c0.8,1.1,1.5,2.1,2.3,3.2c0.4,0.6,2.2,2.9,2.2,3.6
			c0,0.1-0.9,4-4.1-0.7c-0.7-1.1-1.3-1.9-2.1-3l-4.2-5.9C278.3,255.5,274.6,259.4,273,259.4L273,259.4z M147.5,254.8L147.5,254.8z
			 M147.5,254.8l-0.5-0.2L147.5,254.8z M147,254.6L147,254.6z M146.3,254.1L146.3,254.1z M129.6,251.6c2.2,0,4.3,1.2,5.4,2.3
			c6.5,6.1-0.7,15-6.3,15c-8.1,0-9.6-10.3-6.4-10.3c2.3,0,1.4,1.8,1.4,3.2c0,2.3,2.1,4.3,4.3,4.3c4.4,0,9.9-8.5,4-11.4
			c-1.9-0.9-3-0.5-4.6,0.5c-1,0.6-2.1,0.8-2.5-0.5C124.5,253.2,127.6,251.6,129.6,251.6L129.6,251.6z M146.3,254.1l-0.5-0.2
			L146.3,254.1z M145.9,253.9L145.9,253.9z M145.2,253.4L145.2,253.4z M145.2,253.4l-0.5-0.2L145.2,253.4z M144.7,253.2L144.7,253.2
			z M144.1,252.8L144.1,252.8z M144.1,252.8L144.1,252.8z M143.4,252.3L143.4,252.3C143.4,252.4,143.3,252.3,143.4,252.3z
			 M142.9,252.1L142.9,252.1z M142.9,252.1L142.9,252.1z M142.2,251.6L142.2,251.6z M142.2,251.6L142.2,251.6z M141.5,251.2
			L141.5,251.2z M141.5,251.2L141.5,251.2z M140.9,250.7L140.9,250.7z M140.9,250.7L140.9,250.7z M140.2,250.2L140.2,250.2z
			 M140.2,250.2L140.2,250.2z M139.5,249.8L139.5,249.8z M139.5,249.8L139.5,249.8z M138.8,249.3L138.8,249.3z M138.8,249.3
			L138.8,249.3z M138.1,248.9L138.1,248.9z M284.9,248.2c0-1,1-1.6,1.6-1.6c0.9,0,2.7,2.5,3.6,3.5l2.1,2.5c0.7,0.8,5.1,5.7,5.1,6.6
			c0,0.8-0.8,1.6-1.6,1.6c-1.1,0-2.3-2-3-2.7l-6.7-8C285.4,249.5,284.9,249.2,284.9,248.2z M138.1,248.9L138.1,248.9z M137.2,248.2
			L137.2,248.2z M137.2,248.2L137.2,248.2z M136.5,247.7L136.5,247.7z M136.5,247.7l-0.2-0.2L136.5,247.7z M136.3,247.5L136.3,247.5
			z M135.6,247L135.6,247z M135.6,247l-0.2-0.2L135.6,247z M135.4,246.8L135.4,246.8z M134.7,246.4L134.7,246.4z M134.7,246.4
			l-0.2-0.2L134.7,246.4z M134.4,246.1L134.4,246.1z M133.8,245.7L133.8,245.7z M133.8,245.7l-0.2-0.2L133.8,245.7z M133.5,245.4
			L133.5,245.4z M132.6,244.8L132.6,244.8z M132.6,244.8l-0.2-0.2L132.6,244.8z M132.4,244.5L132.4,244.5z M131.5,243.8L131.5,243.8
			z M131.5,243.8l-0.2-0.2L131.5,243.8z M131.2,243.6l-0.2-0.2L131.2,243.6z M131,243.4L131,243.4z M130.1,242.7L130.1,242.7z
			 M130.1,242.7l-0.2-0.2L130.1,242.7z M129.9,242.5l-0.2-0.2L129.9,242.5z M129.6,242.2L129.6,242.2z M128.5,241.3L128.5,241.3z
			 M128.5,241.3l-0.2-0.2L128.5,241.3z M128.3,241.1l-0.2-0.2L128.3,241.1z M128,240.9l-0.2-0.2L128,240.9z M127.8,240.6
			L127.8,240.6z M115.7,243.4c0.5,0.8,1.6,1.8,2.3,2.5l2.7,2.3c0.8-0.2,5.5-3.2,5.5-0.2c0,1.5-1.8,1.9-3.9,3l-9.6,4.5
			c-0.9,0.4-1.6,0.8-2.5,0.5c-3-1-1-4.6-0.3-6.4l3.2-8.3c0.4-1.1,1-3.4,2.4-3.4c0.5,0,1.6,0.8,1.6,1.1
			C117.1,240.7,116,242,115.7,243.4L115.7,243.4z M126.4,239.5L126.4,239.5z M126.4,239.5l-0.2-0.2L126.4,239.5z M126.2,239.3
			l-0.2-0.2L126.2,239.3z M126,239l-0.2-0.2L126,239z M125.8,238.8l-0.2-0.2L125.8,238.8z M125.5,238.6l-0.2-0.2L125.5,238.6z
			 M125.3,238.4l-0.2-0.2L125.3,238.4z M125.1,238.1L125.1,238.1z M299.5,234.2c0-1.2,0.4-1.6,1.6-1.6c0.7,0,6.8,6,7.6,6.8
			c3.3,3.3,5.1,3.9,3.1,6c-1.9,2-1.6,2.5-7.2-0.9c-0.9-0.5-1.6-0.8-2.5-1.4c-0.7-0.4-2-1.3-2.8-1.3l5.3,8.7c0.4,0.7,0.8,1.1,0.4,2
			c-0.4,0.8-2.1,2.6-3.1,2.5c-0.9-0.1-4.2-3.8-6-5.2c-1.4-1.2-3-3.2-4.3-4.2c-1.9-1.5-1.6-3.3,0.3-3.3c1.1,0,8.6,8.4,9.8,8.7
			c-1.1-1.6-7.1-11.2-7.1-11.7c0-1.4,1.4-2.1,1.6-2.1c1.9,0,10.4,6,12.3,6.4c-1.2-1.8-3.1-3-4.6-4.5
			C303.3,238.4,299.5,234.9,299.5,234.2L299.5,234.2z M120,233.1L120,233.1z M120,233.1l-0.2-0.2L120,233.1z M119.8,232.9l-0.2-0.2
			L119.8,232.9z M119.6,232.6L119.6,232.6z M117.5,230.3L117.5,230.3z M117.5,230.3l-0.2-0.2L117.5,230.3z M117.3,230.1L117.3,230.1
			z M115.9,228.5L115.9,228.5C116,228.6,115.9,228.5,115.9,228.5z M103.1,235.8c6.2,0,1.8,2,6.9-1.8c2.4-1.8,4.1,0.9,1.9,2.6
			c-1.7,1.3-10.7,9-11.8,9c-0.9,0-1.6-1.1-1.5-1.8c0.1-0.9,1-1.4,1.7-2l4-3.3c-2-0.2-4.7-0.4-6.7-0.7c-2.3-0.2-5.5,0.3-5.5-2.1
			c0-2.5,5.6-0.5,8-0.5l2.4-8.6c1.3-4,3.5-1.5,3.5-0.1L103.1,235.8L103.1,235.8z M311.7,221c-1.4,0-1.5-1.2-1.1-2l2.6-4.5
			c3.4-6.2,2.4-6,9.8-1.7l6.6,3.9c1.4,1.2,0.1,2.6-1,4.5c-0.6,1.1-3.4,6.6-4.4,6.6c-0.9,0-0.7-0.2-1.4-0.7c0.1-1.2,1.3-3,2-4.2
			c0.4-0.7,0.8-1.4,1.2-2c0.4-0.7,0.9-1.3,0.9-2.3c-1.4-0.3-2.7-1.7-3.9-1.8c-0.2,0.8-1.5,2.9-2,3.7s-1.6,3.4-2.6,3.4
			c-0.6,0-1.1-0.5-1.1-1.4c0-0.6,3.7-6.2,3.9-7.1c-1-0.5-3.5-2.2-4.6-2.3C316.2,214.1,312.8,221,311.7,221L311.7,221z M94.2,211.8
			c0-1.1,1.5-1.7,2.5-0.2l5.3,9.1c0,1.3-1.3,1.8-2.8,2.7c-1.4,0.9-9.6,6-10.5,6c-1.5,0-2.2-2.2-3.6-4.4c-2.4-3.8-3.3-4.3-2.8-6.4
			c1.9-0.5,1.5-0.4,3.8,3.3c0.8,1.4,1.7,2.7,2.4,4c0.7-0.2,3.3-1.8,3.7-2.3c-0.2-0.8-1.4-2.7-2-3.5c-0.4-0.6-1.9-3-1.9-3.6
			c0-0.4,1.1-2.5,2.6,0.1c0.7,1.1,3,5.2,3.6,5.6c1.3-0.3,3-2,4.3-2.3c-0.7-1.4-1.5-2.7-2.4-4C95.9,215.3,94.2,212.7,94.2,211.8
			L94.2,211.8z M85.3,202.7c0,2.8,0.7,4.1,0.7,6.2c0,5.2-6.9,6.9-9.6,0c-1.3-3.5-0.1-6.8,2-6.8c1.3,0,1.2,0.6,1.6,1.4
			c-0.6,1.1-2,2.3-1.8,3.8c0.5,3.8,5.2,5.1,4.5,0.1c-0.4-2.7-1.3-6,0.6-8.1c2.1-2.2,5.5-2.1,8,1c3.4,4.3,1.8,10-1.5,10
			c-0.5,0-1.1-0.6-1.1-1.1c0-1.8,2.1-1.8,2.1-4.3C90.8,200.4,85.3,199.4,85.3,202.7L85.3,202.7z M319.2,207.3
			c-2.6,0,0.4-5.2,1.4-7.7c2.2-5.4,1-5.5,11-1c6.4,2.8,7.1,1.8,5.1,6.2l-2.3,5.5c-0.6,1.3-0.7,2.4-2,2.4c-2.2,0-0.1-3.6,0.2-4.4
			c0.5-1.2,1.8-3.9,1.9-5c-0.8-0.2-3.1-1.2-3.9-1.6c-1.2,2.2-2.4,6.6-3.7,7.8c-3-0.2-1-2.7,0.6-6.7c0.3-0.8,0.6-1.2,0.8-2
			c-0.8-0.4-4-1.8-4.8-1.8c-0.2,0.7-0.6,1.6-0.9,2.3C321.7,203.2,320.7,207.3,319.2,207.3L319.2,207.3z M325.8,182.8
			c0-3.1,4.7-1.1,8.3,0l7,2c2.8,0.9,0.9,3.9-0.7,9.7c-0.9,3.3-2.7,1.6-2.7,0.5c0-1,0.7-2.7,0.9-3.7c0.3-1.1,0.8-2.6,0.9-3.7
			c-1.7,0-2.7-0.9-4.3-0.9c-0.1,1-0.7,2.5-1,3.6c-0.4,1.5-0.3,2.2-1.6,3c-2.2-0.5-1.3-1.6-0.6-4.3c0.3-1,0.6-2.1,0.9-3.2
			c-1.2,0-2.8-0.7-4-1C327.7,184.5,325.8,184.1,325.8,182.8L325.8,182.8z M89.9,173.2L89.9,173.2C89.9,173.2,89.8,173.2,89.9,173.2z
			 M89.2,168.8L89.2,168.8C89.2,168.9,89.2,168.9,89.2,168.8z M328.6,168.2c0-2.2,2.7-1.5,3.6-1.3c1.5,0.2,3.1,0.5,4.7,0.7
			c2.6,0.4,8.6,0.8,8.6,2.4c0,2.1-0.4,3.8-0.7,5.7c-0.4,2.5-0.1,4.6-2,4.6c-2.2,0,0-5.1,0-8.5c-1.1-0.1-2.3-0.5-3.6-0.6
			c-0.9-0.1-0.8-0.1-1,0.8c-0.2,1.2-0.5,4.4-0.9,5.3c-0.7,1.6-2.3,0.3-2.3,0c0-2.2,0.9-4.6,0.9-6.6c-1.2,0-2.9-0.4-4.2-0.6
			C330.1,169.8,328.6,169.9,328.6,168.2L328.6,168.2z M88.9,167.2L88.9,167.2C89,167.3,88.9,167.3,88.9,167.2z M88.7,165.4
			c-0.1-0.4,0.3-0.8,0.1-0.1C88.9,165.3,88.9,166.2,88.7,165.4z M88.5,163.1c-0.1-0.4,0.3-0.8,0.1-0.1
			C88.6,163,88.6,163.9,88.5,163.1z M88.3,159.7c0.3,0.4,0.3-0.5,0.2,0.5c0,0.5,0,0.2-0.2,0.5V159.7z M64.5,159.9
			c0-0.6,0-0.8,0.3-1.3c0.8-1.1,3.4-0.3,5.4-0.1l9.1,1.2c3.7,0.5,4.3,3.1,0.7,4.5l-6.5,2.6c-1.1,0.5-2.3,1-3.5,1.3
			c0.5,0.7,1,0.5,3.3,0.8c1.4,0.2,2.4,0.4,3.8,0.6c1.2,0.2,2.5,0.3,3.8,0.6c2.4,0.4,2.6,1,2.6,2.4c0,1.6-1.8,1.9-3.1,2.4l-8.2,3
			c-1,0.4-3.2,1.4-4.3,1.4c-0.6,0-1.4-1-1.4-1.6c0-1.6,6.1-3.2,8.4-4c1-0.3,2.3-1,3.3-1.1c-0.5-0.7-1.2-0.5-3.5-0.8
			c-1.4-0.2-2.5-0.3-3.8-0.6c-1.9-0.3-5.8-0.1-5.3-3.1c0.3-1.6,3.2-2.4,5.4-3.3l6.1-2.5c-1.9-0.4-4.6-0.5-6.8-0.8
			C68.1,161.4,64.5,161.5,64.5,159.9L64.5,159.9z M339.1,163.6c-2.7,0-5.1-0.1-7.3-2.1c-3.7-3.5-4.2-14.4,6.8-14.4
			c6.9,0,9.8,6.1,7.8,11.5c-0.6,1.6-1.3,2.6-2.6,3.5C342.5,163.1,340.9,163.6,339.1,163.6L339.1,163.6z M205.8,39.6
			c14.9,0,33,3.6,46.1,9.9c0.9,0.4,1.6,0.7,2.4,1.1c3.9,2,7.7,3.9,11.3,6.3c1.5,1,2.8,1.7,4.3,2.8c8.5,5.9,11.6,9.3,18.7,16.3
			l4.9,5.6c0.6,0.7,1,1.2,1.5,1.9c5.1,6.9,6.7,9.4,11,17.1c2.7,4.9,6.4,14.5,8,20.1c2.5,8.8,3.6,14.6,4.3,23.9
			c0.2,2,0.1,4.7,0.2,6.9c0.3,3.8-0.1,9-0.5,13c-1.4,13.1-5.3,26.6-11,37.9l-2.4,4.6c-3,5.9-7.3,11.6-11.3,16.8l-6.7,7.5
			c-10.9,10.9-22.6,19.2-37.5,25.4c-1.7,0.7-3.3,1.4-5.1,2l-5.3,1.8c-8,2.7-21.1,4.8-30.4,4.8c-11.8,0-18.7-0.5-29.7-3.2
			c-8.6-2.2-17.8-5.6-25.4-9.6c-4.1-2.2-9.6-5.5-13.1-8.2l-6.8-5.3c-0.4-0.4-0.6-0.4-1-0.8c-1.9-1.7-7.5-6.7-9-8.6
			c-0.6-0.7-1.1-1.1-1.7-1.8l-3.2-3.9c-0.6-0.7-1-1.1-1.5-1.9c-0.6-0.7-1-1.2-1.5-1.9l-5.6-8.3c-0.9-1.5-1.9-2.9-2.6-4.5
			c-1.8-3.5-3-5.6-4.7-9.5c-4.5-10-8.6-25.3-9.1-36.4l-0.2-6.9c0-3.3-0.1-6.4,0.2-9.8c0.2-2.4,0.2-4.2,0.6-6.5
			c1.4-10.3,4.7-23.4,9.4-32.7c1.9-3.7,2.5-5.3,4.7-9.2c2.8-4.9,5.2-8.2,8.4-12.6c1-1.3,2-2.7,3.2-3.9c11.9-13.7,23.5-22.5,40-30.2
			C171.6,44,188.2,39.6,205.8,39.6L205.8,39.6z M88.3,144.4h0.2v1.1h-0.2V144.4z M88.5,141.6c0.3,0.4,0.3-0.5,0.2,0.5
			c0,0.5,0,0.2-0.2,0.5V141.6z M78,143.7c0,2.7-0.2,4.4-0.2,7.1c0.7,0.2,1.7,0.6,2.3,0.9c1.8,0.9,1.8,0.6,1.8,2.1
			c0,0.7-1,1.4-1.7,1.3L68.6,150c-1.8-0.8-3.8-1.2-3.8-3.3c0-1.7,1.8-2.3,3.2-2.8c2.5-0.8,12.2-4.5,13.3-4.5c0.4,0,2.3,1.7,0.6,2.9
			C80.9,142.9,79,143.2,78,143.7z M88.7,139.8c-0.1-0.4,0.3-0.8,0.1-0.1C88.9,139.7,88.9,140.6,88.7,139.8z M88.9,137.7
			C88.9,137.1,89.3,137.7,88.9,137.7C89.1,137.7,88.9,138.4,88.9,137.7z M89.2,136.1c-0.1-0.4,0.3-0.8,0.1-0.1
			C89.3,136,89.3,136.9,89.2,136.1z M89.4,134.5C89.4,133.9,89.8,134.5,89.4,134.5C89.5,134.5,89.4,135.2,89.4,134.5z M89.6,132.9
			C89.6,132.3,90,132.9,89.6,132.9C89.8,132.9,89.6,133.6,89.6,132.9z M89.9,131.8c-0.1-0.4,0.3-0.8,0.1-0.1
			C90,131.7,90,132.6,89.9,131.8z M331.1,136.6c0,5.2,5.3,3.7,5.3,5.9c0,2.6-7.8,2.1-7.8-6.6c0-4.4,4.5-7.3,8-7.3h2.1
			c3.6,0,6.4,2.8,7.2,5.9c0.5,2,0.3,3.8-0.5,5.4c-1.9,3.9-5.1,4-5.1,1.5c0-1.4,3.2-1.3,3.2-5.3c0-3-3-4.7-6.3-4.2
			c-2,0.3-2.6,0.3-4.1,1.2C332,133.7,331.1,135.1,331.1,136.6L331.1,136.6z M90.1,130.4C90.1,129.8,90.5,130.4,90.1,130.4
			C90.2,130.4,90.1,131.1,90.1,130.4z M90.3,129.3C90.3,128.7,90.7,129.3,90.3,129.3C90.5,129.3,90.3,129.9,90.3,129.3z M90.5,128.1
			C90.5,127.5,90.9,128.1,90.5,128.1C90.7,128.1,90.5,128.8,90.5,128.1z M90.8,127C90.8,126.4,91.2,127,90.8,127
			C90.9,127,90.8,127.6,90.8,127z M91,126.1C91,125.5,91.4,126.1,91,126.1C91.1,126.1,91,126.7,91,126.1z M91.2,124.9L91.2,124.9
			C91.3,125,91.2,125,91.2,124.9z M69.1,131.1c5.3,1.2,4.4,0.8,4.7-1c0.4-2.2,0.4-5.2,1.9-5.2c2.3,0,0.6,4.2,0.3,6.6
			c-0.2,1.3,0.5,1,4.7,1.6c3.9,0.6,2.4,3.1,1.2,3.4c-0.9,0.2-10.1-1.6-11.7-1.8c-5-0.8-4.3-0.4-3.2-7.2c0.8-4.6,0.5-5.2,2.9-4.7
			C70.6,125.7,69.3,127.7,69.1,131.1z M91.5,124C91.5,123.4,91.9,124,91.5,124C91.6,124,91.5,124.7,91.5,124z M91.7,123.1
			L91.7,123.1C91.8,123.2,91.7,123.1,91.7,123.1z M91.9,122.2L91.9,122.2C92,122.3,91.9,122.2,91.9,122.2z M92.1,121.5
			C92.1,120.9,92.5,121.5,92.1,121.5C92.3,121.5,92.1,122.1,92.1,121.5z M92.4,120.6C92.4,120,92.8,120.6,92.4,120.6
			C92.5,120.6,92.4,121.2,92.4,120.6z M92.6,119.9C92.6,119.3,93,119.9,92.6,119.9C92.7,119.9,92.6,120.5,92.6,119.9z M92.8,119
			C92.8,118.4,93.2,119,92.8,119C93,119,92.8,119.6,92.8,119z M93.1,118.3C93.1,117.7,93.5,118.3,93.1,118.3
			C93.2,118.3,93.1,118.9,93.1,118.3z M93.3,117.4L93.3,117.4C93.4,117.5,93.3,117.4,93.3,117.4z M93.5,116.7
			C93.5,116.1,93.9,116.7,93.5,116.7C93.7,116.7,93.5,117.3,93.5,116.7z M93.7,116C93.7,115.4,94.1,116,93.7,116
			C93.9,116,93.7,116.7,93.7,116z M94,115.3C94,114.7,94.4,115.3,94,115.3C94.1,115.3,94,116,94,115.3z M94.2,114.6
			C94.2,114,94.6,114.6,94.2,114.6C94.3,114.6,94.2,115.3,94.2,114.6z M94.4,114C94.4,113.4,94.8,114,94.4,114
			C94.6,114,94.4,114.6,94.4,114z M94.7,113.3C94.7,112.7,95.1,113.3,94.7,113.3C94.8,113.3,94.7,113.9,94.7,113.3z M94.9,112.6
			L94.9,112.6C95,112.7,94.9,112.6,94.9,112.6z M95.1,112.1C95.1,111.5,95.5,112.1,95.1,112.1C95.3,112.1,95.1,112.8,95.1,112.1z
			 M95.3,111.4C95.3,110.8,95.7,111.4,95.3,111.4C95.5,111.4,95.3,112.1,95.3,111.4z M95.8,110.5l-0.1,0.5L95.8,110.5z M95.8,110.5
			l0.1-0.5L95.8,110.5z M96,109.6C96,109,96.4,109.6,96,109.6C96.2,109.6,96,110.3,96,109.6z M96.3,108.9L96.3,108.9
			C96.3,109,96.2,109,96.3,108.9z M96.7,108.2l-0.1,0.5L96.7,108.2z M96.7,108.2l0.1-0.5L96.7,108.2z M72.5,115.3
			c1.4,0.1,2.9,1,4.3,1.1c0.1-1.2,0.6-2.4,1-3.6c0.3-1,0.5-3,1.8-3c2.7,0-0.2,4.8-0.5,7.3c1.3,0.6,5.6,1.4,6.4,2.1s0.8,1.9-0.1,2.5
			c-1.1,0.8-7.6-1.6-9.7-2.2c-7.7-2.2-6.6-1.1-4.7-8c0.2-0.8,0.5-1.7,0.8-2.7c0.4-1.2,0.4-1.5,1.2-2.2c1.1,0.2,0.9,0.4,1.6,0.9
			C74.4,109.5,72.6,113.4,72.5,115.3L72.5,115.3z M97.2,107.1l-0.1,0.5L97.2,107.1z M97.2,107.1l0.1-0.5L97.2,107.1z M97.6,106
			l-0.1,0.5L97.6,106z M97.9,105.5l-0.2,0.5L97.9,105.5z M97.9,105.5L98,105L97.9,105.5z M98.1,104.6L98.1,104.6
			C98.2,104.6,98.1,104.6,98.1,104.6z M98.5,103.9l-0.1,0.5L98.5,103.9z M98.8,103.4l-0.2,0.5L98.8,103.4z M99,103l-0.2,0.5L99,103z
			 M99.2,102.5L99,103L99.2,102.5z M99.2,102.5l0.1-0.5L99.2,102.5z M99.5,101.6L99.5,101.6C99.5,101.7,99.4,101.6,99.5,101.6z
			 M99.9,100.9l-0.1,0.5L99.9,100.9z M100.1,100.5l-0.2,0.5L100.1,100.5z M100.4,100l-0.2,0.5L100.4,100z M100.6,99.6l-0.2,0.5
			L100.6,99.6z M100.8,99.1l-0.2,0.5L100.8,99.1z M89.2,108.2c-1.3,0-9.9-3.9-11.8-4.7c-1.1-0.5-3.1-1.1-3.1-2.4
			c0-0.7,0.8-1.6,1.4-1.6c0.8,0,7.9,3.1,9.5,3.8c0.9,0.4,2.3,1.1,3.4,1.2c0.9-1.6,1.8-4.5,2.7-6.3c0.4-0.9,0.7-1,1.7-1.3
			c1.7,1.5,1,1.5-1.1,6.7C91.4,104.5,90,108.2,89.2,108.2L89.2,108.2z M101.1,98.6l-0.2,0.5L101.1,98.6z M101.3,98.2l-0.2,0.5
			L101.3,98.2z M101.3,98.2L101.3,98.2z M101.8,97.5L101.8,97.5z M102,97l-0.2,0.5L102,97z M102.2,96.6l-0.2,0.5L102.2,96.6z
			 M102.4,96.1l-0.2,0.5L102.4,96.1z M102.7,95.7l-0.2,0.5L102.7,95.7z M102.9,95.2l-0.2,0.5L102.9,95.2z M103.1,95l-0.2,0.2
			L103.1,95z M317.4,98.2c0-1.4,5.4-3.2,7-3.8c1.3-0.5,7-3.1,7.9-3.1c1.2,0,2.1,3.1,2.1,3.5c0.1,1.4-4.9,4.5-5.9,5.3l-3.4,2.6
			l8.8-1.1c1.8-0.3,2.9-0.8,3.7,0.7c0.5,0.9,1.4,2.8,0.6,3.6c-0.5,0.5-5.9,2.6-7,3.1c-1.4,0.6-6.4,2.8-7.4,2.8s-2.1-1.8-0.3-2.8
			c1.7-0.9,7.8-3.1,10.2-4.2c0.5-0.2,0.5-0.3,0.8-0.5c-2.5,0-12.4,2.4-13.8,1.4c-2.9-2,2.2-4.8,4.4-6.5c0.9-0.7,5.3-3.7,5.7-4.3
			c-0.7,0.1-2.7,1-3.5,1.3c-1.3,0.6-7.9,3.7-8.9,3.4C317.9,99.5,317.4,98.8,317.4,98.2L317.4,98.2z M103.4,94.5l-0.2,0.5L103.4,94.5
			z M103.6,94.1l-0.2,0.5L103.6,94.1z M103.8,93.6l-0.2,0.5L103.8,93.6z M103.8,93.6c0.2-0.7,0-0.3,0.5-0.7
			C104.1,93.6,104.3,93.3,103.8,93.6z M104.5,92.5l-0.2,0.4L104.5,92.5z M104.5,92.5c0.2-0.7,0-0.3,0.5-0.7
			C104.8,92.4,105,92.1,104.5,92.5z M105.2,91.3l-0.2,0.5L105.2,91.3z M105.2,91.3c0.2-0.7,0-0.3,0.5-0.7
			C105.5,91.3,105.7,91,105.2,91.3z M105.9,90.2l-0.2,0.5L105.9,90.2z M106.1,89.9l-0.2,0.2L106.1,89.9z M106.3,89.5l-0.2,0.5
			L106.3,89.5z M106.3,89.5c0.2-0.7,0-0.3,0.5-0.7C106.6,89.5,106.8,89.2,106.3,89.5z M106.8,88.8c0.2-0.7,0-0.3,0.5-0.7
			C107.1,88.8,107.3,88.5,106.8,88.8z M107.2,88.1c0.2-0.7,0-0.3,0.5-0.7C107.5,88.1,107.7,87.8,107.2,88.1z M107.7,87.4
			c0.2-0.7,0-0.3,0.5-0.7C108,87.4,108.2,87.1,107.7,87.4z M108.2,86.7c0.2-0.7,0-0.3,0.5-0.7C108.5,86.7,108.6,86.4,108.2,86.7z
			 M108.6,86.1c0.2-0.7,0-0.3,0.5-0.7C108.9,86,109.1,85.7,108.6,86.1z M109.1,85.4c0.2-0.7,0-0.3,0.5-0.7
			C109.4,85.3,109.6,85,109.1,85.4z M109.5,84.7c0.2-0.7,0-0.3,0.5-0.7C109.8,84.7,110,84.3,109.5,84.7z M110.2,83.8L110,84
			L110.2,83.8z M110.2,83.8c0.2-0.7,0-0.3,0.5-0.7C110.5,83.7,110.7,83.4,110.2,83.8z M110.7,83.1c0.2-0.8,0.1-0.5,0.7-0.9
			C111.1,83,111.3,82.7,110.7,83.1z M111.4,82.2c0.2-0.8,0.1-0.5,0.7-0.9C111.8,82.1,112,81.8,111.4,82.2z M316.7,94.5
			c-4,0-0.4-4,0.7-5.3c-1.1-2.1-2.5-4.1-3.7-6.2c-3.4,0.8-5.3,1.5-5.3-1.1c0-1.5,5.7-2,7.5-2.3c1.9-0.3,7.4-1.4,8.9-1.4
			c1,0,1.7,0.7,2,1.5c0.4,1,0.1,1.7-0.5,2.6l-6.3,8.4C319.6,91.4,317.5,94.5,316.7,94.5L316.7,94.5z M112,81.3
			c0.2-0.8,0.1-0.5,0.7-0.9C112.5,81.1,112.6,80.9,112,81.3z M113,80.1l-0.2,0.2L113,80.1z M113,80.1c0.2-0.8,0.1-0.5,0.7-0.9
			C113.4,80,113.6,79.7,113,80.1z M113.6,79.2c0.2-0.8,0.3-0.8,0.9-1.1C114.4,78.8,114.2,78.8,113.6,79.2z M84.6,85.6
			c0.7,0.4,1.2,0.7,1.9,1.1c0.7,0.4,1.1,0.8,2,1c0.1-0.6,0.6-1.3,0.9-1.8c0.4-0.7,2.8-5.3,3.4-5.3c2.2,0,1.3,1.9,0.6,2.9
			c-0.4,0.6-0.6,1.1-1,1.7l-1.9,3.6c0.5,0.6,3.5,2.3,4.1,2.5c0.6-0.5,0.9-1.1,1.3-1.9l2.4-4.2c1.7-3.2,2.9-1,2.9-0.5
			c0,0.9-1.2,2.5-1.6,3.2L96.1,94c-1.5,2-2.6,0.4-6.1-1.5L83.9,89c-4.1-2.3-3-2.3,1.4-9.9c0.3-0.6,0.5-0.9,0.8-1.5
			c1.3-2.1,2.5-0.6,2.5,0c0,1-2.3,4.5-3.1,5.9C85.2,84.3,84.8,84.7,84.6,85.6L84.6,85.6z M114.6,78.1c0.2-0.7,0.6-1,1.1-1.4
			C115.5,77.4,115.1,77.7,114.6,78.1z M115.7,76.7c0.2-0.8,0.8-1.2,1.4-1.6C116.9,75.9,116.3,76.3,115.7,76.7z M117.1,75.1
			c0.2-0.9,1.1-1.6,1.8-2.1C118.7,73.9,117.8,74.6,117.1,75.1z M98.1,66.9c-4,0-4.9,5.5-2.1,5.5c2.4,0,5-4.6,8.7-4.6
			c2.5,0,7.5,3.4,2.3,10c-2.6,3.4-8,3.3-8,0.5c0-2.3,3.7,0,5.5-1.3c3.6-2.6,2.1-8.4-2.8-4.6c-2.9,2.3-5.3,4.6-8.5,2.1
			C89.3,71.4,93.9,64,98.5,64c2.9,0,3.1,2.7,1.5,3.1C99.4,67.2,99.1,66.9,98.1,66.9L98.1,66.9z M308.7,66.4c1.1,2.2,7.3,7.8,3.7,7.8
			c-1.1,0-4.4-5.3-5.7-6.2c-1.4,0.9-2.5,2-3.9,3c0.8,1.3,1.8,2.4,2.8,3.6c0.8,0.9,4.8,5.1,1.3,5.1c-0.7,0-0.9-0.6-1.2-1l-3.4-4.2
			c-2.3-2.9-4-3.9-1.7-5.7c1.7-1.4,10.4-8.5,11.1-8.5c1.3,0,5.1,5.5,6.1,6.7c0.7,0.8,1.4,1.6,1.7,2.7c-1.7,2-2.4,0.1-4-1.8l-3.4-4.2
			C311.4,64.1,309.1,65.8,308.7,66.4L308.7,66.4z M306.2,55.4c0,2-1.1,3.5-2.6,4.3c-2.4,1.2-3.2-0.2-5-0.6c0.1,1,0.2,0.6,0.2,2.3
			c0,1.4-0.7,5.9-2.3,5.9c-3.4,0-0.5-4.7-0.5-9.1c0-1.3-1.3-2.4-2.1-3c-1.8,1.2-4,4.4-5.1,4.7c-0.6,0.1-3.3-0.8-0.7-3.2
			c0.7-0.7,0.9-1.1,1.6-1.8c1.2-1.2,2.3-2.2,3.4-3.4c0.6-0.7,0.8-1.1,1.5-1.7c3.6-3.5,3.2-3.8,5.6-1.8c1.1,0.9,2.3,2.2,3.3,3.3
			C304.7,52.3,306.2,53.3,306.2,55.4L306.2,55.4z M116.6,47.9c0,2.5,0.3,3.3,2.1,5.4c2.4,2.9,6.3,3.3,8.2,0.1
			c0.3-0.6,0.6-1.6,0.6-2.3c0,0-0.2-1.1-0.3-1.3c-0.2-0.6-0.3-0.6-0.3-1.3c0-1.3,3.4-3.1,3.4,3.2c0,2.9-3.4,5.7-5.7,6.4
			c-1.6,0.5-3.3,0.4-4.8-0.3c-4.5-1.9-9.6-9-3.4-14.8c3-2.8,8.9-2.4,8.9,0.6c0,2.2-3.5,0.2-4.8,0.2c-1,0-2.1,0.7-2.7,1.2
			C117.2,45.8,116.6,46.7,116.6,47.9L116.6,47.9z M278.1,45.8v1.4c0,1.3,2.5,5.5,7.2,2.6c0.6-0.3,0.7-0.5,1.2-0.4
			c2.4,0.5,1,4.2-3.8,4.2c-3.3,0-7.5-3.5-7.5-6.6v-1.6c0-3.8,4.3-8.9,8-8.9h1.6c3.1,0,7.1,3.7,7.1,6.9v1.1c0,1.2-0.8,2-1.8,2.3
			c-2.4-1.3-0.4-2.3-1.3-4.8c-0.6-1.7-2.3-2.7-4.4-2.7c-1.8,0-3.1,1.3-4.1,2.3C279.4,42.4,278.1,44.3,278.1,45.8L278.1,45.8z
			 M139.3,38.7c2.2,0,7.5,1.7,7.5,3.9c0,0.6-1,1.4-1.6,1.4c-1.9,0-4.9-3.2-8.2-3.2c-0.9,0-1.8,0.8-2.5,1.1c0.6,2.6,5.1,6.1,2.2,7.5
			c-1.2,0.6-2-0.7-2.7-1.8c-0.4-0.6-0.7-1-1.1-1.7c-0.7-1.1-1.3-2.1-1.9-3.1c-0.6-0.9-3.7-5.8-3.8-6.5c-0.3-1.5,3.7-3.4,5.6-4.5
			c2-1.2,4.9-2.7,7.2-0.3C142.9,34.8,140.2,37.2,139.3,38.7L139.3,38.7z M118.9,73c0.3-1.1,7.9-8.3,9.6-9.6c6.7-5.4,9-7.5,16.7-12.1
			c1.7-1.1,7.4-4.3,9.3-5.1c1.2-0.5,2-1.1,3.2-1.6c24.2-10.4,47.3-13.1,73.7-7.7c6.2,1.3,9.3,2.4,14.9,4.3
			c3.7,1.2,10.3,4.1,13.5,5.7l6.2,3.4c7.8,4.7,11.6,7.6,18.2,13.1l10.9,10.9c0.5,0.5,0.5,0.7,1,1.3l5.4,6.9
			c25.4,33.8,30.8,83.8,10.2,123.4L310,209c-1.7,3.2-5.4,9.2-7.4,11.8l-7.4,9.5c-5.4,6.4-15.1,14.6-21.7,19.3
			c-4.6,3.3-13.1,8.1-18.5,10.5c-12.8,5.7-24.3,8.6-38.2,10c-1.5,0.2-3,0.3-4.5,0.3c-3,0-5.7,0.5-9.2,0.1c-1.5-0.2-3.1,0.1-4.6-0.2
			c-1-0.2-8-0.6-8.8-1c2.6,0,8.7,0.9,13.3,0.9c9,0,13.8-0.1,22.5-1.5c5.2-0.9,11-2.2,15.5-3.7c10.6-3.6,16.4-6.1,26.3-11.9
			l16.5-12.3c1.9-1.5,5.6-5.2,7.4-7c0.5-0.5,0.6-0.7,1-1.3c0.4-0.5,0.8-0.8,1.3-1.3c3.7-3.8,11.6-14.7,14.1-19.3
			c4.9-8.9,6.6-11.8,10.4-23.2c2.6-7.8,4-15.3,5-23.6c0.2-1.6,0.2-2.9,0.4-4.4c1.4-10.9-0.8-28.6-3.7-38.7c-0.3-1.2-0.8-2.6-1.1-3.7
			l-3.8-10.6c-1.6-3.7-2.6-6.1-4.5-9.7l-1.7-3.1c-3.6-6.1-9.1-14.5-13.9-19.7l-5.8-6.1c-1.5-1.2-3.9-3.8-6.3-5.8
			c-9.4-7.6-17.7-13.6-29.3-18.5c-12.9-5.4-20.4-7.3-33.8-9.2c-3.9-0.5-14.2-1-18.2-0.6c-0.7,0.1-1.5,0-2.3,0
			c-1.2,0-1.3,0.2-2.3,0.2c-6,0.3-11.5,1.4-16.7,2.5c-16.6,3.5-33.7,12.1-47,22.5c-3.1,2.5-6.1,5.1-9,8
			C122.6,69.5,120.1,72.2,118.9,73L118.9,73z M260.7,30c1.8,1,7.3,3.1,7.3,4.1c0,0.6-0.1,0.6-0.2,1.1c-1.6,0.4-0.9,0.3-4.6-1.4
			c-1.1-0.5-2.5-1.6-3.9-1.6c-0.3,1.4-1.7,3.3-1.8,4.6c0.8,0.2,1.4,0.6,2.1,0.9c1.1,0.5,6.2,2.5,6.2,3.4c0,2.8-3.4,0.7-6.2-0.7
			c-7.7-3.9-6.5-1.5-2.3-11c3.3-7.4,2.9-7.5,6.6-5.6c1,0.5,1.8,0.8,2.8,1.3c1.5,0.6,4.2,1.8,5,3c-0.5,2.2-1.7,1.3-3.1,0.6
			c-1.2-0.6-5.4-2.6-6.3-2.7C261.9,27.5,260.8,28.6,260.7,30L260.7,30z M147.3,26.8c0.7,1.3,1.2,2.6,1.8,3.9
			c0.8-0.2,1.2-0.4,1.8-0.7c1.1-0.5,4.9-2.3,5.7-2.3c0.9,0,1.3,1.2,0.7,1.8c-0.5,0.5-6.2,2.8-7.4,3.4c0.8,1.4,1.3,3.2,2.1,4.6
			l4.2-1.8c0.9-0.4,3.3-1.7,4.3-1.7s1.8,1.6,0.2,2.5l-9.8,4.2c-1.6,0-2.8-4.5-3.9-6.6c-0.4-0.8-3.2-7.1-3.2-7.5c0-1.4,3-2.2,4.9-3.1
			c3-1.4,6.8-3.8,6.8-1c0,0.9-1,1.1-1.6,1.4c-0.7,0.3-1.4,0.6-2.2,1C150.2,25.6,148.6,26.1,147.3,26.8L147.3,26.8z M160.3,19.7
			c0-1.3,2.6-1.7,3.9-2.1c3-0.9,6.2-2.2,8.4,0.5c0.9,1.1,1.2,2.4,1.2,4.1c0,3.5-4.8,4.8-7.8,5.5c0,1.6,3,7.3-0.2,7.3
			c-1.7,0-2.6-4.8-3.2-7.1C162.1,26.5,160.3,20.8,160.3,19.7L160.3,19.7z M241,27.3c0,3.9,2.1,4.8,5.3,4.8c2.2,0,2.8-2.7,4.1-2.7
			c4.2,0-1.7,9.7-10.2,3.3c-4.8-3.6-1.8-15.2,5.4-15.2h1.1c3.3,0,7.1,2.6,7.1,6.9c0,0.5-0.9,1.4-1.1,1.4c-3.1,0-0.4-5.7-6.4-5.7
			C242.9,20,241,24.9,241,27.3L241,27.3z M231.4,31.2c-3.1,0-2-2.1-1.3-5.6l1.7-8.3c0.3-1.3,0.4-3.2,1.8-3.2c3,0,1.3,4.4,0.5,8.3
			c-0.3,1.6-0.6,3.1-1,4.7C232.9,28.2,232.7,31.2,231.4,31.2L231.4,31.2z M181.1,16.1c0,1.8,0.5,2.6,0.5,4.3
			c0.5-0.2,4.1-0.7,4.9-0.8c1.9-0.3,4.1-1.1,4.1,0.8c0,1.4-2.4,1.4-3.7,1.6s-3.4,0.7-4.8,0.7c0.1,1.1,0.4,2.3,0.6,3.5
			c0.2,1.7-0.2,1.5,2.5,1.1c2.1-0.3,5.6-1.1,7.3-0.8c0.5,2.2,0.6,2.2-5,3c-8.7,1.2-6.9,3.5-9.1-10c-0.8-4.8-1.4-5.4,2.1-6l7.1-1.1
			c2.1-0.3,2.6-0.3,2.6,1.3c0,1.2-2.7,1.3-4,1.5C184.4,15.6,182.6,16,181.1,16.1L181.1,16.1z M198,15.6c0,3.5,10.3,1.1,10.3,7.5
			c0,5.4-7.6,6.8-11.3,4.3c-1.6-1.1-3.8-4.9-0.3-4.9c1.3,0,1.4,3.7,3.9,3.7h1.4c3,0,4.2-3.1,2.1-4.4c-1.7-1-4.7-1-6.8-2.1
			c-4.3-2.3-2.4-8.6,4.3-8.6c5.6,0,7.4,5.5,4.1,5.5c-1.3,0-1.5-3-3.7-3C200.7,13.6,198,13.3,198,15.6L198,15.6z M58.1,148.5
			c0,10.2-0.1,13.5,1.6,24c0.8,4.8,5.2,23.6,7,29.1c2.4,7.3,5.7,15.4,9.6,22c5,8.4,10.4,16.5,16.6,24.1c5.3,6.5,7.8,8.9,14.2,14.9
			c0.5,0.5,0.7,0.5,1.3,1c0.8,0.8,1.6,1.4,2.5,2.1l5.1,3.9c8.6,6.4,12.2,8.8,21.8,14.3c4.1,2.4,14.4,6.6,19.2,8c6,1.8,22.9,6,29.1,7
			c13.7,2.3,26.9,2.3,40.6,0c5-0.8,23.6-5.2,29.1-7c14.3-4.8,23.5-9.8,35.5-18.5c5.4-3.9,9.1-6.5,14-10.7
			c3.8-3.2,11.5-11.3,14.3-14.9l7.7-10.4c5-6.7,6.6-9.8,10.5-16.5c1.7-3,4.2-8.9,5.6-12.4c0.9-2.2,1.7-4.5,2.4-6.7
			c1.8-6,6-22.9,7-29.1c2.3-13.7,2.3-26.8,0.1-40.4c-0.8-4.9-5.2-23.6-7-29.1c-0.8-2.3-1.5-4.5-2.3-6.6
			c-4.7-11.7-8.7-18.8-16.1-29.1c-0.7-0.9-1.2-1.6-1.8-2.5l-5.9-7.8c-0.7-0.8-1.2-1.6-1.9-2.4c-3.2-3.4-7.6-8.7-11.2-11.5
			l-15.4-11.9c-3.5-2.7-7-4.9-10.8-7.2c-5.3-3.2-6.9-3.7-11.8-6.2c-1.9-1-4.1-1.8-6.3-2.6c-6.7-2.7-13.8-4.6-21.1-6.1
			c-18.9-4.1-19-4.9-39.2-4.9c-12,0-26.5,3.7-38.2,6.6c-5.3,1.3-11.9,3.5-16.9,5.7c-10.4,4.6-16.2,7.9-25.7,14.7
			c-0.9,0.7-1.6,1.2-2.5,1.8L107.3,42c-3.8,3.2-11.5,11.3-14.3,14.9L89.1,62c-6.7,9-8.7,12.2-14.3,21.8L70.5,93
			c-3.6,8.9-5.3,14.5-7.4,24.3c-1.1,5-2.4,9.6-3.3,14.8C58.9,137.1,58.1,142.8,58.1,148.5L58.1,148.5z"/>
		<path class="st0" d="M126.9,179.1c0,1.4,1,2.6,2,3.9c1.4,1.7,5.3-0.1,7-0.6c1.6-0.5,2.9-0.8,4.6-1.3c7.5-2.1,26.6-5.9,34.8-7.3
			l15.5-2.6c8.5-1.4,23.6-3.3,32.1-4c1.6-0.1,3.6-0.3,5.4-0.5l16.7-1.3c2.2-0.1,3.7-0.2,5.7-0.2s4.2,0.2,6-0.1s4.2-0.1,5.7,0.1
			c1.3,0.2,5.7,0,8.6,0.3c6.3,0.5,12.3,0.9,18.6,2.7c1.9,0.6,4.8,1.5,6.4,2.5c0.8,0.5,1.2,0.9,2.2,1c0.6-2.5,4.4-6.2-0.9-11.3
			c-4.7-4.6-18.6-4.1-25.7-4.1c-5.8,0-11.6,0.4-17.4,0.7l-31.3,3c-5.9,0.4-30.4,4-36.8,5.1l-18,3.1c-10.6,2.1-24.4,4.6-34.4,7.6
			C132.3,176.2,126.9,177.2,126.9,179.1L126.9,179.1z"/>
		<path class="st0" d="M111.4,130.7c0,4,3.8,6.6,7.5,6.6c1.1,0,5.7-3.1,7.2-4c3.2-1.9,13.4-6.6,16.5-3.5c1.5,1.6,2.6,5.5,2.6,8.6
			c0,3.4-1.5,6.2-2.7,8.5c-0.6,1.1-1.5,2.5-2.2,3.5c-3.5,4.7-11.1,11.8-16.8,11.8c-5.3,0-4.8-3-5.4-4.2c-1.1-2-3.9-1.8-3.9,1.2
			c0,5.6,5.4,10.7,12.1,10.7c5.6,0,14.9-5.7,18.2-9c7.7-7.6,12.5-14.3,11.7-26c-0.2-3-1.7-6-3.5-7.5c-5.9-4.9-17.2-2.5-23.2,0
			c-3.6,1.5-11.9,6.7-11.9,3.9c0-2.1,2.7-5.8,3.8-7.2c0.4-0.5,0.8-1,1.2-1.5c4.5-5.1,11.7-12.1,18.8-12.1c1.8,0,3.3,0.5,4.7,1
			c0.9,0.4,3.4,1.7,4,1.7c3.9,0-1.4-13.3-8.9-13.3c-2.6,0-4.4,0.6-6.6,1.6c-5,2.2-9,5.9-12.8,9.7
			C118.1,114.9,111.4,123.8,111.4,130.7L111.4,130.7z"/>
		<path class="st0" d="M211.7,134.3h-2.5c0-3.3,0.4-7.5,1.9-9.7c2.2-3.3,4.7-2.4,4.7,3.8C215.9,130.9,214.1,134.3,211.7,134.3z
			 M233.7,133.4l-0.2-6.2c0-8.3,6.2-15,6.2-3.7c0,3.6-1.1,6.1-3.4,8.3C235.4,132.7,234.7,132.9,233.7,133.4L233.7,133.4z
			 M214.9,147.8c-4.2,0-5.4-8.9-5.7-12.1c3.7,0.3,6.4,1,9.2-2.5c3.6-4.5,1.5-16-4.2-16c-2.9,0-5.1,0-7.7,1.4c-4,2.1-6.2,11-6.2,15.7
			c0,4.9,0.4,9.2,3.1,13.1c2.2,3.2,4.9,4.9,9.5,4.9c5.3,0,8.4-4.5,10.5-8.5c0.4-0.8,1.8-3.7,1.8-4.6h0.5c0.3,3.7,5.2,11.2,11.2,11.2
			c6.4,0,8.8-4.3,11.2-9.1c1.5-3,2.8-7.5,3.7-11c0.2-0.7,0.3-1.4,0.5-2.1c0.2-0.8,0.5-1.3,0.2-1.8c-1-0.5-1.7,0.5-2,1.4l-1,3.2
			c-1.2,3.6-4.9,14.9-9.8,14.9c-3.4,0-5.7-8.9-5.7-11c2.7-1.3,6.8-2,9.3-6.7c3.1-5.7,0.1-14.6-4.5-14.6c-9.7,0-13.8,10.2-14.2,18.5
			c-0.1,1.4,0.5,1.9,0.2,3.3c-0.6,2.6-3.2,7.9-5,9.6C218.7,146.3,216.8,147.8,214.9,147.8L214.9,147.8z"/>
		<path class="st0" d="M186.4,122.4l1.5,11c0.3,2.3,0.1,9.4-0.3,11.9c-0.4,2-1.3,5.2-2.6,6.1c-0.1-0.6-1.2-3-1.8-5.5
			c-0.6-2.6-1-6.7-1.5-9.7c-0.2-1-0.1-2.4-0.7-3.2c-1.2-1.8-8.9-3.5-8.9,0.4c0,5.3,1.8,6.2,0.5,11.7c-0.4,1.8-0.8,3.5-1.2,5.4
			c-0.4,1.4-1.3,4.3-1.3,5.6h-0.5c-0.6-2.7-1.2-2.3-2.1-7.5c-0.2-1.4-0.3-2.8-0.5-4.3c-0.1-1.3-0.1-3.3-0.3-4.7
			c-0.9-6.1,3-13.1-6.8-13.1c-0.6,0-1.1,0.1-1.4,0.2c-1,0.3-1.4,0.7-1.1,1.7c0.3,1.2,0.5,0,0.9,3.5l0.8,10.6
			c0.7,5.2,0.4,9.7,3.4,13.7c1,1.3,1.6,1.8,3,2.8c2.5,1.7,6.1,2.1,6.1,1.2c0-2.6-1.5,1.2,0.5-6.6l1.8-6.6c0,6.9,5.3,10.8,11,11
			c0.5,0,1.1-0.1,1.4-0.2c1.2-0.4,0.9-0.9,0.9-0.8v-0.6c-0.2-0.7-1.1-2.1-1.4-2.7c4.5,0,6.2,0.1,8.6-4.2c3.6-6.4,2.4-15.5,1.2-22.5
			c-0.2-0.9-1.2-7.6-2.9-7.6C191.4,119,186.4,120.6,186.4,122.4L186.4,122.4z"/>
		<path class="st0" d="M253.8,89.3v8.5c-0.1,1-0.2,1.1-0.2,2.3c0,2.2,0.6,3.1-1.6,3.2c-1.5,0.1-3.1,0.3-4.4,0.4
			c-5.2,0.5-10.9,0.6-16.2,0.5c-1,0-1.8-0.2-1.8,0.7c0,0.9,2,1.6,2.8,2c8.4,4.2,12.8,3,20.7,2.4c0,9.5-0.3,18.6,1.4,26.5
			c1.1,5.4,5.7,16.5,11.4,16.5c1.8,0,2.8,0.2,1.2-2.6c-0.6-1.1-0.9-1.7-1.4-2.9c-5.2-11.8-3.7-26.3-3.7-39.1c0.7-0.3,2.6-0.7,3.6-1
			c6-1.5,17.8-4.6,23.1-7.3c0.8-0.4,1-0.4,1-1.5c-3.6,0-10.3,1.4-14.2,2.1l-9.8,1.6c-1,0.1-2.4,0.4-3.4,0.5c0-2.3,0.8-9.2-0.6-11.5
			C259.2,86.3,253.8,85.8,253.8,89.3L253.8,89.3z"/>
		<path class="st0" d="M266.2,113.5c1.1,1.7,5.4,1.8,8,1.8c3.6,0,7.3-0.9,10.3-1.6c-1,2-2.8,6.8-3.7,9.1c-1.3,3.3-3.2,8.3-5.2,11
			c-1,1.4-1.6,2.3-3.3,3.1c-1,0.5-1.8,0.2-2.3,1.1c-1.1,1.9,2.5,7.4,5.2,7.4c2.2,0,2.9-1.7,6.1-3c12.4-5,16,2.1,17.9,2.1
			c2,0,0.9-5.6,0.2-6.6c-2.5-3.9-14.3-0.7-16.7,0.5l2.7-6.5c1.3-3.2,4.7-15.4,8.1-17.1c0.9-0.5,1.7-0.1,1.7-1.3
			c-0.1-2.1-3.7-5.5-5.1-6.5c-0.6,0.1-0.8,0.2-1.3,0.6c-0.7,0.5-0.3,0.3-1.1,0.7c-3.9,1.8-10.4,4.2-14.7,4.3
			C270.1,112.6,267.1,112.1,266.2,113.5L266.2,113.5z"/>
		<path class="st0" d="M135.1,218c-2.2,0-3.4-0.8-4.6-3c1.7-1.2,4.8-4.3,5.9-5c0.7,1.3,2.3,2.3,2.3,4.1
			C138.8,215.9,136.8,218,135.1,218z M127.1,214.8c0,0.6,0.9,1.7,1.3,2.1c0.7,0.7,0.9,1.1,1.6,1.8c1.1,1.1,2.6,2.1,4.5,2.3
			c2.9,0.4,10.9-3.8,5.1-11.3c-3.5-4.6-3.8-3.5-6-1.4C132.4,209.6,127.1,213.5,127.1,214.8L127.1,214.8z"/>
		<path class="st0" d="M332,155.3c0,1.6,0.9,3,2,3.8c2.4,1.6,6.3,1.7,8.7,0c3-2.1,2.3-8.6-3.5-8.6c-2,0-4-0.1-5.6,1.3
			C332.8,152.5,332,154,332,155.3L332,155.3z"/>
		<path class="st0" d="M214,242c1,0,4.8-1.1,4.8,1.4c0,2.1-2.3,2.3-4.3,2.3C214.5,244.7,214.3,242.6,214,242z M213.3,253
			c3,0,1.6-2.6,1.6-5c2.8,0,3.6,4.1,5.9,4.1c1,0,1.4-0.5,1.8-1.1c-0.4-1.6-3-2.5-3.4-4.1c2.3-0.2,3.5-3.4,2-5.9
			c-1.3-2.2-4.5-1.7-7.3-1.4c-1.5,0.2-3,0.2-3.1,1.6c0,0.5,0.4,3.3,0.5,4.2C211.7,247.7,211.7,253,213.3,253z"/>
		<path class="st0" d="M273.7,212.5c6.3,0,6.1,7.8,1.1,7.8C269.8,220.3,269.4,212.5,273.7,212.5z M267.8,216.4
			c0,0.6,0.4,2.1,0.6,2.6c3.1,7.3,13.1,4.4,13.1-2.4c0-3-1.6-5.2-4-6.3C272.4,207.9,267.8,212.3,267.8,216.4z"/>
		<path class="st0" d="M141.8,229c0,1.9,1.3,2,3.5,3.8c0.7,0.6,1.2,0.9,1.9,1.5s1.2,1.1,2.1,1.3c0.8-0.4,1.1-0.7,1.4-1.6
			c-0.7-1.2-1.3-1.5-2.5-2.4c-0.7-0.5-2.4-1.7-2.8-2.2c0.2-0.7,1-1.7,1.6-2.1c1.6,1.1,3,2.7,4.3,2.7c0.3,0,2.4-0.9,0-2.7
			c-0.7-0.5-2.2-1.9-2.9-2.1c0.5-0.7,1-1.3,1.4-2.1c1.6,0.8,4.9,3.9,5.7,3.9c0.6,0,1.4-1,1.4-1.6c0-0.8-2.8-2.6-3.5-3.1
			c-5-3.7-3.7-4.3-9.8,4C143.2,226.9,141.8,228.5,141.8,229L141.8,229z"/>
		<path class="st0" d="M203.3,252.8c0.7-2.8-0.7-2.3-3.4-2.6c-4.6-0.5-3.5,0.8-3.5-2.9c4.4,0,5.7,1.2,5.7-1.4c0-1.3-4.2-1.1-5.5-1.1
			c0-1.2,0.2-1.2,0.2-2.5c2.2,0,4.3,0.5,6.6,0.5c2.5-3.7-2.4-2.7-7.1-3.2c-4.3-0.5-2.2,3.2-3.4,10.2c-0.3,1.9,0,2.7,1.7,2.9
			C196.6,252.7,201.7,253.5,203.3,252.8z"/>
		<path class="st0" d="M176.8,240c0,3.7,3,3.6,4.9,5.2c0.8,0.7,0.6,1.2,0.2,2.1c-3.8,0.9-4.6-1.9-5.7-2.7c-1.8,0.9-1.8,2.2-0.5,3.5
			c2.7,2.6,9.9,3.2,9.9-1.9c0-3.4-4.6-4.3-5.4-5.4c-1.8-2.5,4.1-2.7,5,0.6c2.4-0.1,2.2-2,1.1-3.1c-0.3-0.3-1-0.7-1.4-0.9
			C181.2,235.4,176.8,236.2,176.8,240L176.8,240z"/>
		<path class="st0" d="M160.5,233.8c0,3.1,4.3,4.6,4.3,5.7c0,2.9-4.6,1.4-5.5-2.3c-3,0.2-2.5,2.9,0.2,4.8c3.6,2.6,8.5,2,8.5-2.3
			c0-2.4-3.5-4-4.6-5.9c0.4-0.8,0.4-1.1,1.4-1.1c2.1,0,3.3,1.5,3.7,3.2c3.1,0,2.6-2.7-0.1-4.5C164,228.4,160.5,230.5,160.5,233.8z"
			/>
		<path class="st0" d="M253.4,228.7c0,3.5,2.7,6.6,5.9,7.1c3.9,0.7,7.6-3,7.6-5.1l-0.2-2.1c-3-1.4-2.4,1.1-2.6,1.8
			c-0.8,2.6-4.6,3.2-6.4,1c-2.5-3.1-0.3-6.4,1.9-6.4l2.3,0.2C265.3,220.1,253.4,221.3,253.4,228.7L253.4,228.7z"/>
		<path class="st0" d="M228.2,239.7c1.6,0,2.3-0.6,3.7-0.9c0.1,0.9,0.6,2.3,0.9,3.2c0.3,1,0.6,2.1,1,3.3c0.3,0.8,0.7,2.5,1.2,3
			c0.8,0.7,2.6,0,2.6-1c0-1.4-2.2-7.1-2.7-9.4c0.6-0.3,1.4-0.5,2-0.7c3.2-1,0.9-2.9,0.7-2.9c-0.9,0-9.1,2.6-9.8,3.1
			C226.8,238,227.1,239.7,228.2,239.7L228.2,239.7z"/>
		<path class="st0" d="M130.6,35.8c0.2,0.8,1.9,3.1,2.5,4.3c1-0.5,2-1.2,3-1.8c3.3-2,2.8-5.1-0.5-5.1
			C133.9,33.2,132.2,35.4,130.6,35.8L130.6,35.8z"/>
		<path class="st0" d="M295.7,53.4c1,1.5,3.3,3.9,5.7,3.9c1.1,0,1.6-1.2,1.6-2.5s-3.6-4.6-4.3-4.8C298.3,51.2,296.4,52.2,295.7,53.4
			z"/>
		<path class="st0" d="M163.7,20.2c0.1,1.5,1.3,3.8,1.4,5.3c0.8-0.1,2.6-0.7,3.4-1c3.7-1.5,2.1-5.2-0.4-5.2
			C166.3,19.3,165.3,20.1,163.7,20.2z"/>
		<path class="st0" d="M316.2,82.6c0.4,0.8,0.8,1.5,1.3,2.3c0.7,1.1,0.9,1.8,1.6,2.2c0.3-1.2,4.3-5,4.6-6.2L316.2,82.6z"/>
		<path class="st0" d="M111.6,253l6.9-3.4c-0.9-1.3-2.6-2.8-3.9-3.7c-0.5,1-1,2.3-1.5,3.5L111.6,253z"/>
		<path class="st0" d="M68.4,146.7c0.6,0.8,6,2.8,6.9,3l0.2-5C74,144.7,70.5,146.2,68.4,146.7z"/>
		<path class="st0" d="M212.2,282.7c0.4,1.9,2.6,5.6,2.7,6.9h0.5c0.1-1.1,0.6-2.6,0.9-3.6c0.2-0.8,0.9-2.8,0.9-3.7
			C216.8,282.5,212.9,282.7,212.2,282.7z"/>
		<path class="st0" d="M286.5,207.3c0,2.3,3.4,2.6,3.4-0.2c0-0.6-1.5-2.3-2.8-0.7C287.1,206.4,286.5,207.2,286.5,207.3L286.5,207.3z
			"/>
	</g>
	<path class="st0" d="M401.5,235.1c-0.6,4.1,1.7,7.9,4.3,12.1c3.4,5.4,15.3,1.9,20.3,1s8.7-1.3,13.8-2c22.4-3.1,79-6.4,103.2-7
		l45.7-1.1c25-0.5,69.4-0.1,94.1,1.3c4.8,0.3,10.6,0.7,15.9,0.7l48.8,3c6.2,0.7,10.7,0.8,16.6,1.7c5.7,0.8,12,2.1,17.5,2.1
		c5.2-0.1,12.3,1.3,16.3,2.5c3.7,1,16.5,2.4,24.8,4.3c18.1,4,35.2,7.5,52.5,15.2c5.4,2.4,13.1,6.2,17.4,9.8c2,1.7,3.2,3.2,5.9,3.8
		c2.7-7,15.2-16,2.1-32.8c-11.7-15-51.9-19.2-72.3-22c-16.6-2.3-33.6-3.6-50.4-5l-91.5-4.1c-17.2-1.4-89.1-0.6-107.9-0.1l-53,1.6
		c-31.4,1.7-72.1,3.6-102.3,8.1C418.2,228.9,402.3,229.6,401.5,235.1L401.5,235.1z"/>
	<path class="st0" d="M376.2,89.1c-1.6,11.4,8.4,20.7,19.1,22.1c3.2,0.4,17.6-6.6,22.4-8.6c10-4.2,41.3-13.7,48.9-3.4
		c3.8,5.1,5.2,17,4,25.9c-1.4,9.8-6.7,17.2-11.1,23.5c-2,2.9-5.3,6.6-7.8,9.1c-12,12-36.7,29.4-53.2,27.1
		c-15.3-2.1-12.7-10.6-14-14.2c-2.2-6.2-10.6-6.8-11.8,1.9c-2.3,16.2,11.2,33.1,30.6,35.8c16.1,2.3,45.3-10.4,56.2-18.5
		c25.2-18.8,41.9-36.2,44.2-70.2c0.6-8.7-2.4-17.9-7-23c-14.9-16.6-48.4-14-66.9-9.5c-11,2.7-37.1,14.6-35.9,6.3
		c0.9-6.1,10-15.7,13.7-19.3c1.4-1.4,2.7-2.6,4.1-3.9c15-13,38.5-30.1,59-27.2c5.1,0.7,9.4,2.8,13,4.9c2.4,1.4,9,6.3,10.9,6.5
		c11.1,1.6,1.4-38.8-20.4-41.8c-7.5-1-13,0-19.7,1.9c-15.2,4.4-28.3,13.4-40.6,22.7C402,46.4,379,69.5,376.2,89.1L376.2,89.1z"/>
	<path class="st0" d="M664,140.1l-7.2-1c1.3-9.5,4.2-21.5,9.5-27.3c7.8-8.5,14.5-5.1,12,12.8C677.2,131.9,670.8,141.1,664,140.1
		L664,140.1z M727.6,146.3l1.8-17.9c3.3-23.9,23.8-40.8,19.3-8.1c-1.4,10.3-5.7,17.2-13,22.5C732.9,145,730.8,145.2,727.6,146.3z
		 M667.8,180.3c-12-1.7-12.1-27.9-11.6-37.2c10.6,2.4,18.2,5.3,27.5-3.4c12.3-11.6,10.8-45.6-5.5-47.9c-8.2-1.2-14.7-1.9-22.8,1.1
		c-12.5,4.6-22.4,29.2-24.3,42.7c-2,14.2-2.5,26.6,3.7,39.1c5.1,10.2,12.2,16.2,25.3,18c15.4,2.2,26.1-9.5,33.7-20.1
		c1.5-2,6.5-9.9,7.1-12.5l1.3,0.2c-0.6,10.7,10.5,34.4,27.8,36.8c18.4,2.6,27.1-9,36-21.8c5.6-8,11.1-20.5,15-30.1
		c0.7-1.9,1.4-3.9,2.1-5.8c0.9-2.2,1.8-3.5,1.4-5.2c-2.7-1.7-5.2,0.8-6.4,3.2l-4,8.7c-5,10-20.1,40.9-34.2,39
		c-9.7-1.4-12.7-28-12-33.9c8.4-2.7,20.3-3,29.5-15.6c11.1-15.2,6.1-41.9-7.1-43.8c-27.9-3.9-44,23.8-48.3,47.7
		c-0.7,3.9,0.6,5.6-0.9,9.7c-2.7,7.2-12.5,21.3-18.3,25.8C679.2,177.3,673.2,181,667.8,180.3L667.8,180.3z"/>
	<path class="st0" d="M595.6,95.6V128c0,6.6-3.4,27.2-5.7,34.1c-1.9,5.6-6,14.5-9.9,16.6c-0.2-1.8-2.1-9.2-2.9-16.7
		c-0.8-7.7-0.1-19.7-0.4-28.6c-0.1-2.9,0.6-7-0.6-9.5c-2.9-5.6-24.1-13.8-25.7-2.4c-2.1,15.3,2.6,18.5-3.4,33.8
		c-2,5.1-3.6,9.9-5.7,15.1c-1.6,3.9-5.3,11.8-5.9,15.6l-1.3-0.2c-0.7-7.9-2.4-7.2-2.9-22.6c-0.1-4.1,0.2-8.1,0.3-12.6
		c0.1-3.8,1.1-9.6,1.1-13.8c-0.2-18.1,14-36.6-14.2-40.6c-1.8-0.3-3.2-0.3-4.2-0.1c-3.1,0.3-4.3,1.6-3.9,4.4
		c0.5,3.7,1.4,0.1,1.2,10.4l-1.9,30.9c-0.2,15.3-2.7,28.1,4.3,40.9c2.4,4.3,3.8,5.9,7.4,9.2c6.5,6,16.8,8.6,17.2,5.9
		c1.1-7.6-4.9,3,4-18.9l7.9-18.4c-2.8,19.8,10.8,33.1,27.3,36c1.3,0.2,3.1,0.2,4.1,0c3.7-0.6,3-2.1,3-2.1l0.2-1.7
		c-0.2-2.1-2.3-6.4-3-8.4c12.9,1.8,17.8,2.9,26.5-8.7c12.8-17,13.1-43.7,12.6-64.4c-0.1-2.6-0.5-22.3-5.4-23
		C611.5,87.8,596.4,90.5,595.6,95.6L595.6,95.6z"/>
	<path class="st0" d="M803.4,27.3L800,51.7c-0.6,2.9-1.1,3.1-1.6,6.5c-0.9,6.4,0.5,9.2-5.9,8.6c-4.2-0.4-8.9-0.4-12.8-0.6
		c-15.1-0.5-31.7-2.8-46.9-5.1c-2.8-0.4-5.1-1.4-5.5,1.3c-0.4,2.5,5.2,5.4,7.3,6.9c22.6,15.5,35.8,13.9,58.8,15.2
		c-3.8,27.4-8.2,53.4-6.6,76.8c1.1,16.1,9.6,49.9,26.1,52.2c5.3,0.7,8,1.6,4.5-7c-1.4-3.5-2-5.4-3-9c-10.3-36.2,0-77.1,5.2-114.1
		c2.2-0.7,7.9-1,10.8-1.3c18-1.9,53-6.1,69.5-11.8c2.5-0.9,2.9-0.8,3.4-4c-10.4-1.5-30.3-0.1-41.7,0.2l-29,0.6c-3.1,0-7.2,0.3-10,0
		c0.9-6.7,5.9-26.1,2.8-33.4C820.1,21,804.8,17.4,803.4,27.3L803.4,27.3z"/>
	<path class="st0" d="M829.2,102.1c2.6,5.3,14.8,7.4,22.3,8.5c10.4,1.5,21.4,0.3,30.3-0.5c-3.8,5.2-10.9,18.4-14.4,24.7
		c-5.1,9-12.5,22.6-19.5,29.6c-3.5,3.5-5.7,6.1-10.7,7.7c-3,0.9-5.3-0.1-7.2,2.3c-4.1,5.2,4.2,22.5,11.9,23.5
		c6.4,0.9,9.1-3.8,18.9-6.2c37.7-9.4,45.1,12.5,50.7,13.2c5.8,0.8,4.9-15.7,3.4-19c-5.5-12.1-41-7.7-48.3-5.4l10.3-17.6
		c5-8.8,19.8-42.5,30.2-45.9c2.9-1,5.1,0.3,5.4-3.2c0.5-6.1-8.4-17.3-12.1-20.7c-1.8,0.2-2.3,0.3-3.9,1.1c-2.2,1.1-0.8,0.7-3.6,1.5
		c-12,3.6-31.7,8-44.1,6.3C841,101.1,832.4,98.5,829.2,102.1L829.2,102.1z"/>
</g>
</svg>
