<?xml version="1.0" encoding="utf-8"?>
<!-- Generator: Adobe Illustrator 25.2.3, SVG Export Plug-In . SVG Version: 6.00 Build 0)  -->
<svg version="1.1" id="Warstwa_1" xmlns="http://www.w3.org/2000/svg" xmlns:xlink="http://www.w3.org/1999/xlink" x="0px" y="0px"
	 viewBox="0 0 978.4 305" style="enable-background:new 0 0 978.4 305;" xml:space="preserve">
<style type="text/css">
	.st0{fill-rule:evenodd;clip-rule:evenodd;fill:#2B2A29;}
</style>
<g id="Layer_x0020_1">
	<g id="_2913010634624">
		<path class="st0" d="M228.1,293.3c-2,0-2.3-1.5-3.1-3c-0.7-1.4-1.4-2.6-2-4c-0.6-1.3-3.8-7.6-3.8-8.3c0-2.6,3.1-2.9,4.3,2.3
			c2.7,0,4.4-0.2,7.1-0.2c1.2-2.5,0.6-4.6,3-4.6c2.5,0,0.2,5.1-0.1,6.1l-2.8,8.6C230.2,291.6,229.8,293.3,228.1,293.3z M209.3,284.2
			c0.6-0.2,2.2-1.5,2.7-2.1c0.6-0.6,0.4,0.1,0.6-1.2c0.5-2.4-0.6-4.7,2.1-4.7c1.9,0,1.3,3.2,1.2,3.7l-0.8,12.2
			c-0.4,2-2.7,1.8-3.2,0.4l0.1-4.6c0.1-0.8,0.2-1.2,0.2-2.3c-1.2,0.6-1.7,1.5-3.2,2.7c-1.2,0.9-4.5,4.6-5.7,4.6
			c-1.9,0-2.1-1.9-0.7-3c0.8-0.6,3.7-3.2,4.4-3.4c-0.7-3-6.6-9-4.8-10.7c2-1.8,3.5,1.6,4.2,3C207.2,280.1,209.1,283.2,209.3,284.2
			L209.3,284.2z M249.8,272.3c1.7,0,1.7,1.6,2.1,3c0.6,2.6,2.5,10.9,2.5,13c0,1.1-1.1,1.1-1.8,1.1c-1.6,0-2.3-5.6-2.3-6.4
			c-1,0-2.7,0.5-3.7,0.7c-1.2,0.2-2.5,0.7-3.9,0.7c0.1,3.4,2.9,7.3-0.9,7.3c-1.5,0-2.1-5.1-2.5-7.3c-0.7-3.2-3-9.8-0.2-9.8
			c1.7,0,1.8,1.4,2.1,2.9c0.2,1.2,0.8,3.2,0.9,4.4c0.6,0,7.2-1.4,7.5-1.6c-0.2-0.9-1.5-5.9-1.3-6.7
			C248.5,272.9,249.1,272.3,249.8,272.3L249.8,272.3z M185.8,274.1c0-2.5,3.7-0.9,7.1-0.2c1.8,0.4,5.5,0.8,5.5,2
			c0,2.2-2.5,14.3-3.3,15c-1,0.9-5-0.4-7.1-0.8c-1.3-0.3-2.5-0.4-3.8-0.8c-2-0.5-0.9-2.5-0.3-2.5c2.4,0,6.5,1.4,8.7,1.6
			c0.1-1.3,0.6-3.1,0.9-4.3l-6.9-1.3c-2.5-0.6-1.5-2.6,0-2.5c0.7,0.1,5.7,1.4,7.4,1.6c0.1-1.5,0.9-3.2,0.9-4.8
			c-0.7-0.4-3.9-0.9-4.9-1.1C188.6,275.7,185.8,275.4,185.8,274.1L185.8,274.1z M179.8,281.9c0,2.1-2.1,4.3-3.9,4.3h-1.4
			c-6.8,0-8.8-7.3-5.5-7.3c2.6,0,0,5,5.3,5c2.7,0,3.1-2.4,0.7-3.9c-0.8-0.5-1.6-1-2.3-1.6c-1.7-1.2-3.4-2.5-3.4-4.8
			c0-2.8,2.5-5,5.3-5c8,0,9.7,8.5,6.4,8.5c-2.6,0,0.2-5.9-5.7-5.9c-1.8,0-4.8,2.2-0.4,5.2c1.1,0.7,2.2,1.4,3.1,2.2
			c0.5,0.4,0.8,0.8,1.2,1.4C179.4,280.3,179.8,281.3,179.8,281.9L179.8,281.9z M258.7,273.7c0,1.1,0,2.5,2.7,2.5
			c2.4,0,9.4-1.9,9.4,4.1c0,1.9-1.2,3-2.3,3.8c-4.2,3-9.3,1.5-9.3-1.3c0-0.5,0.9-1.4,1.1-1.4c2,0,1.1,1.8,4.3,1.8
			c3.5,0,6.1-5.3-1.3-4.3c-3.6,0.5-7.8,0.1-7.8-4.6c0-3.1,3.1-4.9,5.5-5.7c5.7-1.8,9.1,3.5,6.2,4.4c-1.1,0.3-1.7-1-2.6-1.7
			C262.1,269.5,258.7,271.9,258.7,273.7L258.7,273.7z M202.3,269.3c-1.7,0-2.6-0.5-4.1-0.5L202.3,269.3z M196.8,268.4h1.1v0.2
			c-0.2,0-0.5,0-0.7,0C196.8,268.5,197,268.6,196.8,268.4L196.8,268.4z M196.8,268.4c-0.2,0-0.5,0-0.7,0c-0.4-0.1-0.2-0.1-0.5-0.2
			c0.2,0,0.5,0,0.7,0C196.7,268.3,196.5,268.3,196.8,268.4z M195.6,268.2c-0.2,0-0.5,0-0.7,0c-0.4-0.1-0.2-0.1-0.5-0.2
			c0.2,0,0.5,0,0.7,0C195.6,268.1,195.4,268,195.6,268.2L195.6,268.2z M194.5,268c-0.2,0-0.5,0-0.7,0c-0.4-0.1-0.2-0.1-0.5-0.2
			c0.2,0,0.5,0,0.7,0C194.4,267.8,194.2,267.8,194.5,268z M193.3,267.7c-0.1,0-0.4,0-0.4,0c-0.4-0.1-0.2-0.1-0.5-0.2
			c0.1,0,0.4,0,0.4,0C193.3,267.6,193.1,267.6,193.3,267.7z M192.4,267.5h-0.9c0.4-0.3-0.5-0.3,0.5-0.2
			C192.5,267.3,192.2,267.3,192.4,267.5z M190.4,267h0.9c-0.4,0.3,0.5,0.3-0.5,0.2C190.3,267.2,190.6,267.2,190.4,267z M190.4,267
			c-1.2,0-0.4,0-0.7-0.2C190.9,266.8,190,266.8,190.4,267z M188.8,266.6c0.2-0.2,1.2,0.3,0.4,0.1c0,0-0.1,0-0.1,0
			C189,266.7,188.4,267,188.8,266.6L188.8,266.6z M187.9,266.3c0.2-0.2,1.2,0.3,0.4,0.1c0,0-0.1,0-0.1,0
			C188.1,266.4,187.5,266.7,187.9,266.3z M186.9,266.1c1.2,0,0.4,0,0.7,0.2C186.4,266.3,187.3,266.3,186.9,266.1z M186.9,266.1
			c-1.2,0-0.4,0-0.7-0.2C187.5,265.9,186.6,265.9,186.9,266.1z M185.3,265.7c1.2,0,0.4,0,0.7,0.2
			C184.8,265.9,185.7,265.9,185.3,265.7z M185.3,265.7c-1.1,0-0.4,0-0.7-0.2C185.7,265.4,185.1,265.4,185.3,265.7z M184.6,265.4
			c-1.2,0-0.4,0-0.7-0.2C185.2,265.2,184.3,265.2,184.6,265.4z M183,265c1.2,0,0.4,0,0.7,0.2C182.5,265.2,183.4,265.2,183,265z
			 M183,265c-1.1,0-0.4,0-0.7-0.2C183.4,264.7,182.8,264.7,183,265z M182.4,264.7c-1.1,0-0.4,0-0.7-0.2
			C182.8,264.5,182.1,264.5,182.4,264.7z M181.7,264.5c-1.1,0-0.4,0-0.7-0.2C182.1,264.3,181.4,264.3,181.7,264.5z M181,264.3
			c-1.1,0-0.4,0-0.7-0.2C181.4,264.1,180.7,264.1,181,264.3z M180.3,264.1l-0.5-0.1L180.3,264.1z M179.2,263.6
			c0.2-0.2,0.9,0.4,0.3,0.1C179.4,263.7,178.8,264,179.2,263.6z M178.5,263.4c0.2-0.2,0.9,0.4,0.3,0.1
			C178.7,263.5,178.1,263.8,178.5,263.4z M177.8,263.1l0.5,0.1L177.8,263.1z M177.8,263.1l-0.5-0.1L177.8,263.1z M176.6,262.7
			c0.2-0.2,0.9,0.4,0.3,0.1C176.9,262.8,176.3,263.1,176.6,262.7z M176,262.5l0.5,0.1L176,262.5z M176,262.5l-0.5-0.1L176,262.5z
			 M174.8,262l0.5,0.1L174.8,262z M174.8,262l-0.5-0.1L174.8,262z M173.7,261.5l0.5,0.1L173.7,261.5z M173.7,261.5l-0.5-0.1
			L173.7,261.5z M280.7,259.7c1.7,0,1.9,0.8,3.3,3.6c0.4,0.8,0.7,1.4,1.1,2.1c0.4,0.8,0.8,1.3,1.1,2.1c0.5,0.9,3.1,5.7,3.1,6.4
			c0,0.8-0.6,1.6-1.5,1.6c-1.6,0-1.9-1.6-2.5-2.7c-0.6-1.1-1.5-2.3-1.8-3.7l-2.2,6.1c-0.8,2.6-0.9,5.1-2.9,5.1
			c-0.7,0-1.3-0.9-1.3-1.4c0-0.5,0.4-1.9,0.6-2.3c0.4-1.1,1.3-3.1,1.4-4.3c-0.8-0.4-1.6-0.7-2.4-1.2c-0.9-0.5-1.5-0.9-2.5-1.4
			c-1.2-0.6-2.6-1.2-3.7-2c-2.1-1.6-0.2-2.9,0.9-2.9c1.3,0,7.4,4.2,8.9,4.6c1.1-4.7,2-2.1-0.3-6.8
			C278.9,260.5,280,259.7,280.7,259.7L280.7,259.7z M172.5,261.1l0.5,0.1L172.5,261.1z M172.5,261.1l-0.5-0.2L172.5,261.1z
			 M172.1,260.9l-0.5-0.1L172.1,260.9z M171.2,260.4L171.2,260.4C171.2,260.5,171.1,260.4,171.2,260.4z M170.5,260.2l0.5,0.1
			L170.5,260.2z M170.5,260.2l-0.5-0.2L170.5,260.2z M170,259.9l-0.5-0.1L170,259.9z M169.1,259.5L169.1,259.5
			C169.2,259.6,169.1,259.5,169.1,259.5z M168.6,259.3C168.7,259.2,168.7,259.3,168.6,259.3L168.6,259.3z M168.2,259L168.2,259
			C168.2,259.1,168.2,259.1,168.2,259z M167.5,258.8l0.5,0.1L167.5,258.8z M167.5,258.8l-0.5-0.2L167.5,258.8z M167,258.6l-0.5-0.2
			L167,258.6z M166.6,258.3l-0.5-0.2L166.6,258.3z M166.1,258.1l-0.5-0.2L166.1,258.1z M165.7,257.9l-0.5-0.2L165.7,257.9z
			 M165.2,257.7l-0.5-0.2L165.2,257.7z M164.8,257.4l-0.5-0.2L164.8,257.4z M164.3,257.2L164.3,257.2z M163.6,256.7L163.6,256.7
			C163.7,256.8,163.6,256.8,163.6,256.7z M163.2,256.5C163.2,256.5,163.2,256.6,163.2,256.5L163.2,256.5z M162.7,256.3L162.7,256.3
			C162.8,256.4,162.7,256.3,162.7,256.3z M162.2,256.1L162.2,256.1z M162.2,256.1l-0.5-0.2L162.2,256.1z M161.8,255.8l-0.5-0.2
			L161.8,255.8z M161.3,255.6L161.3,255.6z M160.6,255.1C160.7,255.1,160.7,255.2,160.6,255.1L160.6,255.1z M285.7,259.5
			c0,0-2.9-0.6,0.6-3.1c1.3-0.9,6.2-4.7,7.5-4.7c0.8,0,2,2,2.6,2.9c0.8,1.2,1.5,2.2,2.3,3.4c0.8,1.1,1.5,2.1,2.3,3.2
			c0.4,0.6,2.2,2.9,2.2,3.6c0,0.1-0.9,4-4.1-0.7c-0.7-1.1-1.3-1.9-2.1-3l-4.2-5.9C291,255.6,287.3,259.5,285.7,259.5L285.7,259.5z
			 M160.2,254.9L160.2,254.9z M160.2,254.9l-0.5-0.2L160.2,254.9z M159.7,254.7L159.7,254.7z M159,254.2L159,254.2z M142.3,251.7
			c2.2,0,4.3,1.2,5.4,2.3c6.5,6.1-0.7,15-6.3,15c-8.1,0-9.6-10.3-6.4-10.3c2.3,0,1.4,1.8,1.4,3.2c0,2.3,2.1,4.3,4.3,4.3
			c4.4,0,9.9-8.5,4-11.4c-1.9-0.9-3-0.5-4.6,0.5c-1,0.6-2.1,0.8-2.5-0.5C137.2,253.3,140.3,251.7,142.3,251.7L142.3,251.7z
			 M159,254.2l-0.5-0.2L159,254.2z M158.6,254L158.6,254z M157.9,253.5L157.9,253.5z M157.9,253.5l-0.5-0.2L157.9,253.5z
			 M157.4,253.3L157.4,253.3z M156.8,252.9L156.8,252.9z M156.8,252.9L156.8,252.9z M156.1,252.4L156.1,252.4
			C156.1,252.5,156,252.4,156.1,252.4z M155.6,252.2L155.6,252.2z M155.6,252.2L155.6,252.2z M154.9,251.7L154.9,251.7z
			 M154.9,251.7L154.9,251.7z M154.2,251.3L154.2,251.3z M154.2,251.3L154.2,251.3z M153.6,250.8L153.6,250.8z M153.6,250.8
			L153.6,250.8z M152.9,250.3L152.9,250.3z M152.9,250.3L152.9,250.3z M152.2,249.9L152.2,249.9z M152.2,249.9L152.2,249.9z
			 M151.5,249.4L151.5,249.4z M151.5,249.4L151.5,249.4z M150.8,249L150.8,249z M297.6,248.3c0-1,1-1.6,1.6-1.6
			c0.9,0,2.7,2.5,3.6,3.5l2.1,2.5c0.7,0.8,5.1,5.7,5.1,6.6c0,0.8-0.8,1.6-1.6,1.6c-1.1,0-2.3-2-3-2.7l-6.7-8
			C298.1,249.6,297.6,249.3,297.6,248.3z M150.8,249L150.8,249z M149.9,248.3L149.9,248.3z M149.9,248.3L149.9,248.3z M149.2,247.8
			L149.2,247.8z M149.2,247.8l-0.2-0.2L149.2,247.8z M149,247.6L149,247.6z M148.3,247.1L148.3,247.1z M148.3,247.1l-0.2-0.2
			L148.3,247.1z M148.1,246.9L148.1,246.9z M147.4,246.5L147.4,246.5z M147.4,246.5l-0.2-0.2L147.4,246.5z M147.1,246.2L147.1,246.2
			z M146.5,245.8L146.5,245.8z M146.5,245.8l-0.2-0.2L146.5,245.8z M146.2,245.5L146.2,245.5z M145.3,244.9L145.3,244.9z
			 M145.3,244.9l-0.2-0.2L145.3,244.9z M145.1,244.6L145.1,244.6z M144.2,243.9L144.2,243.9z M144.2,243.9l-0.2-0.2L144.2,243.9z
			 M143.9,243.7l-0.2-0.2L143.9,243.7z M143.7,243.5L143.7,243.5z M142.8,242.8L142.8,242.8z M142.8,242.8l-0.2-0.2L142.8,242.8z
			 M142.6,242.6l-0.2-0.2L142.6,242.6z M142.3,242.3L142.3,242.3z M141.2,241.4L141.2,241.4z M141.2,241.4l-0.2-0.2L141.2,241.4z
			 M141,241.2l-0.2-0.2L141,241.2z M140.7,241l-0.2-0.2L140.7,241z M140.5,240.7L140.5,240.7z M128.4,243.5c0.5,0.8,1.6,1.8,2.3,2.5
			l2.7,2.3c0.8-0.2,5.5-3.2,5.5-0.2c0,1.5-1.8,1.9-3.9,3l-9.6,4.5c-0.9,0.4-1.6,0.8-2.5,0.5c-3-1-1-4.6-0.3-6.4l3.2-8.3
			c0.4-1.1,1-3.4,2.4-3.4c0.5,0,1.6,0.8,1.6,1.1C129.8,240.8,128.7,242.1,128.4,243.5L128.4,243.5z M139.1,239.6L139.1,239.6z
			 M139.1,239.6l-0.2-0.2L139.1,239.6z M138.9,239.4l-0.2-0.2L138.9,239.4z M138.7,239.1l-0.2-0.2L138.7,239.1z M138.5,238.9
			l-0.2-0.2L138.5,238.9z M138.2,238.7l-0.2-0.2L138.2,238.7z M138,238.5l-0.2-0.2L138,238.5z M137.8,238.2L137.8,238.2z
			 M312.2,234.3c0-1.2,0.4-1.6,1.6-1.6c0.7,0,6.8,6,7.6,6.8c3.3,3.3,5.1,3.9,3.1,6c-1.9,2-1.6,2.5-7.2-0.9c-0.9-0.5-1.6-0.8-2.5-1.4
			c-0.7-0.4-2-1.3-2.8-1.3l5.3,8.7c0.4,0.7,0.8,1.1,0.4,2c-0.4,0.8-2.1,2.6-3.1,2.5c-0.9-0.1-4.2-3.8-6-5.2c-1.4-1.2-3-3.2-4.3-4.2
			c-1.9-1.5-1.6-3.3,0.3-3.3c1.1,0,8.6,8.4,9.8,8.7c-1.1-1.6-7.1-11.2-7.1-11.7c0-1.4,1.4-2.1,1.6-2.1c1.9,0,10.4,6,12.3,6.4
			c-1.2-1.8-3.1-3-4.6-4.5C316,238.5,312.2,235,312.2,234.3L312.2,234.3z M132.7,233.2L132.7,233.2z M132.7,233.2l-0.2-0.2
			L132.7,233.2z M132.5,233l-0.2-0.2L132.5,233z M132.3,232.7L132.3,232.7z M130.2,230.4L130.2,230.4z M130.2,230.4l-0.2-0.2
			L130.2,230.4z M130,230.2L130,230.2z M128.6,228.6L128.6,228.6C128.7,228.7,128.6,228.6,128.6,228.6z M115.8,235.9
			c6.2,0,1.8,2,6.9-1.8c2.4-1.8,4.1,0.9,1.9,2.6c-1.7,1.3-10.7,9-11.8,9c-0.9,0-1.6-1.1-1.5-1.8c0.1-0.9,1-1.4,1.7-2l4-3.3
			c-2-0.2-4.7-0.4-6.7-0.7c-2.3-0.2-5.5,0.3-5.5-2.1c0-2.5,5.6-0.5,8-0.5l2.4-8.6c1.3-4,3.5-1.5,3.5-0.1L115.8,235.9L115.8,235.9z
			 M324.4,221.1c-1.4,0-1.5-1.2-1.1-2l2.6-4.5c3.4-6.2,2.4-6,9.8-1.7l6.6,3.9c1.4,1.2,0.1,2.6-1,4.5c-0.6,1.1-3.4,6.6-4.4,6.6
			c-0.9,0-0.7-0.2-1.4-0.7c0.1-1.2,1.3-3,2-4.2c0.4-0.7,0.8-1.4,1.2-2c0.4-0.7,0.9-1.3,0.9-2.3c-1.4-0.3-2.7-1.7-3.9-1.8
			c-0.2,0.8-1.5,2.9-2,3.7c-0.5,0.8-1.6,3.4-2.6,3.4c-0.6,0-1.1-0.5-1.1-1.4c0-0.6,3.7-6.2,3.9-7.1c-1-0.5-3.5-2.2-4.6-2.3
			C328.9,214.2,325.5,221.1,324.4,221.1L324.4,221.1z M106.9,211.9c0-1.1,1.5-1.7,2.5-0.2l5.3,9.1c0,1.3-1.3,1.8-2.8,2.7
			c-1.4,0.9-9.6,6-10.5,6c-1.5,0-2.2-2.2-3.6-4.4c-2.4-3.8-3.3-4.3-2.8-6.4c1.9-0.5,1.5-0.4,3.8,3.3c0.8,1.4,1.7,2.7,2.4,4
			c0.7-0.2,3.3-1.8,3.7-2.3c-0.2-0.8-1.4-2.7-2-3.5c-0.4-0.6-1.9-3-1.9-3.6c0-0.4,1.1-2.5,2.6,0.1c0.7,1.1,3,5.2,3.6,5.6
			c1.3-0.3,3-2,4.3-2.3c-0.7-1.4-1.5-2.7-2.4-4C108.6,215.4,106.9,212.8,106.9,211.9L106.9,211.9z M98,202.8c0,2.8,0.7,4.1,0.7,6.2
			c0,5.2-6.9,6.9-9.6,0c-1.3-3.5-0.1-6.8,2-6.8c1.3,0,1.2,0.6,1.6,1.4c-0.6,1.1-2,2.3-1.8,3.8c0.5,3.8,5.2,5.1,4.5,0.1
			c-0.4-2.7-1.3-6,0.6-8.1c2.1-2.2,5.5-2.1,8,1c3.4,4.3,1.8,10-1.5,10c-0.5,0-1.1-0.6-1.1-1.1c0-1.8,2.1-1.8,2.1-4.3
			C103.5,200.5,98,199.5,98,202.8L98,202.8z M331.9,207.4c-2.6,0,0.4-5.2,1.4-7.7c2.2-5.4,1-5.5,11-1c6.4,2.8,7.1,1.8,5.1,6.2
			l-2.3,5.5c-0.6,1.3-0.7,2.4-2,2.4c-2.2,0-0.1-3.6,0.2-4.4c0.5-1.2,1.8-3.9,1.9-5c-0.8-0.2-3.1-1.2-3.9-1.6
			c-1.2,2.2-2.4,6.6-3.7,7.8c-3-0.2-1-2.7,0.6-6.7c0.3-0.8,0.6-1.2,0.8-2c-0.8-0.4-4-1.8-4.8-1.8c-0.2,0.7-0.6,1.6-0.9,2.3
			C334.4,203.3,333.4,207.4,331.9,207.4L331.9,207.4z M338.5,182.9c0-3.1,4.7-1.1,8.3,0l7,2c2.8,0.9,0.9,3.9-0.7,9.7
			c-0.9,3.3-2.7,1.6-2.7,0.5c0-1,0.7-2.7,0.9-3.7c0.3-1.1,0.8-2.6,0.9-3.7c-1.7,0-2.7-0.9-4.3-0.9c-0.1,1-0.7,2.5-1,3.6
			c-0.4,1.5-0.3,2.2-1.6,3c-2.2-0.5-1.3-1.6-0.6-4.3c0.3-1,0.6-2.1,0.9-3.2c-1.2,0-2.8-0.7-4-1C340.4,184.6,338.5,184.2,338.5,182.9
			L338.5,182.9z M102.6,173.3L102.6,173.3C102.6,173.3,102.5,173.3,102.6,173.3z M101.9,168.9L101.9,168.9
			C101.9,169,101.9,169,101.9,168.9z M341.3,168.3c0-2.2,2.7-1.5,3.6-1.3c1.5,0.2,3.1,0.5,4.7,0.7c2.6,0.4,8.6,0.8,8.6,2.4
			c0,2.1-0.4,3.8-0.7,5.7c-0.4,2.5-0.1,4.6-2,4.6c-2.2,0,0-5.1,0-8.5c-1.1-0.1-2.3-0.5-3.6-0.6c-0.9-0.1-0.8-0.1-1,0.8
			c-0.2,1.2-0.5,4.4-0.9,5.3c-0.7,1.6-2.3,0.3-2.3,0c0-2.2,0.9-4.6,0.9-6.6c-1.2,0-2.9-0.4-4.2-0.6
			C342.8,169.9,341.3,170,341.3,168.3L341.3,168.3z M101.6,167.3L101.6,167.3C101.7,167.4,101.6,167.4,101.6,167.3z M101.4,165.5
			c-0.1-0.4,0.3-0.8,0.1-0.1C101.6,165.4,101.6,166.3,101.4,165.5z M101.2,163.2c-0.1-0.4,0.3-0.8,0.1-0.1
			C101.3,163.1,101.3,164,101.2,163.2z M101,159.8c0.3,0.4,0.3-0.5,0.2,0.5c0,0.5,0,0.2-0.2,0.5V159.8z M77.2,160
			c0-0.6,0-0.8,0.3-1.3c0.8-1.1,3.4-0.3,5.4-0.1l9.1,1.2c3.7,0.5,4.3,3.1,0.7,4.5l-6.5,2.6c-1.1,0.5-2.3,1-3.5,1.3
			c0.5,0.7,1,0.5,3.3,0.8c1.4,0.2,2.4,0.4,3.8,0.6c1.2,0.2,2.5,0.3,3.8,0.6c2.4,0.4,2.6,1,2.6,2.4c0,1.6-1.8,1.9-3.1,2.4l-8.2,3
			c-1,0.4-3.2,1.4-4.3,1.4c-0.6,0-1.4-1-1.4-1.6c0-1.6,6.1-3.2,8.4-4c1-0.3,2.3-1,3.3-1.1c-0.5-0.7-1.2-0.5-3.5-0.8
			c-1.4-0.2-2.5-0.3-3.8-0.6c-1.9-0.3-5.8-0.1-5.3-3.1c0.3-1.6,3.2-2.4,5.4-3.3l6.1-2.5c-1.9-0.4-4.6-0.5-6.8-0.8
			C80.8,161.5,77.2,161.6,77.2,160L77.2,160z M351.8,163.7c-2.7,0-5.1-0.1-7.3-2.1c-3.7-3.5-4.2-14.4,6.8-14.4
			c6.9,0,9.8,6.1,7.8,11.5c-0.6,1.6-1.3,2.6-2.6,3.5C355.2,163.2,353.6,163.7,351.8,163.7L351.8,163.7z M218.5,39.7
			c14.9,0,33,3.6,46.1,9.9c0.9,0.4,1.6,0.7,2.4,1.1c3.9,2,7.7,3.9,11.3,6.3c1.5,1,2.8,1.7,4.3,2.8c8.5,5.9,11.6,9.3,18.7,16.3
			l4.9,5.6c0.6,0.7,1,1.2,1.5,1.9c5.1,6.9,6.7,9.4,11,17.1c2.7,4.9,6.4,14.5,8,20.1c2.5,8.8,3.6,14.6,4.3,23.9
			c0.2,2,0.1,4.7,0.2,6.9c0.3,3.8-0.1,9-0.5,13c-1.4,13.1-5.3,26.6-11,37.9l-2.4,4.6c-3,5.9-7.3,11.6-11.3,16.8l-6.7,7.5
			c-10.9,10.9-22.6,19.2-37.5,25.4c-1.7,0.7-3.3,1.4-5.1,2l-5.3,1.8c-8,2.7-21.1,4.8-30.4,4.8c-11.8,0-18.7-0.5-29.7-3.2
			c-8.6-2.2-17.8-5.6-25.4-9.6c-4.1-2.2-9.6-5.5-13.1-8.2l-6.8-5.3c-0.4-0.4-0.6-0.4-1-0.8c-1.9-1.7-7.5-6.7-9-8.6
			c-0.6-0.7-1.1-1.1-1.7-1.8l-3.2-3.9c-0.6-0.7-1-1.1-1.5-1.9c-0.6-0.7-1-1.2-1.5-1.9l-5.6-8.3c-0.9-1.5-1.9-2.9-2.6-4.5
			c-1.8-3.5-3-5.6-4.7-9.5c-4.5-10-8.6-25.3-9.1-36.4l-0.2-6.9c0-3.3-0.1-6.4,0.2-9.8c0.2-2.4,0.2-4.2,0.6-6.5
			c1.4-10.3,4.7-23.4,9.4-32.7c1.9-3.7,2.5-5.3,4.7-9.2c2.8-4.9,5.2-8.2,8.4-12.6c1-1.3,2-2.7,3.2-3.9c11.9-13.7,23.5-22.5,40-30.2
			C184.3,44.1,200.9,39.7,218.5,39.7L218.5,39.7z M101,144.5h0.2v1.1H101V144.5z M101.2,141.7c0.3,0.4,0.3-0.5,0.2,0.5
			c0,0.5,0,0.2-0.2,0.5V141.7z M90.7,143.8c0,2.7-0.2,4.4-0.2,7.1c0.7,0.2,1.7,0.6,2.3,0.9c1.8,0.9,1.8,0.6,1.8,2.1
			c0,0.7-1,1.4-1.7,1.3l-11.6-5.1c-1.8-0.8-3.8-1.2-3.8-3.3c0-1.7,1.8-2.3,3.2-2.8c2.5-0.8,12.2-4.5,13.3-4.5c0.4,0,2.3,1.7,0.6,2.9
			C93.6,143,91.7,143.3,90.7,143.8z M101.4,139.9c-0.1-0.4,0.3-0.8,0.1-0.1C101.6,139.8,101.6,140.7,101.4,139.9z M101.6,137.8
			c0-0.6,0.4,0,0.1,0C101.8,137.8,101.6,138.5,101.6,137.8z M101.9,136.2c-0.1-0.4,0.3-0.8,0.1-0.1C102,136.1,102,137,101.9,136.2z
			 M102.1,134.6c0-0.6,0.4,0,0.1,0C102.2,134.6,102.1,135.3,102.1,134.6z M102.3,133c0-0.6,0.4,0,0.1,0
			C102.5,133,102.3,133.7,102.3,133z M102.6,131.9c-0.1-0.4,0.3-0.8,0.1-0.1C102.7,131.8,102.7,132.7,102.6,131.9z M343.8,136.7
			c0,5.2,5.3,3.7,5.3,5.9c0,2.6-7.8,2.1-7.8-6.6c0-4.4,4.5-7.3,8-7.3h2.1c3.6,0,6.4,2.8,7.2,5.9c0.5,2,0.3,3.8-0.5,5.4
			c-1.9,3.9-5.1,4-5.1,1.5c0-1.4,3.2-1.3,3.2-5.3c0-3-3-4.7-6.3-4.2c-2,0.3-2.6,0.3-4.1,1.2C344.7,133.8,343.8,135.2,343.8,136.7
			L343.8,136.7z M102.8,130.5c0-0.6,0.4,0,0.1,0C102.9,130.5,102.8,131.2,102.8,130.5z M103,129.4c0-0.6,0.4,0,0.1,0
			C103.2,129.4,103,130,103,129.4z M103.2,128.2c0-0.6,0.4,0,0.1,0C103.4,128.2,103.2,128.9,103.2,128.2z M103.5,127.1
			c0-0.6,0.4,0,0.1,0C103.6,127.1,103.5,127.7,103.5,127.1z M103.7,126.2c0-0.6,0.4,0,0.1,0C103.8,126.2,103.7,126.8,103.7,126.2z
			 M103.9,125L103.9,125C104,125.1,103.9,125.1,103.9,125z M81.8,131.2c5.3,1.2,4.4,0.8,4.7-1c0.4-2.2,0.4-5.2,1.9-5.2
			c2.3,0,0.6,4.2,0.3,6.6c-0.2,1.3,0.5,1,4.7,1.6c3.9,0.6,2.4,3.1,1.2,3.4c-0.9,0.2-10.1-1.6-11.7-1.8c-5-0.8-4.3-0.4-3.2-7.2
			c0.8-4.6,0.5-5.2,2.9-4.7C83.3,125.8,82,127.8,81.8,131.2z M104.2,124.1c0-0.6,0.4,0,0.1,0C104.3,124.1,104.2,124.8,104.2,124.1z
			 M104.4,123.2L104.4,123.2C104.5,123.3,104.4,123.2,104.4,123.2z M104.6,122.3L104.6,122.3C104.7,122.4,104.6,122.3,104.6,122.3z
			 M104.8,121.6c0-0.6,0.4,0,0.1,0C105,121.6,104.8,122.2,104.8,121.6z M105.1,120.7c0-0.6,0.4,0,0.1,0
			C105.2,120.7,105.1,121.3,105.1,120.7z M105.3,120c0-0.6,0.4,0,0.1,0C105.4,120,105.3,120.6,105.3,120z M105.5,119.1
			c0-0.6,0.4,0,0.1,0C105.7,119.1,105.5,119.7,105.5,119.1z M105.8,118.4c0-0.6,0.4,0,0.1,0C105.9,118.4,105.8,119,105.8,118.4z
			 M106,117.5L106,117.5C106.1,117.6,106,117.5,106,117.5z M106.2,116.8c0-0.6,0.4,0,0.1,0C106.4,116.8,106.2,117.4,106.2,116.8z
			 M106.4,116.1c0-0.6,0.4,0,0.1,0C106.6,116.1,106.4,116.8,106.4,116.1z M106.7,115.4c0-0.6,0.4,0,0.1,0
			C106.8,115.4,106.7,116.1,106.7,115.4z M106.9,114.7c0-0.6,0.4,0,0.1,0C107,114.7,106.9,115.4,106.9,114.7z M107.1,114.1
			c0-0.6,0.4,0,0.1,0C107.3,114.1,107.1,114.7,107.1,114.1z M107.4,113.4c0-0.6,0.4,0,0.1,0C107.5,113.4,107.4,114,107.4,113.4z
			 M107.6,112.7L107.6,112.7C107.7,112.8,107.6,112.7,107.6,112.7z M107.8,112.2c0-0.6,0.4,0,0.1,0
			C108,112.2,107.8,112.9,107.8,112.2z M108,111.5c0-0.6,0.4,0,0.1,0C108.2,111.5,108,112.2,108,111.5z M108.5,110.6l-0.1,0.5
			L108.5,110.6z M108.5,110.6l0.1-0.5L108.5,110.6z M108.7,109.7c0-0.6,0.4,0,0.1,0C108.9,109.7,108.7,110.4,108.7,109.7z M109,109
			L109,109C109,109.1,108.9,109.1,109,109z M109.4,108.3l-0.1,0.5L109.4,108.3z M109.4,108.3l0.1-0.5L109.4,108.3z M85.2,115.4
			c1.4,0.1,2.9,1,4.3,1.1c0.1-1.2,0.6-2.4,1-3.6c0.3-1,0.5-3,1.8-3c2.7,0-0.2,4.8-0.5,7.3c1.3,0.6,5.6,1.4,6.4,2.1
			c0.8,0.7,0.8,1.9-0.1,2.5c-1.1,0.8-7.6-1.6-9.7-2.2c-7.7-2.2-6.6-1.1-4.7-8c0.2-0.8,0.5-1.7,0.8-2.7c0.4-1.2,0.4-1.5,1.2-2.2
			c1.1,0.2,0.9,0.4,1.6,0.9C87.1,109.6,85.3,113.5,85.2,115.4L85.2,115.4z M109.9,107.2l-0.1,0.5L109.9,107.2z M109.9,107.2l0.1-0.5
			L109.9,107.2z M110.3,106.1l-0.1,0.5L110.3,106.1z M110.6,105.6l-0.2,0.5L110.6,105.6z M110.6,105.6l0.1-0.5L110.6,105.6z
			 M110.8,104.7L110.8,104.7C110.9,104.7,110.8,104.7,110.8,104.7z M111.2,104l-0.1,0.5L111.2,104z M111.5,103.5l-0.2,0.5
			L111.5,103.5z M111.7,103.1l-0.2,0.5L111.7,103.1z M111.9,102.6l-0.2,0.5L111.9,102.6z M111.9,102.6l0.1-0.5L111.9,102.6z
			 M112.2,101.7L112.2,101.7C112.2,101.8,112.1,101.7,112.2,101.7z M112.6,101l-0.1,0.5L112.6,101z M112.8,100.6l-0.2,0.5
			L112.8,100.6z M113.1,100.1l-0.2,0.5L113.1,100.1z M113.3,99.7l-0.2,0.5L113.3,99.7z M113.5,99.2l-0.2,0.5L113.5,99.2z
			 M101.9,108.3c-1.3,0-9.9-3.9-11.8-4.7c-1.1-0.5-3.1-1.1-3.1-2.4c0-0.7,0.8-1.6,1.4-1.6c0.8,0,7.9,3.1,9.5,3.8
			c0.9,0.4,2.3,1.1,3.4,1.2c0.9-1.6,1.8-4.5,2.7-6.3c0.4-0.9,0.7-1,1.7-1.3c1.7,1.5,1,1.5-1.1,6.7
			C104.1,104.6,102.7,108.3,101.9,108.3L101.9,108.3z M113.8,98.7l-0.2,0.5L113.8,98.7z M114,98.3l-0.2,0.5L114,98.3z M114,98.3
			L114,98.3z M114.5,97.6L114.5,97.6z M114.7,97.1l-0.2,0.5L114.7,97.1z M114.9,96.7l-0.2,0.5L114.9,96.7z M115.1,96.2l-0.2,0.5
			L115.1,96.2z M115.4,95.8l-0.2,0.5L115.4,95.8z M115.6,95.3l-0.2,0.5L115.6,95.3z M115.8,95.1l-0.2,0.2L115.8,95.1z M330.1,98.3
			c0-1.4,5.4-3.2,7-3.8c1.3-0.5,7-3.1,7.9-3.1c1.2,0,2.1,3.1,2.1,3.5c0.1,1.4-4.9,4.5-5.9,5.3l-3.4,2.6l8.8-1.1
			c1.8-0.3,2.9-0.8,3.7,0.7c0.5,0.9,1.4,2.8,0.6,3.6c-0.5,0.5-5.9,2.6-7,3.1c-1.4,0.6-6.4,2.8-7.4,2.8c-1,0-2.1-1.8-0.3-2.8
			c1.7-0.9,7.8-3.1,10.2-4.2c0.5-0.2,0.5-0.3,0.8-0.5c-2.5,0-12.4,2.4-13.8,1.4c-2.9-2,2.2-4.8,4.4-6.5c0.9-0.7,5.3-3.7,5.7-4.3
			c-0.7,0.1-2.7,1-3.5,1.3c-1.3,0.6-7.9,3.7-8.9,3.4C330.6,99.6,330.1,98.9,330.1,98.3L330.1,98.3z M116.1,94.6l-0.2,0.5L116.1,94.6
			z M116.3,94.2l-0.2,0.5L116.3,94.2z M116.5,93.7l-0.2,0.5L116.5,93.7z M116.5,93.7c0.2-0.7,0-0.3,0.5-0.7
			C116.8,93.7,117,93.4,116.5,93.7z M117.2,92.6L117,93L117.2,92.6z M117.2,92.6c0.2-0.7,0-0.3,0.5-0.7
			C117.5,92.5,117.7,92.2,117.2,92.6z M117.9,91.4l-0.2,0.5L117.9,91.4z M117.9,91.4c0.2-0.7,0-0.3,0.5-0.7
			C118.2,91.4,118.4,91.1,117.9,91.4z M118.6,90.3l-0.2,0.5L118.6,90.3z M118.8,90l-0.2,0.2L118.8,90z M119,89.6l-0.2,0.5L119,89.6z
			 M119,89.6c0.2-0.7,0-0.3,0.5-0.7C119.3,89.6,119.5,89.3,119,89.6z M119.5,88.9c0.2-0.7,0-0.3,0.5-0.7
			C119.8,88.9,120,88.6,119.5,88.9z M119.9,88.2c0.2-0.7,0-0.3,0.5-0.7C120.2,88.2,120.4,87.9,119.9,88.2z M120.4,87.5
			c0.2-0.7,0-0.3,0.5-0.7C120.7,87.5,120.9,87.2,120.4,87.5z M120.9,86.8c0.2-0.7,0-0.3,0.5-0.7C121.2,86.8,121.3,86.5,120.9,86.8z
			 M121.3,86.2c0.2-0.7,0-0.3,0.5-0.7C121.6,86.1,121.8,85.8,121.3,86.2z M121.8,85.5c0.2-0.7,0-0.3,0.5-0.7
			C122.1,85.4,122.3,85.1,121.8,85.5z M122.2,84.8c0.2-0.7,0-0.3,0.5-0.7C122.5,84.8,122.7,84.4,122.2,84.8z M122.9,83.9l-0.2,0.2
			L122.9,83.9z M122.9,83.9c0.2-0.7,0-0.3,0.5-0.7C123.2,83.8,123.4,83.5,122.9,83.9z M123.4,83.2c0.2-0.8,0.1-0.5,0.7-0.9
			C123.8,83.1,124,82.8,123.4,83.2z M124.1,82.3c0.2-0.8,0.1-0.5,0.7-0.9C124.5,82.2,124.7,81.9,124.1,82.3z M329.4,94.6
			c-4,0-0.4-4,0.7-5.3c-1.1-2.1-2.5-4.1-3.7-6.2c-3.4,0.8-5.3,1.5-5.3-1.1c0-1.5,5.7-2,7.5-2.3c1.9-0.3,7.4-1.4,8.9-1.4
			c1,0,1.7,0.7,2,1.5c0.4,1,0.1,1.7-0.5,2.6l-6.3,8.4C332.3,91.5,330.2,94.6,329.4,94.6L329.4,94.6z M124.7,81.4
			c0.2-0.8,0.1-0.5,0.7-0.9C125.2,81.2,125.3,81,124.7,81.4z M125.7,80.2l-0.2,0.2L125.7,80.2z M125.7,80.2c0.2-0.8,0.1-0.5,0.7-0.9
			C126.1,80.1,126.3,79.8,125.7,80.2z M126.3,79.3c0.2-0.8,0.3-0.8,0.9-1.1C127.1,78.9,126.9,78.9,126.3,79.3z M97.3,85.7
			c0.7,0.4,1.2,0.7,1.9,1.1c0.7,0.4,1.1,0.8,2,1c0.1-0.6,0.6-1.3,0.9-1.8c0.4-0.7,2.8-5.3,3.4-5.3c2.2,0,1.3,1.9,0.6,2.9
			c-0.4,0.6-0.6,1.1-1,1.7l-1.9,3.6c0.5,0.6,3.5,2.3,4.1,2.5c0.6-0.5,0.9-1.1,1.3-1.9l2.4-4.2c1.7-3.2,2.9-1,2.9-0.5
			c0,0.9-1.2,2.5-1.6,3.2l-3.5,6.1c-1.5,2-2.6,0.4-6.1-1.5l-6.1-3.5c-4.1-2.3-3-2.3,1.4-9.9c0.3-0.6,0.5-0.9,0.8-1.5
			c1.3-2.1,2.5-0.6,2.5,0c0,1-2.3,4.5-3.1,5.9C97.9,84.4,97.5,84.8,97.3,85.7L97.3,85.7z M127.3,78.2c0.2-0.7,0.6-1,1.1-1.4
			C128.2,77.5,127.8,77.8,127.3,78.2z M128.4,76.8c0.2-0.8,0.8-1.2,1.4-1.6C129.6,76,129,76.4,128.4,76.8z M129.8,75.2
			c0.2-0.9,1.1-1.6,1.8-2.1C131.4,74,130.5,74.7,129.8,75.2z M110.8,67c-4,0-4.9,5.5-2.1,5.5c2.4,0,5-4.6,8.7-4.6
			c2.5,0,7.5,3.4,2.3,10c-2.6,3.4-8,3.3-8,0.5c0-2.3,3.7,0,5.5-1.3c3.6-2.6,2.1-8.4-2.8-4.6c-2.9,2.3-5.3,4.6-8.5,2.1
			c-3.9-3.1,0.7-10.5,5.3-10.5c2.9,0,3.1,2.7,1.5,3.1C112.1,67.3,111.8,67,110.8,67L110.8,67z M321.4,66.5c1.1,2.2,7.3,7.8,3.7,7.8
			c-1.1,0-4.4-5.3-5.7-6.2c-1.4,0.9-2.5,2-3.9,3c0.8,1.3,1.8,2.4,2.8,3.6c0.8,0.9,4.8,5.1,1.3,5.1c-0.7,0-0.9-0.6-1.2-1l-3.4-4.2
			c-2.3-2.9-4-3.9-1.7-5.7c1.7-1.4,10.4-8.5,11.1-8.5c1.3,0,5.1,5.5,6.1,6.7c0.7,0.8,1.4,1.6,1.7,2.7c-1.7,2-2.4,0.1-4-1.8l-3.4-4.2
			C324.1,64.2,321.8,65.9,321.4,66.5L321.4,66.5z M318.9,55.5c0,2-1.1,3.5-2.6,4.3c-2.4,1.2-3.2-0.2-5-0.6c0.1,1,0.2,0.6,0.2,2.3
			c0,1.4-0.7,5.9-2.3,5.9c-3.4,0-0.5-4.7-0.5-9.1c0-1.3-1.3-2.4-2.1-3c-1.8,1.2-4,4.4-5.1,4.7c-0.6,0.1-3.3-0.8-0.7-3.2
			c0.7-0.7,0.9-1.1,1.6-1.8c1.2-1.2,2.3-2.2,3.4-3.4c0.6-0.7,0.8-1.1,1.5-1.7c3.6-3.5,3.2-3.8,5.6-1.8c1.1,0.9,2.3,2.2,3.3,3.3
			C317.4,52.4,318.9,53.4,318.9,55.5L318.9,55.5z M129.3,48c0,2.5,0.3,3.3,2.1,5.4c2.4,2.9,6.3,3.3,8.2,0.1c0.3-0.6,0.6-1.6,0.6-2.3
			c0,0-0.2-1.1-0.3-1.3c-0.2-0.6-0.3-0.6-0.3-1.3c0-1.3,3.4-3.1,3.4,3.2c0,2.9-3.4,5.7-5.7,6.4c-1.6,0.5-3.3,0.4-4.8-0.3
			c-4.5-1.9-9.6-9-3.4-14.8c3-2.8,8.9-2.4,8.9,0.6c0,2.2-3.5,0.2-4.8,0.2c-1,0-2.1,0.7-2.7,1.2C129.9,45.9,129.3,46.8,129.3,48
			L129.3,48z M290.8,45.9v1.4c0,1.3,2.5,5.5,7.2,2.6c0.6-0.3,0.7-0.5,1.2-0.4c2.4,0.5,1,4.2-3.8,4.2c-3.3,0-7.5-3.5-7.5-6.6v-1.6
			c0-3.8,4.3-8.9,8-8.9h1.6c3.1,0,7.1,3.7,7.1,6.9v1.1c0,1.2-0.8,2-1.8,2.3c-2.4-1.3-0.4-2.3-1.3-4.8c-0.6-1.7-2.3-2.7-4.4-2.7
			c-1.8,0-3.1,1.3-4.1,2.3C292.1,42.5,290.8,44.4,290.8,45.9L290.8,45.9z M152,38.8c2.2,0,7.5,1.7,7.5,3.9c0,0.6-1,1.4-1.6,1.4
			c-1.9,0-4.9-3.2-8.2-3.2c-0.9,0-1.8,0.8-2.5,1.1c0.6,2.6,5.1,6.1,2.2,7.5c-1.2,0.6-2-0.7-2.7-1.8c-0.4-0.6-0.7-1-1.1-1.7
			c-0.7-1.1-1.3-2.1-1.9-3.1c-0.6-0.9-3.7-5.8-3.8-6.5c-0.3-1.5,3.7-3.4,5.6-4.5c2-1.2,4.9-2.7,7.2-0.3
			C155.6,34.9,152.9,37.3,152,38.8L152,38.8z M131.6,73.1c0.3-1.1,7.9-8.3,9.6-9.6c6.7-5.4,9-7.5,16.7-12.1c1.7-1.1,7.4-4.3,9.3-5.1
			c1.2-0.5,2-1.1,3.2-1.6c24.2-10.4,47.3-13.1,73.7-7.7c6.2,1.3,9.3,2.4,14.9,4.3c3.7,1.2,10.3,4.1,13.5,5.7l6.2,3.4
			c7.8,4.7,11.6,7.6,18.2,13.1l10.9,10.9c0.5,0.5,0.5,0.7,1,1.3l5.4,6.9c25.4,33.8,30.8,83.8,10.2,123.4l-1.7,3.1
			c-1.7,3.2-5.4,9.2-7.4,11.8l-7.4,9.5c-5.4,6.4-15.1,14.6-21.7,19.3c-4.6,3.3-13.1,8.1-18.5,10.5c-12.8,5.7-24.3,8.6-38.2,10
			c-1.5,0.2-3,0.3-4.5,0.3c-3,0-5.7,0.5-9.2,0.1c-1.5-0.2-3.1,0.1-4.6-0.2c-1-0.2-8-0.6-8.8-1c2.6,0,8.7,0.9,13.3,0.9
			c9,0,13.8-0.1,22.5-1.5c5.2-0.9,11-2.2,15.5-3.7c10.6-3.6,16.4-6.1,26.3-11.9l16.5-12.3c1.9-1.5,5.6-5.2,7.4-7
			c0.5-0.5,0.6-0.7,1-1.3c0.4-0.5,0.8-0.8,1.3-1.3c3.7-3.8,11.6-14.7,14.1-19.3c4.9-8.9,6.6-11.8,10.4-23.2c2.6-7.8,4-15.3,5-23.6
			c0.2-1.6,0.2-2.9,0.4-4.4c1.4-10.9-0.8-28.6-3.7-38.7c-0.3-1.2-0.8-2.6-1.1-3.7l-3.8-10.6c-1.6-3.7-2.6-6.1-4.5-9.7l-1.7-3.1
			c-3.6-6.1-9.1-14.5-13.9-19.7l-5.8-6.1c-1.5-1.2-3.9-3.8-6.3-5.8c-9.4-7.6-17.7-13.6-29.3-18.5c-12.9-5.4-20.4-7.3-33.8-9.2
			c-3.9-0.5-14.2-1-18.2-0.6c-0.7,0.1-1.5,0-2.3,0c-1.2,0-1.3,0.2-2.3,0.2c-6,0.3-11.5,1.4-16.7,2.5c-16.6,3.5-33.7,12.1-47,22.5
			c-3.1,2.5-6.1,5.1-9,8C135.3,69.6,132.8,72.3,131.6,73.1L131.6,73.1z M273.4,30.1c1.8,1,7.3,3.1,7.3,4.1c0,0.6-0.1,0.6-0.2,1.1
			c-1.6,0.4-0.9,0.3-4.6-1.4c-1.1-0.5-2.5-1.6-3.9-1.6c-0.3,1.4-1.7,3.3-1.8,4.6c0.8,0.2,1.4,0.6,2.1,0.9c1.1,0.5,6.2,2.5,6.2,3.4
			c0,2.8-3.4,0.7-6.2-0.7c-7.7-3.9-6.5-1.5-2.3-11c3.3-7.4,2.9-7.5,6.6-5.6c1,0.5,1.8,0.8,2.8,1.3c1.5,0.6,4.2,1.8,5,3
			c-0.5,2.2-1.7,1.3-3.1,0.6c-1.2-0.6-5.4-2.6-6.3-2.7C274.6,27.6,273.5,28.7,273.4,30.1L273.4,30.1z M160,26.9
			c0.7,1.3,1.2,2.6,1.8,3.9c0.8-0.2,1.2-0.4,1.8-0.7c1.1-0.5,4.9-2.3,5.7-2.3c0.9,0,1.3,1.2,0.7,1.8c-0.5,0.5-6.2,2.8-7.4,3.4
			c0.8,1.4,1.3,3.2,2.1,4.6l4.2-1.8c0.9-0.4,3.3-1.7,4.3-1.7c1,0,1.8,1.6,0.2,2.5l-9.8,4.2c-1.6,0-2.8-4.5-3.9-6.6
			c-0.4-0.8-3.2-7.1-3.2-7.5c0-1.4,3-2.2,4.9-3.1c3-1.4,6.8-3.8,6.8-1c0,0.9-1,1.1-1.6,1.4c-0.7,0.3-1.4,0.6-2.2,1
			C162.9,25.7,161.3,26.2,160,26.9L160,26.9z M173,19.8c0-1.3,2.6-1.7,3.9-2.1c3-0.9,6.2-2.2,8.4,0.5c0.9,1.1,1.2,2.4,1.2,4.1
			c0,3.5-4.8,4.8-7.8,5.5c0,1.6,3,7.3-0.2,7.3c-1.7,0-2.6-4.8-3.2-7.1C174.8,26.6,173,20.9,173,19.8L173,19.8z M253.7,27.4
			c0,3.9,2.1,4.8,5.3,4.8c2.2,0,2.8-2.7,4.1-2.7c4.2,0-1.7,9.7-10.2,3.3c-4.8-3.6-1.8-15.2,5.4-15.2h1.1c3.3,0,7.1,2.6,7.1,6.9
			c0,0.5-0.9,1.4-1.1,1.4c-3.1,0-0.4-5.7-6.4-5.7C255.6,20.1,253.7,25,253.7,27.4L253.7,27.4z M244.1,31.3c-3.1,0-2-2.1-1.3-5.6
			l1.7-8.3c0.3-1.3,0.4-3.2,1.8-3.2c3,0,1.3,4.4,0.5,8.3c-0.3,1.6-0.6,3.1-1,4.7C245.6,28.3,245.4,31.3,244.1,31.3L244.1,31.3z
			 M193.8,16.2c0,1.8,0.5,2.6,0.5,4.3c0.5-0.2,4.1-0.7,4.9-0.8c1.9-0.3,4.1-1.1,4.1,0.8c0,1.4-2.4,1.4-3.7,1.6
			c-1.3,0.2-3.4,0.7-4.8,0.7c0.1,1.1,0.4,2.3,0.6,3.5c0.2,1.7-0.2,1.5,2.5,1.1c2.1-0.3,5.6-1.1,7.3-0.8c0.5,2.2,0.6,2.2-5,3
			c-8.7,1.2-6.9,3.5-9.1-10c-0.8-4.8-1.4-5.4,2.1-6l7.1-1.1c2.1-0.3,2.6-0.3,2.6,1.3c0,1.2-2.7,1.3-4,1.5
			C197.1,15.7,195.3,16.1,193.8,16.2L193.8,16.2z M210.7,15.7c0,3.5,10.3,1.1,10.3,7.5c0,5.4-7.6,6.8-11.3,4.3
			c-1.6-1.1-3.8-4.9-0.3-4.9c1.3,0,1.4,3.7,3.9,3.7h1.4c3,0,4.2-3.1,2.1-4.4c-1.7-1-4.7-1-6.8-2.1c-4.3-2.3-2.4-8.6,4.3-8.6
			c5.6,0,7.4,5.5,4.1,5.5c-1.3,0-1.5-3-3.7-3C213.4,13.7,210.7,13.4,210.7,15.7L210.7,15.7z M70.8,148.6c0,10.2-0.1,13.5,1.6,24
			c0.8,4.8,5.2,23.6,7,29.1c2.4,7.3,5.7,15.4,9.6,22c5,8.4,10.4,16.5,16.6,24.1c5.3,6.5,7.8,8.9,14.2,14.9c0.5,0.5,0.7,0.5,1.3,1
			c0.8,0.8,1.6,1.4,2.5,2.1l5.1,3.9c8.6,6.4,12.2,8.8,21.8,14.3c4.1,2.4,14.4,6.6,19.2,8c6,1.8,22.9,6,29.1,7
			c13.7,2.3,26.9,2.3,40.6,0c5-0.8,23.6-5.2,29.1-7c14.3-4.8,23.5-9.8,35.5-18.5c5.4-3.9,9.1-6.5,14-10.7
			c3.8-3.2,11.5-11.3,14.3-14.9l7.7-10.4c5-6.7,6.6-9.8,10.5-16.5c1.7-3,4.2-8.9,5.6-12.4c0.9-2.2,1.7-4.5,2.4-6.7
			c1.8-6,6-22.9,7-29.1c2.3-13.7,2.3-26.8,0.1-40.4c-0.8-4.9-5.2-23.6-7-29.1c-0.8-2.3-1.5-4.5-2.3-6.6
			c-4.7-11.7-8.7-18.8-16.1-29.1c-0.7-0.9-1.2-1.6-1.8-2.5l-5.9-7.8c-0.7-0.8-1.2-1.6-1.9-2.4c-3.2-3.4-7.6-8.7-11.2-11.5L304,31.5
			c-3.5-2.7-7-4.9-10.8-7.2c-5.3-3.2-6.9-3.7-11.8-6.2c-1.9-1-4.1-1.8-6.3-2.6c-6.7-2.7-13.8-4.6-21.1-6.1
			c-18.9-4.1-19-4.9-39.2-4.9c-12,0-26.5,3.7-38.2,6.6c-5.3,1.3-11.9,3.5-16.9,5.7c-10.4,4.6-16.2,7.9-25.7,14.7
			c-0.9,0.7-1.6,1.2-2.5,1.8L120,42.1c-3.8,3.2-11.5,11.3-14.3,14.9l-3.9,5.1c-6.7,9-8.7,12.2-14.3,21.8l-4.3,9.2
			c-3.6,8.9-5.3,14.5-7.4,24.3c-1.1,5-2.4,9.6-3.3,14.8C71.6,137.2,70.8,142.9,70.8,148.6L70.8,148.6z"/>
		<path class="st0" d="M139.6,179.2c0,1.4,1,2.6,2,3.9c1.4,1.7,5.3-0.1,7-0.6c1.6-0.5,2.9-0.8,4.6-1.3c7.5-2.1,26.6-5.9,34.8-7.3
			l15.5-2.6c8.5-1.4,23.6-3.3,32.1-4c1.6-0.1,3.6-0.3,5.4-0.5l16.7-1.3c2.2-0.1,3.7-0.2,5.7-0.2c2,0,4.2,0.2,6-0.1
			c1.8-0.3,4.2-0.1,5.7,0.1c1.3,0.2,5.7,0,8.6,0.3c6.3,0.5,12.3,0.9,18.6,2.7c1.9,0.6,4.8,1.5,6.4,2.5c0.8,0.5,1.2,0.9,2.2,1
			c0.6-2.5,4.4-6.2-0.9-11.3c-4.7-4.6-18.6-4.1-25.7-4.1c-5.8,0-11.6,0.4-17.4,0.7l-31.3,3c-5.9,0.4-30.4,4-36.8,5.1l-18,3.1
			c-10.6,2.1-24.4,4.6-34.4,7.6C145,176.3,139.6,177.3,139.6,179.2L139.6,179.2z"/>
		<path class="st0" d="M124.1,130.8c0,4,3.8,6.6,7.5,6.6c1.1,0,5.7-3.1,7.2-4c3.2-1.9,13.4-6.6,16.5-3.5c1.5,1.6,2.6,5.5,2.6,8.6
			c0,3.4-1.5,6.2-2.7,8.5c-0.6,1.1-1.5,2.5-2.2,3.5c-3.5,4.7-11.1,11.8-16.8,11.8c-5.3,0-4.8-3-5.4-4.2c-1.1-2-3.9-1.8-3.9,1.2
			c0,5.6,5.4,10.7,12.1,10.7c5.6,0,14.9-5.7,18.2-9c7.7-7.6,12.5-14.3,11.7-26c-0.2-3-1.7-6-3.5-7.5c-5.9-4.9-17.2-2.5-23.2,0
			c-3.6,1.5-11.9,6.7-11.9,3.9c0-2.1,2.7-5.8,3.8-7.2c0.4-0.5,0.8-1,1.2-1.5c4.5-5.1,11.7-12.1,18.8-12.1c1.8,0,3.3,0.5,4.7,1
			c0.9,0.4,3.4,1.7,4,1.7c3.9,0-1.4-13.3-8.9-13.3c-2.6,0-4.4,0.6-6.6,1.6c-5,2.2-9,5.9-12.8,9.7C130.8,115,124.1,123.9,124.1,130.8
			L124.1,130.8z"/>
		<path class="st0" d="M224.4,134.4h-2.5c0-3.3,0.4-7.5,1.9-9.7c2.2-3.3,4.7-2.4,4.7,3.8C228.6,131,226.8,134.4,224.4,134.4z
			 M246.4,133.5l-0.2-6.2c0-8.3,6.2-15,6.2-3.7c0,3.6-1.1,6.1-3.4,8.3C248.1,132.8,247.4,133,246.4,133.5L246.4,133.5z M227.6,147.9
			c-4.2,0-5.4-8.9-5.7-12.1c3.7,0.3,6.4,1,9.2-2.5c3.6-4.5,1.5-16-4.2-16c-2.9,0-5.1,0-7.7,1.4c-4,2.1-6.2,11-6.2,15.7
			c0,4.9,0.4,9.2,3.1,13.1c2.2,3.2,4.9,4.9,9.5,4.9c5.3,0,8.4-4.5,10.5-8.5c0.4-0.8,1.8-3.7,1.8-4.6h0.5c0.3,3.7,5.2,11.2,11.2,11.2
			c6.4,0,8.8-4.3,11.2-9.1c1.5-3,2.8-7.5,3.7-11c0.2-0.7,0.3-1.4,0.5-2.1c0.2-0.8,0.5-1.3,0.2-1.8c-1-0.5-1.7,0.5-2,1.4l-1,3.2
			c-1.2,3.6-4.9,14.9-9.8,14.9c-3.4,0-5.7-8.9-5.7-11c2.7-1.3,6.8-2,9.3-6.7c3.1-5.7,0.1-14.6-4.5-14.6c-9.7,0-13.8,10.2-14.2,18.5
			c-0.1,1.4,0.5,1.9,0.2,3.3c-0.6,2.6-3.2,7.9-5,9.6C231.4,146.4,229.5,147.9,227.6,147.9L227.6,147.9z"/>
		<path class="st0" d="M199.1,122.5l1.5,11c0.3,2.3,0.1,9.4-0.3,11.9c-0.4,2-1.3,5.2-2.6,6.1c-0.1-0.6-1.2-3-1.8-5.5
			c-0.6-2.6-1-6.7-1.5-9.7c-0.2-1-0.1-2.4-0.7-3.2c-1.2-1.8-8.9-3.5-8.9,0.4c0,5.3,1.8,6.2,0.5,11.7c-0.4,1.8-0.8,3.5-1.2,5.4
			c-0.4,1.4-1.3,4.3-1.3,5.6h-0.5c-0.6-2.7-1.2-2.3-2.1-7.5c-0.2-1.4-0.3-2.8-0.5-4.3c-0.1-1.3-0.1-3.3-0.3-4.7
			c-0.9-6.1,3-13.1-6.8-13.1c-0.6,0-1.1,0.1-1.4,0.2c-1,0.3-1.4,0.7-1.1,1.7c0.3,1.2,0.5,0,0.9,3.5l0.8,10.6
			c0.7,5.2,0.4,9.7,3.4,13.7c1,1.3,1.6,1.8,3,2.8c2.5,1.7,6.1,2.1,6.1,1.2c0-2.6-1.5,1.2,0.5-6.6l1.8-6.6c0,6.9,5.3,10.8,11,11
			c0.5,0,1.1-0.1,1.4-0.2c1.2-0.4,0.9-0.9,0.9-0.8l0-0.6c-0.2-0.7-1.1-2.1-1.4-2.7c4.5,0,6.2,0.1,8.6-4.2c3.6-6.4,2.4-15.5,1.2-22.5
			c-0.2-0.9-1.2-7.6-2.9-7.6C204.1,119.1,199.1,120.7,199.1,122.5L199.1,122.5z"/>
		<path class="st0" d="M266.5,89.4l0,8.5c-0.1,1-0.2,1.1-0.2,2.3c0,2.2,0.6,3.1-1.6,3.2c-1.5,0.1-3.1,0.3-4.4,0.4
			c-5.2,0.5-10.9,0.6-16.2,0.5c-1,0-1.8-0.2-1.8,0.7c0,0.9,2,1.6,2.8,2c8.4,4.2,12.8,3,20.7,2.4c0,9.5-0.3,18.6,1.4,26.5
			c1.1,5.4,5.7,16.5,11.4,16.5c1.8,0,2.8,0.2,1.2-2.6c-0.6-1.1-0.9-1.7-1.4-2.9c-5.2-11.8-3.7-26.3-3.7-39.1c0.7-0.3,2.6-0.7,3.6-1
			c6-1.5,17.8-4.6,23.1-7.3c0.8-0.4,1-0.4,1-1.5c-3.6,0-10.3,1.4-14.2,2.1l-9.8,1.6c-1,0.1-2.4,0.4-3.4,0.5c0-2.3,0.8-9.2-0.6-11.5
			C271.9,86.4,266.5,85.9,266.5,89.4L266.5,89.4z"/>
		<path class="st0" d="M278.9,113.6c1.1,1.7,5.4,1.8,8,1.8c3.6,0,7.3-0.9,10.3-1.6c-1,2-2.8,6.8-3.7,9.1c-1.3,3.3-3.2,8.3-5.2,11
			c-1,1.4-1.6,2.3-3.3,3.1c-1,0.5-1.8,0.2-2.3,1.1c-1.1,1.9,2.5,7.4,5.2,7.4c2.2,0,2.9-1.7,6.1-3c12.4-5,16,2.1,17.9,2.1
			c2,0,0.9-5.6,0.2-6.6c-2.5-3.9-14.3-0.7-16.7,0.5l2.7-6.5c1.3-3.2,4.7-15.4,8.1-17.1c0.9-0.5,1.7-0.1,1.7-1.3
			c-0.1-2.1-3.7-5.5-5.1-6.5c-0.6,0.1-0.8,0.2-1.3,0.6c-0.7,0.5-0.3,0.3-1.1,0.7c-3.9,1.8-10.4,4.2-14.7,4.3
			C282.8,112.7,279.8,112.2,278.9,113.6L278.9,113.6z"/>
		<path class="st0" d="M147.8,218.1c-2.2,0-3.4-0.8-4.6-3c1.7-1.2,4.8-4.3,5.9-5c0.7,1.3,2.3,2.3,2.3,4.1
			C151.5,216,149.5,218.1,147.8,218.1z M139.8,214.9c0,0.6,0.9,1.7,1.3,2.1c0.7,0.7,0.9,1.1,1.6,1.8c1.1,1.1,2.6,2.1,4.5,2.3
			c2.9,0.4,10.9-3.8,5.1-11.3c-3.5-4.6-3.8-3.5-6-1.4C145.1,209.7,139.8,213.6,139.8,214.9L139.8,214.9z"/>
		<path class="st0" d="M344.7,155.4c0,1.6,0.9,3,2,3.8c2.4,1.6,6.3,1.7,8.7,0c3-2.1,2.3-8.6-3.5-8.6c-2,0-4-0.1-5.6,1.3
			C345.5,152.6,344.7,154.1,344.7,155.4L344.7,155.4z"/>
		<path class="st0" d="M226.7,242.1c1,0,4.8-1.1,4.8,1.4c0,2.1-2.3,2.3-4.3,2.3C227.2,244.8,227,242.7,226.7,242.1z M226,253.1
			c3,0,1.6-2.6,1.6-5c2.8,0,3.6,4.1,5.9,4.1c1,0,1.4-0.5,1.8-1.1c-0.4-1.6-3-2.5-3.4-4.1c2.3-0.2,3.5-3.4,2-5.9
			c-1.3-2.2-4.5-1.7-7.3-1.4c-1.5,0.2-3,0.2-3.1,1.6c0,0.5,0.4,3.3,0.5,4.2C224.4,247.8,224.4,253.1,226,253.1z"/>
		<path class="st0" d="M286.4,212.6c6.3,0,6.1,7.8,1.1,7.8C282.5,220.4,282.1,212.6,286.4,212.6z M280.5,216.5
			c0,0.6,0.4,2.1,0.6,2.6c3.1,7.3,13.1,4.4,13.1-2.4c0-3-1.6-5.2-4-6.3C285.1,208,280.5,212.4,280.5,216.5z"/>
		<path class="st0" d="M154.5,229.1c0,1.9,1.3,2,3.5,3.8c0.7,0.6,1.2,0.9,1.9,1.5c0.7,0.6,1.2,1.1,2.1,1.3c0.8-0.4,1.1-0.7,1.4-1.6
			c-0.7-1.2-1.3-1.5-2.5-2.4c-0.7-0.5-2.4-1.7-2.8-2.2c0.2-0.7,1-1.7,1.6-2.1c1.6,1.1,3,2.7,4.3,2.7c0.3,0,2.4-0.9,0-2.7
			c-0.7-0.5-2.2-1.9-2.9-2.1c0.5-0.7,1-1.3,1.4-2.1c1.6,0.8,4.9,3.9,5.7,3.9c0.6,0,1.4-1,1.4-1.6c0-0.8-2.8-2.6-3.5-3.1
			c-5-3.7-3.7-4.3-9.8,4C155.9,227,154.5,228.6,154.5,229.1L154.5,229.1z"/>
		<path class="st0" d="M216,252.9c0.7-2.8-0.7-2.3-3.4-2.6c-4.6-0.5-3.5,0.8-3.5-2.9c4.4,0,5.7,1.2,5.7-1.4c0-1.3-4.2-1.1-5.5-1.1
			c0-1.2,0.2-1.2,0.2-2.5c2.2,0,4.3,0.5,6.6,0.5c2.5-3.7-2.4-2.7-7.1-3.2c-4.3-0.5-2.2,3.2-3.4,10.2c-0.3,1.9,0,2.7,1.7,2.9
			C209.3,252.8,214.4,253.6,216,252.9z"/>
		<path class="st0" d="M189.5,240.1c0,3.7,3,3.6,4.9,5.2c0.8,0.7,0.6,1.2,0.2,2.1c-3.8,0.9-4.6-1.9-5.7-2.7
			c-1.8,0.9-1.8,2.2-0.5,3.5c2.7,2.6,9.9,3.2,9.9-1.9c0-3.4-4.6-4.3-5.4-5.4c-1.8-2.5,4.1-2.7,5,0.6c2.4-0.1,2.2-2,1.1-3.1
			c-0.3-0.3-1-0.7-1.4-0.9C193.9,235.5,189.5,236.3,189.5,240.1L189.5,240.1z"/>
		<path class="st0" d="M173.2,233.9c0,3.1,4.3,4.6,4.3,5.7c0,2.9-4.6,1.4-5.5-2.3c-3,0.2-2.5,2.9,0.2,4.8c3.6,2.6,8.5,2,8.5-2.3
			c0-2.4-3.5-4-4.6-5.9c0.4-0.8,0.4-1.1,1.4-1.1c2.1,0,3.3,1.5,3.7,3.2c3.1,0,2.6-2.7-0.1-4.5C176.7,228.5,173.2,230.6,173.2,233.9z
			"/>
		<path class="st0" d="M266.1,228.8c0,3.5,2.7,6.6,5.9,7.1c3.9,0.7,7.6-3,7.6-5.1l-0.2-2.1c-3-1.4-2.4,1.1-2.6,1.8
			c-0.8,2.6-4.6,3.2-6.4,1c-2.5-3.1-0.3-6.4,1.9-6.4l2.3,0.2C278,220.2,266.1,221.4,266.1,228.8L266.1,228.8z"/>
		<path class="st0" d="M240.9,239.8c1.6,0,2.3-0.6,3.7-0.9c0.1,0.9,0.6,2.3,0.9,3.2c0.3,1,0.6,2.1,1,3.3c0.3,0.8,0.7,2.5,1.2,3
			c0.8,0.7,2.6,0,2.6-1c0-1.4-2.2-7.1-2.7-9.4c0.6-0.3,1.4-0.5,2-0.7c3.2-1,0.9-2.9,0.7-2.9c-0.9,0-9.1,2.6-9.8,3.1
			C239.5,238.1,239.8,239.8,240.9,239.8L240.9,239.8z"/>
		<path class="st0" d="M143.3,35.9c0.2,0.8,1.9,3.1,2.5,4.3c1-0.5,2-1.2,3-1.8c3.3-2,2.8-5.1-0.5-5.1
			C146.6,33.3,144.9,35.5,143.3,35.9L143.3,35.9z"/>
		<path class="st0" d="M308.4,53.5c1,1.5,3.3,3.9,5.7,3.9c1.1,0,1.6-1.2,1.6-2.5c0-1.3-3.6-4.6-4.3-4.8
			C311,51.3,309.1,52.3,308.4,53.5z"/>
		<path class="st0" d="M176.4,20.3c0.1,1.5,1.3,3.8,1.4,5.3c0.8-0.1,2.6-0.7,3.4-1c3.7-1.5,2.1-5.2-0.4-5.2
			C179,19.4,178,20.2,176.4,20.3z"/>
		<path class="st0" d="M328.9,82.7c0.4,0.8,0.8,1.5,1.3,2.3c0.7,1.1,0.9,1.8,1.6,2.2c0.3-1.2,4.3-5,4.6-6.2L328.9,82.7z"/>
		<path class="st0" d="M124.3,253.1l6.9-3.4c-0.9-1.3-2.6-2.8-3.9-3.7c-0.5,1-1,2.3-1.5,3.5L124.3,253.1z"/>
		<path class="st0" d="M81.1,146.8c0.6,0.8,6,2.8,6.9,3l0.2-5C86.7,144.8,83.2,146.3,81.1,146.8z"/>
		<path class="st0" d="M224.9,282.8c0.4,1.9,2.6,5.6,2.7,6.9h0.5c0.1-1.1,0.6-2.6,0.9-3.6c0.2-0.8,0.9-2.8,0.9-3.7
			C229.5,282.6,225.6,282.8,224.9,282.8z"/>
		<path class="st0" d="M299.2,207.4c0,2.3,3.4,2.6,3.4-0.2c0-0.6-1.5-2.3-2.8-0.7C299.8,206.5,299.2,207.3,299.2,207.4L299.2,207.4z
			"/>
	</g>
	<path class="st0" d="M414.2,235.2c-0.6,4.1,1.7,7.9,4.3,12.1c3.4,5.4,15.3,1.9,20.3,1c5-0.9,8.7-1.3,13.8-2
		c22.4-3.1,79-6.4,103.2-7l45.7-1.1c25-0.5,69.4-0.1,94.1,1.3c4.8,0.3,10.6,0.7,15.9,0.7l48.8,3c6.2,0.7,10.7,0.8,16.6,1.7
		c5.7,0.8,12,2.1,17.5,2.1c5.2-0.1,12.3,1.3,16.3,2.5c3.7,1,16.5,2.4,24.8,4.3c18.1,4,35.2,7.5,52.5,15.2c5.4,2.4,13.1,6.2,17.4,9.8
		c2,1.7,3.2,3.2,5.9,3.8c2.7-7,15.2-16,2.1-32.8c-11.7-15-51.9-19.2-72.3-22c-16.6-2.3-33.6-3.6-50.4-5l-91.5-4.1
		c-17.2-1.4-89.1-0.6-107.9-0.1l-53,1.6c-31.4,1.7-72.1,3.6-102.3,8.1C430.9,229,415,229.7,414.2,235.2L414.2,235.2z"/>
	<path class="st0" d="M388.9,89.2c-1.6,11.4,8.4,20.7,19.1,22.1c3.2,0.4,17.6-6.6,22.4-8.6c10-4.2,41.3-13.7,48.9-3.4
		c3.8,5.1,5.2,17,4,25.9c-1.4,9.8-6.7,17.2-11.1,23.5c-2,2.9-5.3,6.6-7.8,9.1c-12,12-36.7,29.4-53.2,27.1
		c-15.3-2.1-12.7-10.6-14-14.2c-2.2-6.2-10.6-6.8-11.8,1.9c-2.3,16.2,11.2,33.1,30.6,35.8c16.1,2.3,45.3-10.4,56.2-18.5
		c25.2-18.8,41.9-36.2,44.2-70.2c0.6-8.7-2.4-17.9-7-23c-14.9-16.6-48.4-14-66.9-9.5c-11,2.7-37.1,14.6-35.9,6.3
		c0.9-6.1,10-15.7,13.7-19.3c1.4-1.4,2.7-2.6,4.1-3.9c15-13,38.5-30.1,59-27.2c5.1,0.7,9.4,2.8,13,4.9c2.4,1.4,9,6.3,10.9,6.5
		c11.1,1.6,1.4-38.8-20.4-41.8c-7.5-1-13,0-19.7,1.9c-15.2,4.4-28.3,13.4-40.6,22.7C414.7,46.5,391.7,69.6,388.9,89.2L388.9,89.2z"
		/>
	<path class="st0" d="M676.7,140.2l-7.2-1c1.3-9.5,4.2-21.5,9.5-27.3c7.8-8.5,14.5-5.1,12,12.8C689.9,132,683.5,141.2,676.7,140.2
		L676.7,140.2z M740.3,146.4l1.8-17.9c3.3-23.9,23.8-40.8,19.3-8.1c-1.4,10.3-5.7,17.2-13,22.5C745.6,145.1,743.5,145.3,740.3,146.4
		z M680.5,180.4c-12-1.7-12.1-27.9-11.6-37.2c10.6,2.4,18.2,5.3,27.5-3.4c12.3-11.6,10.8-45.6-5.5-47.9c-8.2-1.2-14.7-1.9-22.8,1.1
		c-12.5,4.6-22.4,29.2-24.3,42.7c-2,14.2-2.5,26.6,3.7,39.1c5.1,10.2,12.2,16.2,25.3,18c15.4,2.2,26.1-9.5,33.7-20.1
		c1.5-2,6.5-9.9,7.1-12.5l1.3,0.2c-0.6,10.7,10.5,34.4,27.8,36.8c18.4,2.6,27.1-9,36-21.8c5.6-8,11.1-20.5,15-30.1
		c0.7-1.9,1.4-3.9,2.1-5.8c0.9-2.2,1.8-3.5,1.4-5.2c-2.7-1.7-5.2,0.8-6.4,3.2l-4,8.7c-5,10-20.1,40.9-34.2,39
		c-9.7-1.4-12.7-28-12-33.9c8.4-2.7,20.3-3,29.5-15.6c11.1-15.2,6.1-41.9-7.1-43.8c-27.9-3.9-44,23.8-48.3,47.7
		c-0.7,3.9,0.6,5.6-0.9,9.7c-2.7,7.2-12.5,21.3-18.3,25.8C691.9,177.4,685.9,181.1,680.5,180.4L680.5,180.4z"/>
	<path class="st0" d="M608.3,95.7l0,32.4c0,6.6-3.4,27.2-5.7,34.1c-1.9,5.6-6,14.5-9.9,16.6c-0.2-1.8-2.1-9.2-2.9-16.7
		c-0.8-7.7-0.1-19.7-0.4-28.6c-0.1-2.9,0.6-7-0.6-9.5c-2.9-5.6-24.1-13.8-25.7-2.4c-2.1,15.3,2.6,18.5-3.4,33.8
		c-2,5.1-3.6,9.9-5.7,15.1c-1.6,3.9-5.3,11.8-5.9,15.6l-1.3-0.2c-0.7-7.9-2.4-7.2-2.9-22.6c-0.1-4.1,0.2-8.1,0.3-12.6
		c0.1-3.8,1.1-9.6,1.1-13.8c-0.2-18.1,14-36.6-14.2-40.6c-1.8-0.3-3.2-0.3-4.2-0.1c-3.1,0.3-4.3,1.6-3.9,4.4
		c0.5,3.7,1.4,0.1,1.2,10.4l-1.9,30.9c-0.2,15.3-2.7,28.1,4.3,40.9c2.4,4.3,3.8,5.9,7.4,9.2c6.5,6,16.8,8.6,17.2,5.9
		c1.1-7.6-4.9,3,4-18.9l7.9-18.4c-2.8,19.8,10.8,33.1,27.3,36c1.3,0.2,3.1,0.2,4.1,0c3.7-0.6,3-2.1,3-2.1l0.2-1.7
		c-0.2-2.1-2.3-6.4-3-8.4c12.9,1.8,17.8,2.9,26.5-8.7c12.8-17,13.1-43.7,12.6-64.4c-0.1-2.6-0.5-22.3-5.4-23
		C624.2,87.9,609.1,90.6,608.3,95.7L608.3,95.7z"/>
	<path class="st0" d="M816.1,27.4l-3.4,24.4c-0.6,2.9-1.1,3.1-1.6,6.5c-0.9,6.4,0.5,9.2-5.9,8.6c-4.2-0.4-8.9-0.4-12.8-0.6
		c-15.1-0.5-31.7-2.8-46.9-5.1c-2.8-0.4-5.1-1.4-5.5,1.3c-0.4,2.5,5.2,5.4,7.3,6.9c22.6,15.5,35.8,13.9,58.8,15.2
		c-3.8,27.4-8.2,53.4-6.6,76.8c1.1,16.1,9.6,49.9,26.1,52.2c5.3,0.7,8,1.6,4.5-7c-1.4-3.5-2-5.4-3-9c-10.3-36.2,0-77.1,5.2-114.1
		c2.2-0.7,7.9-1,10.8-1.3c18-1.9,53-6.1,69.5-11.8c2.5-0.9,2.9-0.8,3.4-4c-10.4-1.5-30.3-0.1-41.7,0.2l-29,0.6c-3.1,0-7.2,0.3-10,0
		c0.9-6.7,5.9-26.1,2.8-33.4C832.8,21.1,817.5,17.5,816.1,27.4L816.1,27.4z"/>
	<path class="st0" d="M841.9,102.2c2.6,5.3,14.8,7.4,22.3,8.5c10.4,1.5,21.4,0.3,30.3-0.5c-3.8,5.2-10.9,18.4-14.4,24.7
		c-5.1,9-12.5,22.6-19.5,29.6c-3.5,3.5-5.7,6.1-10.7,7.7c-3,0.9-5.3-0.1-7.2,2.3c-4.1,5.2,4.2,22.5,11.9,23.5
		c6.4,0.9,9.1-3.8,18.9-6.2c37.7-9.4,45.1,12.5,50.7,13.2c5.8,0.8,4.9-15.7,3.4-19c-5.5-12.1-41-7.7-48.3-5.4l10.3-17.6
		c5-8.8,19.8-42.5,30.2-45.9c2.9-1,5.1,0.3,5.4-3.2c0.5-6.1-8.4-17.3-12.1-20.7c-1.8,0.2-2.3,0.3-3.9,1.1c-2.2,1.1-0.8,0.7-3.6,1.5
		c-12,3.6-31.7,8-44.1,6.3C853.7,101.2,845.1,98.6,841.9,102.2L841.9,102.2z"/>
</g>
</svg>
