<?xml version="1.0" encoding="utf-8"?>
<!-- Generator: Adobe Illustrator 25.2.3, SVG Export Plug-In . SVG Version: 6.00 Build 0)  -->
<svg version="1.1" id="Warstwa_1" xmlns="http://www.w3.org/2000/svg" xmlns:xlink="http://www.w3.org/1999/xlink" x="0px" y="0px"
	 viewBox="0 0 612 665.9" style="enable-background:new 0 0 612 665.9;" xml:space="preserve">
<style type="text/css">
	.st0{fill-rule:evenodd;clip-rule:evenodd;fill:#2B2A29;}
</style>
<g id="Layer_x0020_1">
	<g id="_2913010634624">
		<path class="st0" d="M316.9,362c-2,0-2.3-1.5-3.1-3c-0.7-1.4-1.4-2.6-2-4c-0.6-1.3-3.8-7.6-3.8-8.3c0-2.6,3.1-2.9,4.3,2.3
			c2.7,0,4.4-0.2,7.1-0.2c1.2-2.5,0.6-4.6,3-4.6c2.5,0,0.2,5.1-0.1,6.1l-2.8,8.6C319,360.3,318.6,362,316.9,362z M298.1,352.9
			c0.6-0.2,2.2-1.5,2.7-2.1c0.6-0.6,0.4,0.1,0.6-1.2c0.5-2.4-0.6-4.7,2.1-4.7c1.9,0,1.3,3.2,1.2,3.7l-0.8,12.2
			c-0.4,2-2.7,1.8-3.2,0.4l0.1-4.6c0.1-0.8,0.2-1.2,0.2-2.3c-1.2,0.6-1.7,1.5-3.2,2.7c-1.2,0.9-4.5,4.6-5.7,4.6
			c-1.9,0-2.1-1.9-0.7-3c0.8-0.6,3.7-3.2,4.4-3.4c-0.7-3-6.6-9-4.8-10.7c2-1.8,3.5,1.6,4.2,3C296,348.8,297.9,351.9,298.1,352.9
			L298.1,352.9z M338.6,341c1.7,0,1.7,1.6,2.1,3c0.6,2.6,2.5,10.9,2.5,13c0,1.1-1.1,1.1-1.8,1.1c-1.6,0-2.3-5.6-2.3-6.4
			c-1,0-2.7,0.5-3.7,0.7c-1.2,0.2-2.5,0.7-3.9,0.7c0.1,3.4,2.9,7.3-0.9,7.3c-1.5,0-2.1-5.1-2.5-7.3c-0.7-3.2-3-9.8-0.2-9.8
			c1.7,0,1.8,1.4,2.1,2.9c0.2,1.2,0.8,3.2,0.9,4.4c0.6,0,7.2-1.4,7.5-1.6c-0.2-0.9-1.5-5.9-1.3-6.7C337.3,341.6,337.9,341,338.6,341
			L338.6,341z M274.6,342.8c0-2.5,3.7-0.9,7.1-0.2c1.8,0.4,5.5,0.8,5.5,2c0,2.2-2.5,14.3-3.3,15c-1,0.9-5-0.4-7.1-0.8
			c-1.3-0.3-2.5-0.4-3.8-0.8c-2-0.5-0.9-2.5-0.3-2.5c2.4,0,6.5,1.4,8.7,1.6c0.1-1.3,0.6-3.1,0.9-4.3l-6.9-1.3
			c-2.5-0.6-1.5-2.6,0-2.5c0.7,0.1,5.7,1.4,7.4,1.6c0.1-1.5,0.9-3.2,0.9-4.8c-0.7-0.4-3.9-0.9-4.9-1.1
			C277.4,344.4,274.6,344.1,274.6,342.8L274.6,342.8z M268.6,350.6c0,2.1-2.1,4.3-3.9,4.3h-1.4c-6.8,0-8.8-7.3-5.5-7.3
			c2.6,0,0,5,5.3,5c2.7,0,3.1-2.4,0.7-3.9c-0.8-0.5-1.6-1-2.3-1.6c-1.7-1.2-3.4-2.5-3.4-4.8c0-2.8,2.5-5,5.3-5c8,0,9.7,8.5,6.4,8.5
			c-2.6,0,0.2-5.9-5.7-5.9c-1.8,0-4.8,2.2-0.4,5.2c1.1,0.7,2.2,1.4,3.1,2.2c0.5,0.4,0.8,0.8,1.2,1.4
			C268.2,349,268.6,350,268.6,350.6L268.6,350.6z M347.5,342.4c0,1.1,0,2.5,2.7,2.5c2.4,0,9.4-1.9,9.4,4.1c0,1.9-1.2,3-2.3,3.8
			c-4.2,3-9.3,1.5-9.3-1.3c0-0.5,0.9-1.4,1.1-1.4c2,0,1.1,1.8,4.3,1.8c3.5,0,6.1-5.3-1.3-4.3c-3.6,0.5-7.8,0.1-7.8-4.6
			c0-3.1,3.1-4.9,5.5-5.7c5.7-1.8,9.1,3.5,6.2,4.4c-1.1,0.3-1.7-1-2.6-1.7C350.9,338.2,347.5,340.6,347.5,342.4L347.5,342.4z
			 M291.1,338c-1.7,0-2.6-0.5-4.1-0.5L291.1,338z M285.6,337.1h1.1v0.2c-0.2,0-0.5,0-0.7,0C285.6,337.2,285.8,337.3,285.6,337.1
			L285.6,337.1z M285.6,337.1c-0.2,0-0.5,0-0.7,0c-0.4-0.1-0.2-0.1-0.5-0.2c0.2,0,0.5,0,0.7,0C285.5,337,285.3,337,285.6,337.1z
			 M284.4,336.9c-0.2,0-0.5,0-0.7,0c-0.4-0.1-0.2-0.1-0.5-0.2c0.2,0,0.5,0,0.7,0C284.4,336.8,284.2,336.7,284.4,336.9L284.4,336.9z
			 M283.3,336.7c-0.2,0-0.5,0-0.7,0c-0.4-0.1-0.2-0.1-0.5-0.2c0.2,0,0.5,0,0.7,0C283.2,336.5,283,336.5,283.3,336.7z M282.1,336.4
			c-0.1,0-0.4,0-0.4,0c-0.4-0.1-0.2-0.1-0.5-0.2c0.1,0,0.4,0,0.4,0C282.1,336.3,281.9,336.3,282.1,336.4z M281.2,336.2h-0.9
			c0.4-0.3-0.5-0.3,0.5-0.2C281.3,336,281,336,281.2,336.2z M279.2,335.7h0.9c-0.4,0.3,0.5,0.3-0.5,0.2
			C279.1,335.9,279.4,335.9,279.2,335.7z M279.2,335.7c-1.2,0-0.4,0-0.7-0.2C279.7,335.5,278.8,335.5,279.2,335.7z M277.6,335.3
			c0.2-0.2,1.2,0.3,0.4,0.1h-0.1C277.8,335.4,277.2,335.7,277.6,335.3L277.6,335.3z M276.7,335c0.2-0.2,1.2,0.3,0.4,0.1H277
			C276.9,335.1,276.3,335.4,276.7,335z M275.7,334.8c1.2,0,0.4,0,0.7,0.2C275.2,335,276.1,335,275.7,334.8z M275.7,334.8
			c-1.2,0-0.4,0-0.7-0.2C276.3,334.6,275.4,334.6,275.7,334.8z M274.1,334.4c1.2,0,0.4,0,0.7,0.2
			C273.6,334.6,274.5,334.6,274.1,334.4z M274.1,334.4c-1.1,0-0.4,0-0.7-0.2C274.5,334.1,273.9,334.1,274.1,334.4z M273.4,334.1
			c-1.2,0-0.4,0-0.7-0.2C274,333.9,273.1,333.9,273.4,334.1z M271.8,333.7c1.2,0,0.4,0,0.7,0.2C271.3,333.9,272.2,333.9,271.8,333.7
			z M271.8,333.7c-1.1,0-0.4,0-0.7-0.2C272.2,333.4,271.6,333.4,271.8,333.7z M271.2,333.4c-1.1,0-0.4,0-0.7-0.2
			C271.6,333.2,270.9,333.2,271.2,333.4z M270.5,333.2c-1.1,0-0.4,0-0.7-0.2C270.9,333,270.2,333,270.5,333.2z M269.8,333
			c-1.1,0-0.4,0-0.7-0.2C270.2,332.8,269.5,332.8,269.8,333z M269.1,332.8l-0.5-0.1L269.1,332.8z M268,332.3
			c0.2-0.2,0.9,0.4,0.3,0.1C268.2,332.4,267.6,332.7,268,332.3z M267.3,332.1c0.2-0.2,0.9,0.4,0.3,0.1
			C267.5,332.2,266.9,332.5,267.3,332.1z M266.6,331.8l0.5,0.1L266.6,331.8z M266.6,331.8l-0.5-0.1L266.6,331.8z M265.4,331.4
			c0.2-0.2,0.9,0.4,0.3,0.1C265.7,331.5,265.1,331.8,265.4,331.4z M264.8,331.2l0.5,0.1L264.8,331.2z M264.8,331.2l-0.5-0.1
			L264.8,331.2z M263.6,330.7l0.5,0.1L263.6,330.7z M263.6,330.7l-0.5-0.1L263.6,330.7z M262.5,330.2l0.5,0.1L262.5,330.2z
			 M262.5,330.2l-0.5-0.1L262.5,330.2z M369.5,328.4c1.7,0,1.9,0.8,3.3,3.6c0.4,0.8,0.7,1.4,1.1,2.1c0.4,0.8,0.8,1.3,1.1,2.1
			c0.5,0.9,3.1,5.7,3.1,6.4c0,0.8-0.6,1.6-1.5,1.6c-1.6,0-1.9-1.6-2.5-2.7s-1.5-2.3-1.8-3.7l-2.2,6.1c-0.8,2.6-0.9,5.1-2.9,5.1
			c-0.7,0-1.3-0.9-1.3-1.4s0.4-1.9,0.6-2.3c0.4-1.1,1.3-3.1,1.4-4.3c-0.8-0.4-1.6-0.7-2.4-1.2c-0.9-0.5-1.5-0.9-2.5-1.4
			c-1.2-0.6-2.6-1.2-3.7-2c-2.1-1.6-0.2-2.9,0.9-2.9c1.3,0,7.4,4.2,8.9,4.6c1.1-4.7,2-2.1-0.3-6.8
			C367.7,329.2,368.8,328.4,369.5,328.4L369.5,328.4z M261.3,329.8l0.5,0.1L261.3,329.8z M261.3,329.8l-0.5-0.2L261.3,329.8z
			 M260.9,329.6l-0.5-0.1L260.9,329.6z M260,329.1L260,329.1C260,329.2,259.9,329.1,260,329.1z M259.3,328.9l0.5,0.1L259.3,328.9z
			 M259.3,328.9l-0.5-0.2L259.3,328.9z M258.8,328.6l-0.5-0.1L258.8,328.6z M257.9,328.2L257.9,328.2
			C258,328.3,257.9,328.2,257.9,328.2z M257.4,328C257.5,327.9,257.5,328,257.4,328L257.4,328z M257,327.7L257,327.7
			C257,327.8,257,327.8,257,327.7z M256.3,327.5l0.5,0.1L256.3,327.5z M256.3,327.5l-0.5-0.2L256.3,327.5z M255.8,327.3l-0.5-0.2
			L255.8,327.3z M255.4,327l-0.5-0.2L255.4,327z M254.9,326.8l-0.5-0.2L254.9,326.8z M254.5,326.6l-0.5-0.2L254.5,326.6z M254,326.4
			l-0.5-0.2L254,326.4z M253.6,326.1l-0.5-0.2L253.6,326.1z M253.1,325.9L253.1,325.9z M252.4,325.4L252.4,325.4
			C252.5,325.5,252.4,325.5,252.4,325.4z M252,325.2C252,325.2,252,325.3,252,325.2L252,325.2z M251.5,325L251.5,325
			C251.6,325.1,251.5,325,251.5,325z M251,324.8L251,324.8z M251,324.8l-0.5-0.2L251,324.8z M250.6,324.5l-0.5-0.2L250.6,324.5z
			 M250.1,324.3L250.1,324.3z M249.4,323.8C249.5,323.8,249.5,323.9,249.4,323.8L249.4,323.8z M374.5,328.2c0,0-2.9-0.6,0.6-3.1
			c1.3-0.9,6.2-4.7,7.5-4.7c0.8,0,2,2,2.6,2.9c0.8,1.2,1.5,2.2,2.3,3.4c0.8,1.1,1.5,2.1,2.3,3.2c0.4,0.6,2.2,2.9,2.2,3.6
			c0,0.1-0.9,4-4.1-0.7c-0.7-1.1-1.3-1.9-2.1-3l-4.2-5.9C379.8,324.3,376.1,328.2,374.5,328.2L374.5,328.2z M249,323.6L249,323.6z
			 M249,323.6l-0.5-0.2L249,323.6z M248.5,323.4L248.5,323.4z M247.8,322.9L247.8,322.9z M231.1,320.4c2.2,0,4.3,1.2,5.4,2.3
			c6.5,6.1-0.7,15-6.3,15c-8.1,0-9.6-10.3-6.4-10.3c2.3,0,1.4,1.8,1.4,3.2c0,2.3,2.1,4.3,4.3,4.3c4.4,0,9.9-8.5,4-11.4
			c-1.9-0.9-3-0.5-4.6,0.5c-1,0.6-2.1,0.8-2.5-0.5C226,322,229.1,320.4,231.1,320.4L231.1,320.4z M247.8,322.9l-0.5-0.2L247.8,322.9
			z M247.4,322.7L247.4,322.7z M246.7,322.2L246.7,322.2z M246.7,322.2l-0.5-0.2L246.7,322.2z M246.2,322L246.2,322z M245.6,321.6
			L245.6,321.6z M245.6,321.6L245.6,321.6z M244.9,321.1L244.9,321.1C244.9,321.2,244.8,321.1,244.9,321.1z M244.4,320.9
			L244.4,320.9z M244.4,320.9L244.4,320.9z M243.7,320.4L243.7,320.4z M243.7,320.4L243.7,320.4z M243,320L243,320z M243,320
			L243,320z M242.4,319.5L242.4,319.5z M242.4,319.5L242.4,319.5z M241.7,319L241.7,319z M241.7,319L241.7,319z M241,318.6
			L241,318.6z M241,318.6L241,318.6z M240.3,318.1L240.3,318.1z M240.3,318.1L240.3,318.1z M239.6,317.7L239.6,317.7z M386.4,317
			c0-1,1-1.6,1.6-1.6c0.9,0,2.7,2.5,3.6,3.5l2.1,2.5c0.7,0.8,5.1,5.7,5.1,6.6c0,0.8-0.8,1.6-1.6,1.6c-1.1,0-2.3-2-3-2.7l-6.7-8
			C386.9,318.3,386.4,318,386.4,317z M239.6,317.7L239.6,317.7z M238.7,317L238.7,317z M238.7,317L238.7,317z M238,316.5L238,316.5z
			 M238,316.5l-0.2-0.2L238,316.5z M237.8,316.3L237.8,316.3z M237.1,315.8L237.1,315.8z M237.1,315.8l-0.2-0.2L237.1,315.8z
			 M236.9,315.6L236.9,315.6z M236.2,315.2L236.2,315.2z M236.2,315.2L236,315L236.2,315.2z M235.9,314.9L235.9,314.9z M235.3,314.5
			L235.3,314.5z M235.3,314.5l-0.2-0.2L235.3,314.5z M235,314.2L235,314.2z M234.1,313.6L234.1,313.6z M234.1,313.6l-0.2-0.2
			L234.1,313.6z M233.9,313.3L233.9,313.3z M233,312.6L233,312.6z M233,312.6l-0.2-0.2L233,312.6z M232.7,312.4l-0.2-0.2
			L232.7,312.4z M232.5,312.2L232.5,312.2z M231.6,311.5L231.6,311.5z M231.6,311.5l-0.2-0.2L231.6,311.5z M231.4,311.3l-0.2-0.2
			L231.4,311.3z M231.1,311L231.1,311z M230,310.1L230,310.1z M230,310.1l-0.2-0.2L230,310.1z M229.8,309.9l-0.2-0.2L229.8,309.9z
			 M229.5,309.7l-0.2-0.2L229.5,309.7z M229.3,309.4L229.3,309.4z M217.2,312.2c0.5,0.8,1.6,1.8,2.3,2.5l2.7,2.3
			c0.8-0.2,5.5-3.2,5.5-0.2c0,1.5-1.8,1.9-3.9,3l-9.6,4.5c-0.9,0.4-1.6,0.8-2.5,0.5c-3-1-1-4.6-0.3-6.4l3.2-8.3
			c0.4-1.1,1-3.4,2.4-3.4c0.5,0,1.6,0.8,1.6,1.1C218.6,309.5,217.5,310.8,217.2,312.2L217.2,312.2z M227.9,308.3L227.9,308.3z
			 M227.9,308.3l-0.2-0.2L227.9,308.3z M227.7,308.1l-0.2-0.2L227.7,308.1z M227.5,307.8l-0.2-0.2L227.5,307.8z M227.3,307.6
			l-0.2-0.2L227.3,307.6z M227,307.4l-0.2-0.2L227,307.4z M226.8,307.2l-0.2-0.2L226.8,307.2z M226.6,306.9L226.6,306.9z M401,303
			c0-1.2,0.4-1.6,1.6-1.6c0.7,0,6.8,6,7.6,6.8c3.3,3.3,5.1,3.9,3.1,6c-1.9,2-1.6,2.5-7.2-0.9c-0.9-0.5-1.6-0.8-2.5-1.4
			c-0.7-0.4-2-1.3-2.8-1.3l5.3,8.7c0.4,0.7,0.8,1.1,0.4,2c-0.4,0.8-2.1,2.6-3.1,2.5c-0.9-0.1-4.2-3.8-6-5.2c-1.4-1.2-3-3.2-4.3-4.2
			c-1.9-1.5-1.6-3.3,0.3-3.3c1.1,0,8.6,8.4,9.8,8.7c-1.1-1.6-7.1-11.2-7.1-11.7c0-1.4,1.4-2.1,1.6-2.1c1.9,0,10.4,6,12.3,6.4
			c-1.2-1.8-3.1-3-4.6-4.5C404.8,307.2,401,303.7,401,303L401,303z M221.5,301.9L221.5,301.9z M221.5,301.9l-0.2-0.2L221.5,301.9z
			 M221.3,301.7l-0.2-0.2L221.3,301.7z M221.1,301.4L221.1,301.4z M219,299.1L219,299.1z M219,299.1l-0.2-0.2L219,299.1z
			 M218.8,298.9L218.8,298.9z M217.4,297.3L217.4,297.3C217.5,297.4,217.4,297.3,217.4,297.3z M204.6,304.6c6.2,0,1.8,2,6.9-1.8
			c2.4-1.8,4.1,0.9,1.9,2.6c-1.7,1.3-10.7,9-11.8,9c-0.9,0-1.6-1.1-1.5-1.8c0.1-0.9,1-1.4,1.7-2l4-3.3c-2-0.2-4.7-0.4-6.7-0.7
			c-2.3-0.2-5.5,0.3-5.5-2.1c0-2.5,5.6-0.5,8-0.5l2.4-8.6c1.3-4,3.5-1.5,3.5-0.1L204.6,304.6L204.6,304.6z M413.2,289.8
			c-1.4,0-1.5-1.2-1.1-2l2.6-4.5c3.4-6.2,2.4-6,9.8-1.7l6.6,3.9c1.4,1.2,0.1,2.6-1,4.5c-0.6,1.1-3.4,6.6-4.4,6.6
			c-0.9,0-0.7-0.2-1.4-0.7c0.1-1.2,1.3-3,2-4.2c0.4-0.7,0.8-1.4,1.2-2c0.4-0.7,0.9-1.3,0.9-2.3c-1.4-0.3-2.7-1.7-3.9-1.8
			c-0.2,0.8-1.5,2.9-2,3.7c-0.5,0.8-1.6,3.4-2.6,3.4c-0.6,0-1.1-0.5-1.1-1.4c0-0.6,3.7-6.2,3.9-7.1c-1-0.5-3.5-2.2-4.6-2.3
			C417.7,282.9,414.3,289.8,413.2,289.8L413.2,289.8z M195.7,280.6c0-1.1,1.5-1.7,2.5-0.2l5.3,9.1c0,1.3-1.3,1.8-2.8,2.7
			c-1.4,0.9-9.6,6-10.5,6c-1.5,0-2.2-2.2-3.6-4.4c-2.4-3.8-3.3-4.3-2.8-6.4c1.9-0.5,1.5-0.4,3.8,3.3c0.8,1.4,1.7,2.7,2.4,4
			c0.7-0.2,3.3-1.8,3.7-2.3c-0.2-0.8-1.4-2.7-2-3.5c-0.4-0.6-1.9-3-1.9-3.6c0-0.4,1.1-2.5,2.6,0.1c0.7,1.1,3,5.2,3.6,5.6
			c1.3-0.3,3-2,4.3-2.3c-0.7-1.4-1.5-2.7-2.4-4C197.4,284.1,195.7,281.5,195.7,280.6L195.7,280.6z M186.8,271.5
			c0,2.8,0.7,4.1,0.7,6.2c0,5.2-6.9,6.9-9.6,0c-1.3-3.5-0.1-6.8,2-6.8c1.3,0,1.2,0.6,1.6,1.4c-0.6,1.1-2,2.3-1.8,3.8
			c0.5,3.8,5.2,5.1,4.5,0.1c-0.4-2.7-1.3-6,0.6-8.1c2.1-2.2,5.5-2.1,8,1c3.4,4.3,1.8,10-1.5,10c-0.5,0-1.1-0.6-1.1-1.1
			c0-1.8,2.1-1.8,2.1-4.3C192.3,269.2,186.8,268.2,186.8,271.5L186.8,271.5z M420.7,276.1c-2.6,0,0.4-5.2,1.4-7.7
			c2.2-5.4,1-5.5,11-1c6.4,2.8,7.1,1.8,5.1,6.2l-2.3,5.5c-0.6,1.3-0.7,2.4-2,2.4c-2.2,0-0.1-3.6,0.2-4.4c0.5-1.2,1.8-3.9,1.9-5
			c-0.8-0.2-3.1-1.2-3.9-1.6c-1.2,2.2-2.4,6.6-3.7,7.8c-3-0.2-1-2.7,0.6-6.7c0.3-0.8,0.6-1.2,0.8-2c-0.8-0.4-4-1.8-4.8-1.8
			c-0.2,0.7-0.6,1.6-0.9,2.3C423.2,272,422.2,276.1,420.7,276.1L420.7,276.1z M427.3,251.6c0-3.1,4.7-1.1,8.3,0l7,2
			c2.8,0.9,0.9,3.9-0.7,9.7c-0.9,3.3-2.7,1.6-2.7,0.5c0-1,0.7-2.7,0.9-3.7c0.3-1.1,0.8-2.6,0.9-3.7c-1.7,0-2.7-0.9-4.3-0.9
			c-0.1,1-0.7,2.5-1,3.6c-0.4,1.5-0.3,2.2-1.6,3c-2.2-0.5-1.3-1.6-0.6-4.3c0.3-1,0.6-2.1,0.9-3.2c-1.2,0-2.8-0.7-4-1
			C429.2,253.3,427.3,252.9,427.3,251.6L427.3,251.6z M191.4,242L191.4,242C191.4,242,191.3,242,191.4,242z M190.7,237.6
			L190.7,237.6C190.7,237.7,190.7,237.7,190.7,237.6z M430.1,237c0-2.2,2.7-1.5,3.6-1.3c1.5,0.2,3.1,0.5,4.7,0.7
			c2.6,0.4,8.6,0.8,8.6,2.4c0,2.1-0.4,3.8-0.7,5.7c-0.4,2.5-0.1,4.6-2,4.6c-2.2,0,0-5.1,0-8.5c-1.1-0.1-2.3-0.5-3.6-0.6
			c-0.9-0.1-0.8-0.1-1,0.8c-0.2,1.2-0.5,4.4-0.9,5.3c-0.7,1.6-2.3,0.3-2.3,0c0-2.2,0.9-4.6,0.9-6.6c-1.2,0-2.9-0.4-4.2-0.6
			C431.6,238.6,430.1,238.7,430.1,237L430.1,237z M190.4,236L190.4,236C190.5,236.1,190.4,236.1,190.4,236z M190.2,234.2
			c-0.1-0.4,0.3-0.8,0.1-0.1C190.4,234.1,190.4,235,190.2,234.2z M190,231.9c-0.1-0.4,0.3-0.8,0.1-0.1
			C190.1,231.8,190.1,232.7,190,231.9z M189.8,228.5c0.3,0.4,0.3-0.5,0.2,0.5c0,0.5,0,0.2-0.2,0.5V228.5z M166,228.7
			c0-0.6,0-0.8,0.3-1.3c0.8-1.1,3.4-0.3,5.4-0.1l9.1,1.2c3.7,0.5,4.3,3.1,0.7,4.5l-6.5,2.6c-1.1,0.5-2.3,1-3.5,1.3
			c0.5,0.7,1,0.5,3.3,0.8c1.4,0.2,2.4,0.4,3.8,0.6c1.2,0.2,2.5,0.3,3.8,0.6c2.4,0.4,2.6,1,2.6,2.4c0,1.6-1.8,1.9-3.1,2.4l-8.2,3
			c-1,0.4-3.2,1.4-4.3,1.4c-0.6,0-1.4-1-1.4-1.6c0-1.6,6.1-3.2,8.4-4c1-0.3,2.3-1,3.3-1.1c-0.5-0.7-1.2-0.5-3.5-0.8
			c-1.4-0.2-2.5-0.3-3.8-0.6c-1.9-0.3-5.8-0.1-5.3-3.1c0.3-1.6,3.2-2.4,5.4-3.3l6.1-2.5c-1.9-0.4-4.6-0.5-6.8-0.8
			C169.6,230.2,166,230.3,166,228.7L166,228.7z M440.6,232.4c-2.7,0-5.1-0.1-7.3-2.1c-3.7-3.5-4.2-14.4,6.8-14.4
			c6.9,0,9.8,6.1,7.8,11.5c-0.6,1.6-1.3,2.6-2.6,3.5C444,231.9,442.4,232.4,440.6,232.4L440.6,232.4z M307.3,108.4
			c14.9,0,33,3.6,46.1,9.9c0.9,0.4,1.6,0.7,2.4,1.1c3.9,2,7.7,3.9,11.3,6.3c1.5,1,2.8,1.7,4.3,2.8c8.5,5.9,11.6,9.3,18.7,16.3
			l4.9,5.6c0.6,0.7,1,1.2,1.5,1.9c5.1,6.9,6.7,9.4,11,17.1c2.7,4.9,6.4,14.5,8,20.1c2.5,8.8,3.6,14.6,4.3,23.9
			c0.2,2,0.1,4.7,0.2,6.9c0.3,3.8-0.1,9-0.5,13c-1.4,13.1-5.3,26.6-11,37.9l-2.4,4.6c-3,5.9-7.3,11.6-11.3,16.8l-6.7,7.5
			c-10.9,10.9-22.6,19.2-37.5,25.4c-1.7,0.7-3.3,1.4-5.1,2l-5.3,1.8c-8,2.7-21.1,4.8-30.4,4.8c-11.8,0-18.7-0.5-29.7-3.2
			c-8.6-2.2-17.8-5.6-25.4-9.6c-4.1-2.2-9.6-5.5-13.1-8.2l-6.8-5.3c-0.4-0.4-0.6-0.4-1-0.8c-1.9-1.7-7.5-6.7-9-8.6
			c-0.6-0.7-1.1-1.1-1.7-1.8l-3.2-3.9c-0.6-0.7-1-1.1-1.5-1.9c-0.6-0.7-1-1.2-1.5-1.9l-5.6-8.3c-0.9-1.5-1.9-2.9-2.6-4.5
			c-1.8-3.5-3-5.6-4.7-9.5c-4.5-10-8.6-25.3-9.1-36.4l-0.2-6.9c0-3.3-0.1-6.4,0.2-9.8c0.2-2.4,0.2-4.2,0.6-6.5
			c1.4-10.3,4.7-23.4,9.4-32.7c1.9-3.7,2.5-5.3,4.7-9.2c2.8-4.9,5.2-8.2,8.4-12.6c1-1.3,2-2.7,3.2-3.9c11.9-13.7,23.5-22.5,40-30.2
			C273.1,112.8,289.7,108.4,307.3,108.4L307.3,108.4z M189.8,213.2h0.2v1.1h-0.2V213.2z M190,210.4c0.3,0.4,0.3-0.5,0.2,0.5
			c0,0.5,0,0.2-0.2,0.5V210.4z M179.5,212.5c0,2.7-0.2,4.4-0.2,7.1c0.7,0.2,1.7,0.6,2.3,0.9c1.8,0.9,1.8,0.6,1.8,2.1
			c0,0.7-1,1.4-1.7,1.3l-11.6-5.1c-1.8-0.8-3.8-1.2-3.8-3.3c0-1.7,1.8-2.3,3.2-2.8c2.5-0.8,12.2-4.5,13.3-4.5c0.4,0,2.3,1.7,0.6,2.9
			C182.4,211.7,180.5,212,179.5,212.5z M190.2,208.6c-0.1-0.4,0.3-0.8,0.1-0.1C190.4,208.5,190.4,209.4,190.2,208.6z M190.4,206.5
			c0-0.6,0.4,0,0.1,0C190.6,206.5,190.4,207.2,190.4,206.5z M190.7,204.9c-0.1-0.4,0.3-0.8,0.1-0.1
			C190.8,204.8,190.8,205.7,190.7,204.9z M190.9,203.3c0-0.6,0.4,0,0.1,0C191,203.3,190.9,204,190.9,203.3z M191.1,201.7
			C191.1,201.1,191.5,201.7,191.1,201.7C191.3,201.7,191.1,202.4,191.1,201.7z M191.4,200.6c-0.1-0.4,0.3-0.8,0.1-0.1
			C191.5,200.5,191.5,201.4,191.4,200.6z M432.6,205.4c0,5.2,5.3,3.7,5.3,5.9c0,2.6-7.8,2.1-7.8-6.6c0-4.4,4.5-7.3,8-7.3h2.1
			c3.6,0,6.4,2.8,7.2,5.9c0.5,2,0.3,3.8-0.5,5.4c-1.9,3.9-5.1,4-5.1,1.5c0-1.4,3.2-1.3,3.2-5.3c0-3-3-4.7-6.3-4.2
			c-2,0.3-2.6,0.3-4.1,1.2C433.5,202.5,432.6,203.9,432.6,205.4L432.6,205.4z M191.6,199.2C191.6,198.6,192,199.2,191.6,199.2
			C191.7,199.2,191.6,199.9,191.6,199.2z M191.8,198.1C191.8,197.5,192.2,198.1,191.8,198.1C192,198.1,191.8,198.7,191.8,198.1z
			 M192,196.9C192,196.3,192.4,196.9,192,196.9C192.2,196.9,192,197.6,192,196.9z M192.3,195.8C192.3,195.2,192.7,195.8,192.3,195.8
			C192.4,195.8,192.3,196.4,192.3,195.8z M192.5,194.9C192.5,194.3,192.9,194.9,192.5,194.9C192.6,194.9,192.5,195.5,192.5,194.9z
			 M192.7,193.7L192.7,193.7C192.8,193.8,192.7,193.8,192.7,193.7z M170.6,199.9c5.3,1.2,4.4,0.8,4.7-1c0.4-2.2,0.4-5.2,1.9-5.2
			c2.3,0,0.6,4.2,0.3,6.6c-0.2,1.3,0.5,1,4.7,1.6c3.9,0.6,2.4,3.1,1.2,3.4c-0.9,0.2-10.1-1.6-11.7-1.8c-5-0.8-4.3-0.4-3.2-7.2
			c0.8-4.6,0.5-5.2,2.9-4.7C172.1,194.5,170.8,196.5,170.6,199.9z M193,192.8C193,192.2,193.4,192.8,193,192.8
			C193.1,192.8,193,193.5,193,192.8z M193.2,191.9L193.2,191.9C193.3,192,193.2,191.9,193.2,191.9z M193.4,191L193.4,191
			C193.5,191.1,193.4,191,193.4,191z M193.6,190.3C193.6,189.7,194,190.3,193.6,190.3C193.8,190.3,193.6,190.9,193.6,190.3z
			 M193.9,189.4c0-0.6,0.4,0,0.1,0C194,189.4,193.9,190,193.9,189.4z M194.1,188.7C194.1,188.1,194.5,188.7,194.1,188.7
			C194.2,188.7,194.1,189.3,194.1,188.7z M194.3,187.8C194.3,187.2,194.7,187.8,194.3,187.8C194.5,187.8,194.3,188.4,194.3,187.8z
			 M194.6,187.1C194.6,186.5,195,187.1,194.6,187.1C194.7,187.1,194.6,187.7,194.6,187.1z M194.8,186.2L194.8,186.2
			C194.9,186.3,194.8,186.2,194.8,186.2z M195,185.5C195,184.9,195.4,185.5,195,185.5C195.2,185.5,195,186.1,195,185.5z
			 M195.2,184.8c0-0.6,0.4,0,0.1,0C195.4,184.8,195.2,185.5,195.2,184.8z M195.5,184.1C195.5,183.5,195.9,184.1,195.5,184.1
			C195.6,184.1,195.5,184.8,195.5,184.1z M195.7,183.4c0-0.6,0.4,0,0.1,0C195.8,183.4,195.7,184.1,195.7,183.4z M195.9,182.8
			c0-0.6,0.4,0,0.1,0C196.1,182.8,195.9,183.4,195.9,182.8z M196.2,182.1c0-0.6,0.4,0,0.1,0C196.3,182.1,196.2,182.7,196.2,182.1z
			 M196.4,181.4L196.4,181.4C196.5,181.5,196.4,181.4,196.4,181.4z M196.6,180.9C196.6,180.3,197,180.9,196.6,180.9
			C196.8,180.9,196.6,181.6,196.6,180.9z M196.8,180.2C196.8,179.6,197.2,180.2,196.8,180.2C197,180.2,196.8,180.9,196.8,180.2z
			 M197.3,179.3l-0.1,0.5L197.3,179.3z M197.3,179.3l0.1-0.5L197.3,179.3z M197.5,178.4C197.5,177.8,197.9,178.4,197.5,178.4
			C197.7,178.4,197.5,179.1,197.5,178.4z M197.8,177.7L197.8,177.7C197.8,177.8,197.7,177.8,197.8,177.7z M198.2,177l-0.1,0.5
			L198.2,177z M198.2,177l0.1-0.5L198.2,177z M174,184.1c1.4,0.1,2.9,1,4.3,1.1c0.1-1.2,0.6-2.4,1-3.6c0.3-1,0.5-3,1.8-3
			c2.7,0-0.2,4.8-0.5,7.3c1.3,0.6,5.6,1.4,6.4,2.1s0.8,1.9-0.1,2.5c-1.1,0.8-7.6-1.6-9.7-2.2c-7.7-2.2-6.6-1.1-4.7-8
			c0.2-0.8,0.5-1.7,0.8-2.7c0.4-1.2,0.4-1.5,1.2-2.2c1.1,0.2,0.9,0.4,1.6,0.9C175.9,178.3,174.1,182.2,174,184.1L174,184.1z
			 M198.7,175.9l-0.1,0.5L198.7,175.9z M198.7,175.9l0.1-0.5L198.7,175.9z M199.1,174.8l-0.1,0.5L199.1,174.8z M199.4,174.3
			l-0.2,0.5L199.4,174.3z M199.4,174.3l0.1-0.5L199.4,174.3z M199.6,173.4L199.6,173.4C199.7,173.4,199.6,173.4,199.6,173.4z
			 M200,172.7l-0.1,0.5L200,172.7z M200.3,172.2l-0.2,0.5L200.3,172.2z M200.5,171.8l-0.2,0.5L200.5,171.8z M200.7,171.3l-0.2,0.5
			L200.7,171.3z M200.7,171.3l0.1-0.5L200.7,171.3z M201,170.4L201,170.4C201,170.5,200.9,170.4,201,170.4z M201.4,169.7l-0.1,0.5
			L201.4,169.7z M201.6,169.3l-0.2,0.5L201.6,169.3z M201.9,168.8l-0.2,0.5L201.9,168.8z M202.1,168.4l-0.2,0.5L202.1,168.4z
			 M202.3,167.9l-0.2,0.5L202.3,167.9z M190.7,177c-1.3,0-9.9-3.9-11.8-4.7c-1.1-0.5-3.1-1.1-3.1-2.4c0-0.7,0.8-1.6,1.4-1.6
			c0.8,0,7.9,3.1,9.5,3.8c0.9,0.4,2.3,1.1,3.4,1.2c0.9-1.6,1.8-4.5,2.7-6.3c0.4-0.9,0.7-1,1.7-1.3c1.7,1.5,1,1.5-1.1,6.7
			C192.9,173.3,191.5,177,190.7,177L190.7,177z M202.6,167.4l-0.2,0.5L202.6,167.4z M202.8,167l-0.2,0.5L202.8,167z M202.8,167
			L202.8,167z M203.3,166.3L203.3,166.3z M203.5,165.8l-0.2,0.5L203.5,165.8z M203.7,165.4l-0.2,0.5L203.7,165.4z M203.9,164.9
			l-0.2,0.5L203.9,164.9z M204.2,164.5L204,165L204.2,164.5z M204.4,164l-0.2,0.5L204.4,164z M204.6,163.8l-0.2,0.2L204.6,163.8z
			 M418.9,167c0-1.4,5.4-3.2,7-3.8c1.3-0.5,7-3.1,7.9-3.1c1.2,0,2.1,3.1,2.1,3.5c0.1,1.4-4.9,4.5-5.9,5.3l-3.4,2.6l8.8-1.1
			c1.8-0.3,2.9-0.8,3.7,0.7c0.5,0.9,1.4,2.8,0.6,3.6c-0.5,0.5-5.9,2.6-7,3.1c-1.4,0.6-6.4,2.8-7.4,2.8s-2.1-1.8-0.3-2.8
			c1.7-0.9,7.8-3.1,10.2-4.2c0.5-0.2,0.5-0.3,0.8-0.5c-2.5,0-12.4,2.4-13.8,1.4c-2.9-2,2.2-4.8,4.4-6.5c0.9-0.7,5.3-3.7,5.7-4.3
			c-0.7,0.1-2.7,1-3.5,1.3c-1.3,0.6-7.9,3.7-8.9,3.4C419.4,168.3,418.9,167.6,418.9,167L418.9,167z M204.9,163.3l-0.2,0.5
			L204.9,163.3z M205.1,162.9l-0.2,0.5L205.1,162.9z M205.3,162.4l-0.2,0.5L205.3,162.4z M205.3,162.4c0.2-0.7,0-0.3,0.5-0.7
			C205.6,162.4,205.8,162.1,205.3,162.4z M206,161.3l-0.2,0.4L206,161.3z M206,161.3c0.2-0.7,0-0.3,0.5-0.7
			C206.3,161.2,206.5,160.9,206,161.3z M206.7,160.1l-0.2,0.5L206.7,160.1z M206.7,160.1c0.2-0.7,0-0.3,0.5-0.7
			C207,160.1,207.2,159.8,206.7,160.1z M207.4,159l-0.2,0.5L207.4,159z M207.6,158.7l-0.2,0.2L207.6,158.7z M207.8,158.3l-0.2,0.5
			L207.8,158.3z M207.8,158.3c0.2-0.7,0-0.3,0.5-0.7C208.1,158.3,208.3,158,207.8,158.3z M208.3,157.6c0.2-0.7,0-0.3,0.5-0.7
			C208.6,157.6,208.8,157.3,208.3,157.6z M208.7,156.9c0.2-0.7,0-0.3,0.5-0.7C209,156.9,209.2,156.6,208.7,156.9z M209.2,156.2
			c0.2-0.7,0-0.3,0.5-0.7C209.5,156.2,209.7,155.9,209.2,156.2z M209.7,155.5c0.2-0.7,0-0.3,0.5-0.7
			C210,155.5,210.1,155.2,209.7,155.5z M210.1,154.9c0.2-0.7,0-0.3,0.5-0.7C210.4,154.8,210.6,154.5,210.1,154.9z M210.6,154.2
			c0.2-0.7,0-0.3,0.5-0.7C210.9,154.1,211.1,153.8,210.6,154.2z M211,153.5c0.2-0.7,0-0.3,0.5-0.7
			C211.3,153.5,211.5,153.1,211,153.5z M211.7,152.6l-0.2,0.2L211.7,152.6z M211.7,152.6c0.2-0.7,0-0.3,0.5-0.7
			C212,152.5,212.2,152.2,211.7,152.6z M212.2,151.9c0.2-0.8,0.1-0.5,0.7-0.9C212.6,151.8,212.8,151.5,212.2,151.9z M212.9,151
			c0.2-0.8,0.1-0.5,0.7-0.9C213.3,150.9,213.5,150.6,212.9,151z M418.2,163.3c-4,0-0.4-4,0.7-5.3c-1.1-2.1-2.5-4.1-3.7-6.2
			c-3.4,0.8-5.3,1.5-5.3-1.1c0-1.5,5.7-2,7.5-2.3c1.9-0.3,7.4-1.4,8.9-1.4c1,0,1.7,0.7,2,1.5c0.4,1,0.1,1.7-0.5,2.6l-6.3,8.4
			C421.1,160.2,419,163.3,418.2,163.3L418.2,163.3z M213.5,150.1c0.2-0.8,0.1-0.5,0.7-0.9C214,149.9,214.1,149.7,213.5,150.1z
			 M214.5,148.9l-0.2,0.2L214.5,148.9z M214.5,148.9c0.2-0.8,0.1-0.5,0.7-0.9C214.9,148.8,215.1,148.5,214.5,148.9z M215.1,148
			c0.2-0.8,0.3-0.8,0.9-1.1C215.9,147.6,215.7,147.6,215.1,148z M186.1,154.4c0.7,0.4,1.2,0.7,1.9,1.1c0.7,0.4,1.1,0.8,2,1
			c0.1-0.6,0.6-1.3,0.9-1.8c0.4-0.7,2.8-5.3,3.4-5.3c2.2,0,1.3,1.9,0.6,2.9c-0.4,0.6-0.6,1.1-1,1.7l-1.9,3.6
			c0.5,0.6,3.5,2.3,4.1,2.5c0.6-0.5,0.9-1.1,1.3-1.9l2.4-4.2c1.7-3.2,2.9-1,2.9-0.5c0,0.9-1.2,2.5-1.6,3.2l-3.5,6.1
			c-1.5,2-2.6,0.4-6.1-1.5l-6.1-3.5c-4.1-2.3-3-2.3,1.4-9.9c0.3-0.6,0.5-0.9,0.8-1.5c1.3-2.1,2.5-0.6,2.5,0c0,1-2.3,4.5-3.1,5.9
			C186.7,153.1,186.3,153.5,186.1,154.4L186.1,154.4z M216.1,146.9c0.2-0.7,0.6-1,1.1-1.4C217,146.2,216.6,146.5,216.1,146.9z
			 M217.2,145.5c0.2-0.8,0.8-1.2,1.4-1.6C218.4,144.7,217.8,145.1,217.2,145.5z M218.6,143.9c0.2-0.9,1.1-1.6,1.8-2.1
			C220.2,142.7,219.3,143.4,218.6,143.9z M199.6,135.7c-4,0-4.9,5.5-2.1,5.5c2.4,0,5-4.6,8.7-4.6c2.5,0,7.5,3.4,2.3,10
			c-2.6,3.4-8,3.3-8,0.5c0-2.3,3.7,0,5.5-1.3c3.6-2.6,2.1-8.4-2.8-4.6c-2.9,2.3-5.3,4.6-8.5,2.1c-3.9-3.1,0.7-10.5,5.3-10.5
			c2.9,0,3.1,2.7,1.5,3.1C200.9,136,200.6,135.7,199.6,135.7L199.6,135.7z M410.2,135.2c1.1,2.2,7.3,7.8,3.7,7.8
			c-1.1,0-4.4-5.3-5.7-6.2c-1.4,0.9-2.5,2-3.9,3c0.8,1.3,1.8,2.4,2.8,3.6c0.8,0.9,4.8,5.1,1.3,5.1c-0.7,0-0.9-0.6-1.2-1l-3.4-4.2
			c-2.3-2.9-4-3.9-1.7-5.7c1.7-1.4,10.4-8.5,11.1-8.5c1.3,0,5.1,5.5,6.1,6.7c0.7,0.8,1.4,1.6,1.7,2.7c-1.7,2-2.4,0.1-4-1.8l-3.4-4.2
			C412.9,132.9,410.6,134.6,410.2,135.2L410.2,135.2z M407.7,124.2c0,2-1.1,3.5-2.6,4.3c-2.4,1.2-3.2-0.2-5-0.6
			c0.1,1,0.2,0.6,0.2,2.3c0,1.4-0.7,5.9-2.3,5.9c-3.4,0-0.5-4.7-0.5-9.1c0-1.3-1.3-2.4-2.1-3c-1.8,1.2-4,4.4-5.1,4.7
			c-0.6,0.1-3.3-0.8-0.7-3.2c0.7-0.7,0.9-1.1,1.6-1.8c1.2-1.2,2.3-2.2,3.4-3.4c0.6-0.7,0.8-1.1,1.5-1.7c3.6-3.5,3.2-3.8,5.6-1.8
			c1.1,0.9,2.3,2.2,3.3,3.3C406.2,121.1,407.7,122.1,407.7,124.2L407.7,124.2z M218.1,116.7c0,2.5,0.3,3.3,2.1,5.4
			c2.4,2.9,6.3,3.3,8.2,0.1c0.3-0.6,0.6-1.6,0.6-2.3c0,0-0.2-1.1-0.3-1.3c-0.2-0.6-0.3-0.6-0.3-1.3c0-1.3,3.4-3.1,3.4,3.2
			c0,2.9-3.4,5.7-5.7,6.4c-1.6,0.5-3.3,0.4-4.8-0.3c-4.5-1.9-9.6-9-3.4-14.8c3-2.8,8.9-2.4,8.9,0.6c0,2.2-3.5,0.2-4.8,0.2
			c-1,0-2.1,0.7-2.7,1.2C218.7,114.6,218.1,115.5,218.1,116.7L218.1,116.7z M379.6,114.6v1.4c0,1.3,2.5,5.5,7.2,2.6
			c0.6-0.3,0.7-0.5,1.2-0.4c2.4,0.5,1,4.2-3.8,4.2c-3.3,0-7.5-3.5-7.5-6.6v-1.6c0-3.8,4.3-8.9,8-8.9h1.6c3.1,0,7.1,3.7,7.1,6.9v1.1
			c0,1.2-0.8,2-1.8,2.3c-2.4-1.3-0.4-2.3-1.3-4.8c-0.6-1.7-2.3-2.7-4.4-2.7c-1.8,0-3.1,1.3-4.1,2.3
			C380.9,111.2,379.6,113.1,379.6,114.6L379.6,114.6z M240.8,107.5c2.2,0,7.5,1.7,7.5,3.9c0,0.6-1,1.4-1.6,1.4
			c-1.9,0-4.9-3.2-8.2-3.2c-0.9,0-1.8,0.8-2.5,1.1c0.6,2.6,5.1,6.1,2.2,7.5c-1.2,0.6-2-0.7-2.7-1.8c-0.4-0.6-0.7-1-1.1-1.7
			c-0.7-1.1-1.3-2.1-1.9-3.1c-0.6-0.9-3.7-5.8-3.8-6.5c-0.3-1.5,3.7-3.4,5.6-4.5c2-1.2,4.9-2.7,7.2-0.3
			C244.4,103.6,241.7,106,240.8,107.5L240.8,107.5z M220.4,141.8c0.3-1.1,7.9-8.3,9.6-9.6c6.7-5.4,9-7.5,16.7-12.1
			c1.7-1.1,7.4-4.3,9.3-5.1c1.2-0.5,2-1.1,3.2-1.6c24.2-10.4,47.3-13.1,73.7-7.7c6.2,1.3,9.3,2.4,14.9,4.3
			c3.7,1.2,10.3,4.1,13.5,5.7l6.2,3.4c7.8,4.7,11.6,7.6,18.2,13.1l10.9,10.9c0.5,0.5,0.5,0.7,1,1.3l5.4,6.9
			c25.4,33.8,30.8,83.8,10.2,123.4l-1.7,3.1c-1.7,3.2-5.4,9.2-7.4,11.8l-7.4,9.5c-5.4,6.4-15.1,14.6-21.7,19.3
			c-4.6,3.3-13.1,8.1-18.5,10.5c-12.8,5.7-24.3,8.6-38.2,10c-1.5,0.2-3,0.3-4.5,0.3c-3,0-5.7,0.5-9.2,0.1c-1.5-0.2-3.1,0.1-4.6-0.2
			c-1-0.2-8-0.6-8.8-1c2.6,0,8.7,0.9,13.3,0.9c9,0,13.8-0.1,22.5-1.5c5.2-0.9,11-2.2,15.5-3.7c10.6-3.6,16.4-6.1,26.3-11.9
			l16.5-12.3c1.9-1.5,5.6-5.2,7.4-7c0.5-0.5,0.6-0.7,1-1.3c0.4-0.5,0.8-0.8,1.3-1.3c3.7-3.8,11.6-14.7,14.1-19.3
			c4.9-8.9,6.6-11.8,10.4-23.2c2.6-7.8,4-15.3,5-23.6c0.2-1.6,0.2-2.9,0.4-4.4c1.4-10.9-0.8-28.6-3.7-38.7c-0.3-1.2-0.8-2.6-1.1-3.7
			l-3.8-10.6c-1.6-3.7-2.6-6.1-4.5-9.7l-1.7-3.1c-3.6-6.1-9.1-14.5-13.9-19.7l-5.8-6.1c-1.5-1.2-3.9-3.8-6.3-5.8
			c-9.4-7.6-17.7-13.6-29.3-18.5c-12.9-5.4-20.4-7.3-33.8-9.2c-3.9-0.5-14.2-1-18.2-0.6c-0.7,0.1-1.5,0-2.3,0
			c-1.2,0-1.3,0.2-2.3,0.2c-6,0.3-11.5,1.4-16.7,2.5c-16.6,3.5-33.7,12.1-47,22.5c-3.1,2.5-6.1,5.1-9,8
			C224.1,138.3,221.6,141,220.4,141.8L220.4,141.8z M362.2,98.8c1.8,1,7.3,3.1,7.3,4.1c0,0.6-0.1,0.6-0.2,1.1
			c-1.6,0.4-0.9,0.3-4.6-1.4c-1.1-0.5-2.5-1.6-3.9-1.6c-0.3,1.4-1.7,3.3-1.8,4.6c0.8,0.2,1.4,0.6,2.1,0.9c1.1,0.5,6.2,2.5,6.2,3.4
			c0,2.8-3.4,0.7-6.2-0.7c-7.7-3.9-6.5-1.5-2.3-11c3.3-7.4,2.9-7.5,6.6-5.6c1,0.5,1.8,0.8,2.8,1.3c1.5,0.6,4.2,1.8,5,3
			c-0.5,2.2-1.7,1.3-3.1,0.6c-1.2-0.6-5.4-2.6-6.3-2.7C363.4,96.3,362.3,97.4,362.2,98.8L362.2,98.8z M248.8,95.6
			c0.7,1.3,1.2,2.6,1.8,3.9c0.8-0.2,1.2-0.4,1.8-0.7c1.1-0.5,4.9-2.3,5.7-2.3c0.9,0,1.3,1.2,0.7,1.8c-0.5,0.5-6.2,2.8-7.4,3.4
			c0.8,1.4,1.3,3.2,2.1,4.6l4.2-1.8c0.9-0.4,3.3-1.7,4.3-1.7s1.8,1.6,0.2,2.5l-9.8,4.2c-1.6,0-2.8-4.5-3.9-6.6
			c-0.4-0.8-3.2-7.1-3.2-7.5c0-1.4,3-2.2,4.9-3.1c3-1.4,6.8-3.8,6.8-1c0,0.9-1,1.1-1.6,1.4c-0.7,0.3-1.4,0.6-2.2,1
			C251.7,94.4,250.1,94.9,248.8,95.6L248.8,95.6z M261.8,88.5c0-1.3,2.6-1.7,3.9-2.1c3-0.9,6.2-2.2,8.4,0.5c0.9,1.1,1.2,2.4,1.2,4.1
			c0,3.5-4.8,4.8-7.8,5.5c0,1.6,3,7.3-0.2,7.3c-1.7,0-2.6-4.8-3.2-7.1C263.6,95.3,261.8,89.6,261.8,88.5L261.8,88.5z M342.5,96.1
			c0,3.9,2.1,4.8,5.3,4.8c2.2,0,2.8-2.7,4.1-2.7c4.2,0-1.7,9.7-10.2,3.3c-4.8-3.6-1.8-15.2,5.4-15.2h1.1c3.3,0,7.1,2.6,7.1,6.9
			c0,0.5-0.9,1.4-1.1,1.4c-3.1,0-0.4-5.7-6.4-5.7C344.4,88.8,342.5,93.7,342.5,96.1L342.5,96.1z M332.9,100c-3.1,0-2-2.1-1.3-5.6
			l1.7-8.3c0.3-1.3,0.4-3.2,1.8-3.2c3,0,1.3,4.4,0.5,8.3c-0.3,1.6-0.6,3.1-1,4.7C334.4,97,334.2,100,332.9,100L332.9,100z
			 M282.6,84.9c0,1.8,0.5,2.6,0.5,4.3c0.5-0.2,4.1-0.7,4.9-0.8c1.9-0.3,4.1-1.1,4.1,0.8c0,1.4-2.4,1.4-3.7,1.6
			c-1.3,0.2-3.4,0.7-4.8,0.7c0.1,1.1,0.4,2.3,0.6,3.5c0.2,1.7-0.2,1.5,2.5,1.1c2.1-0.3,5.6-1.1,7.3-0.8c0.5,2.2,0.6,2.2-5,3
			c-8.7,1.2-6.9,3.5-9.1-10c-0.8-4.8-1.4-5.4,2.1-6l7.1-1.1c2.1-0.3,2.6-0.3,2.6,1.3c0,1.2-2.7,1.3-4,1.5
			C285.9,84.4,284.1,84.8,282.6,84.9L282.6,84.9z M299.5,84.4c0,3.5,10.3,1.1,10.3,7.5c0,5.4-7.6,6.8-11.3,4.3
			c-1.6-1.1-3.8-4.9-0.3-4.9c1.3,0,1.4,3.7,3.9,3.7h1.4c3,0,4.2-3.1,2.1-4.4c-1.7-1-4.7-1-6.8-2.1c-4.3-2.3-2.4-8.6,4.3-8.6
			c5.6,0,7.4,5.5,4.1,5.5c-1.3,0-1.5-3-3.7-3C302.2,82.4,299.5,82.1,299.5,84.4L299.5,84.4z M159.6,217.3c0,10.2-0.1,13.5,1.6,24
			c0.8,4.8,5.2,23.6,7,29.1c2.4,7.3,5.7,15.4,9.6,22c5,8.4,10.4,16.5,16.6,24.1c5.3,6.5,7.8,8.9,14.2,14.9c0.5,0.5,0.7,0.5,1.3,1
			c0.8,0.8,1.6,1.4,2.5,2.1l5.1,3.9c8.6,6.4,12.2,8.8,21.8,14.3c4.1,2.4,14.4,6.6,19.2,8c6,1.8,22.9,6,29.1,7
			c13.7,2.3,26.9,2.3,40.6,0c5-0.8,23.6-5.2,29.1-7c14.3-4.8,23.5-9.8,35.5-18.5c5.4-3.9,9.1-6.5,14-10.7
			c3.8-3.2,11.5-11.3,14.3-14.9l7.7-10.4c5-6.7,6.6-9.8,10.5-16.5c1.7-3,4.2-8.9,5.6-12.4c0.9-2.2,1.7-4.5,2.4-6.7
			c1.8-6,6-22.9,7-29.1c2.3-13.7,2.3-26.8,0.1-40.4c-0.8-4.9-5.2-23.6-7-29.1c-0.8-2.3-1.5-4.5-2.3-6.6
			c-4.7-11.7-8.7-18.8-16.1-29.1c-0.7-0.9-1.2-1.6-1.8-2.5l-5.9-7.8c-0.7-0.8-1.2-1.6-1.9-2.4c-3.2-3.4-7.6-8.7-11.2-11.5
			l-15.4-11.9c-3.5-2.7-7-4.9-10.8-7.2c-5.3-3.2-6.9-3.7-11.8-6.2c-1.9-1-4.1-1.8-6.3-2.6c-6.7-2.7-13.8-4.6-21.1-6.1
			c-18.9-4.1-19-4.9-39.2-4.9c-12,0-26.5,3.7-38.2,6.6c-5.3,1.3-11.9,3.5-16.9,5.7c-10.4,4.6-16.2,7.9-25.7,14.7
			c-0.9,0.7-1.6,1.2-2.5,1.8l-11.5,8.8c-3.8,3.2-11.5,11.3-14.3,14.9l-3.9,5.1c-6.7,9-8.7,12.2-14.3,21.8l-4.3,9.2
			c-3.6,8.9-5.3,14.5-7.4,24.3c-1.1,5-2.4,9.6-3.3,14.8C160.4,205.9,159.6,211.6,159.6,217.3L159.6,217.3z"/>
		<path class="st0" d="M228.4,247.9c0,1.4,1,2.6,2,3.9c1.4,1.7,5.3-0.1,7-0.6c1.6-0.5,2.9-0.8,4.6-1.3c7.5-2.1,26.6-5.9,34.8-7.3
			l15.5-2.6c8.5-1.4,23.6-3.3,32.1-4c1.6-0.1,3.6-0.3,5.4-0.5l16.7-1.3c2.2-0.1,3.7-0.2,5.7-0.2s4.2,0.2,6-0.1s4.2-0.1,5.7,0.1
			c1.3,0.2,5.7,0,8.6,0.3c6.3,0.5,12.3,0.9,18.6,2.7c1.9,0.6,4.8,1.5,6.4,2.5c0.8,0.5,1.2,0.9,2.2,1c0.6-2.5,4.4-6.2-0.9-11.3
			c-4.7-4.6-18.6-4.1-25.7-4.1c-5.8,0-11.6,0.4-17.4,0.7l-31.3,3c-5.9,0.4-30.4,4-36.8,5.1l-18,3.1c-10.6,2.1-24.4,4.6-34.4,7.6
			C233.8,245,228.4,246,228.4,247.9L228.4,247.9z"/>
		<path class="st0" d="M212.9,199.5c0,4,3.8,6.6,7.5,6.6c1.1,0,5.7-3.1,7.2-4c3.2-1.9,13.4-6.6,16.5-3.5c1.5,1.6,2.6,5.5,2.6,8.6
			c0,3.4-1.5,6.2-2.7,8.5c-0.6,1.1-1.5,2.5-2.2,3.5c-3.5,4.7-11.1,11.8-16.8,11.8c-5.3,0-4.8-3-5.4-4.2c-1.1-2-3.9-1.8-3.9,1.2
			c0,5.6,5.4,10.7,12.1,10.7c5.6,0,14.9-5.7,18.2-9c7.7-7.6,12.5-14.3,11.7-26c-0.2-3-1.7-6-3.5-7.5c-5.9-4.9-17.2-2.5-23.2,0
			c-3.6,1.5-11.9,6.7-11.9,3.9c0-2.1,2.7-5.8,3.8-7.2c0.4-0.5,0.8-1,1.2-1.5c4.5-5.1,11.7-12.1,18.8-12.1c1.8,0,3.3,0.5,4.7,1
			c0.9,0.4,3.4,1.7,4,1.7c3.9,0-1.4-13.3-8.9-13.3c-2.6,0-4.4,0.6-6.6,1.6c-5,2.2-9,5.9-12.8,9.7
			C219.6,183.7,212.9,192.6,212.9,199.5L212.9,199.5z"/>
		<path class="st0" d="M313.2,203.1h-2.5c0-3.3,0.4-7.5,1.9-9.7c2.2-3.3,4.7-2.4,4.7,3.8C317.4,199.7,315.6,203.1,313.2,203.1z
			 M335.2,202.2L335,196c0-8.3,6.2-15,6.2-3.7c0,3.6-1.1,6.1-3.4,8.3C336.9,201.5,336.2,201.7,335.2,202.2L335.2,202.2z
			 M316.4,216.6c-4.2,0-5.4-8.9-5.7-12.1c3.7,0.3,6.4,1,9.2-2.5c3.6-4.5,1.5-16-4.2-16c-2.9,0-5.1,0-7.7,1.4c-4,2.1-6.2,11-6.2,15.7
			c0,4.9,0.4,9.2,3.1,13.1c2.2,3.2,4.9,4.9,9.5,4.9c5.3,0,8.4-4.5,10.5-8.5c0.4-0.8,1.8-3.7,1.8-4.6h0.5c0.3,3.7,5.2,11.2,11.2,11.2
			c6.4,0,8.8-4.3,11.2-9.1c1.5-3,2.8-7.5,3.7-11c0.2-0.7,0.3-1.4,0.5-2.1c0.2-0.8,0.5-1.3,0.2-1.8c-1-0.5-1.7,0.5-2,1.4l-1,3.2
			c-1.2,3.6-4.9,14.9-9.8,14.9c-3.4,0-5.7-8.9-5.7-11c2.7-1.3,6.8-2,9.3-6.7c3.1-5.7,0.1-14.6-4.5-14.6c-9.7,0-13.8,10.2-14.2,18.5
			c-0.1,1.4,0.5,1.9,0.2,3.3c-0.6,2.6-3.2,7.9-5,9.6C320.2,215.1,318.3,216.6,316.4,216.6L316.4,216.6z"/>
		<path class="st0" d="M287.9,191.2l1.5,11c0.3,2.3,0.1,9.4-0.3,11.9c-0.4,2-1.3,5.2-2.6,6.1c-0.1-0.6-1.2-3-1.8-5.5
			c-0.6-2.6-1-6.7-1.5-9.7c-0.2-1-0.1-2.4-0.7-3.2c-1.2-1.8-8.9-3.5-8.9,0.4c0,5.3,1.8,6.2,0.5,11.7c-0.4,1.8-0.8,3.5-1.2,5.4
			c-0.4,1.4-1.3,4.3-1.3,5.6h-0.5c-0.6-2.7-1.2-2.3-2.1-7.5c-0.2-1.4-0.3-2.8-0.5-4.3c-0.1-1.3-0.1-3.3-0.3-4.7
			c-0.9-6.1,3-13.1-6.8-13.1c-0.6,0-1.1,0.1-1.4,0.2c-1,0.3-1.4,0.7-1.1,1.7c0.3,1.2,0.5,0,0.9,3.5l0.8,10.6
			c0.7,5.2,0.4,9.7,3.4,13.7c1,1.3,1.6,1.8,3,2.8c2.5,1.7,6.1,2.1,6.1,1.2c0-2.6-1.5,1.2,0.5-6.6l1.8-6.6c0,6.9,5.3,10.8,11,11
			c0.5,0,1.1-0.1,1.4-0.2c1.2-0.4,0.9-0.9,0.9-0.8v-0.6c-0.2-0.7-1.1-2.1-1.4-2.7c4.5,0,6.2,0.1,8.6-4.2c3.6-6.4,2.4-15.5,1.2-22.5
			c-0.2-0.9-1.2-7.6-2.9-7.6C292.9,187.8,287.9,189.4,287.9,191.2L287.9,191.2z"/>
		<path class="st0" d="M355.3,158.1v8.5c-0.1,1-0.2,1.1-0.2,2.3c0,2.2,0.6,3.1-1.6,3.2c-1.5,0.1-3.1,0.3-4.4,0.4
			c-5.2,0.5-10.9,0.6-16.2,0.5c-1,0-1.8-0.2-1.8,0.7c0,0.9,2,1.6,2.8,2c8.4,4.2,12.8,3,20.7,2.4c0,9.5-0.3,18.6,1.4,26.5
			c1.1,5.4,5.7,16.5,11.4,16.5c1.8,0,2.8,0.2,1.2-2.6c-0.6-1.1-0.9-1.7-1.4-2.9c-5.2-11.8-3.7-26.3-3.7-39.1c0.7-0.3,2.6-0.7,3.6-1
			c6-1.5,17.8-4.6,23.1-7.3c0.8-0.4,1-0.4,1-1.5c-3.6,0-10.3,1.4-14.2,2.1l-9.8,1.6c-1,0.1-2.4,0.4-3.4,0.5c0-2.3,0.8-9.2-0.6-11.5
			C360.7,155.1,355.3,154.6,355.3,158.1L355.3,158.1z"/>
		<path class="st0" d="M367.7,182.3c1.1,1.7,5.4,1.8,8,1.8c3.6,0,7.3-0.9,10.3-1.6c-1,2-2.8,6.8-3.7,9.1c-1.3,3.3-3.2,8.3-5.2,11
			c-1,1.4-1.6,2.3-3.3,3.1c-1,0.5-1.8,0.2-2.3,1.1c-1.1,1.9,2.5,7.4,5.2,7.4c2.2,0,2.9-1.7,6.1-3c12.4-5,16,2.1,17.9,2.1
			c2,0,0.9-5.6,0.2-6.6c-2.5-3.9-14.3-0.7-16.7,0.5l2.7-6.5c1.3-3.2,4.7-15.4,8.1-17.1c0.9-0.5,1.7-0.1,1.7-1.3
			c-0.1-2.1-3.7-5.5-5.1-6.5c-0.6,0.1-0.8,0.2-1.3,0.6c-0.7,0.5-0.3,0.3-1.1,0.7c-3.9,1.8-10.4,4.2-14.7,4.3
			C371.6,181.4,368.6,180.9,367.7,182.3L367.7,182.3z"/>
		<path class="st0" d="M236.6,286.8c-2.2,0-3.4-0.8-4.6-3c1.7-1.2,4.8-4.3,5.9-5c0.7,1.3,2.3,2.3,2.3,4.1
			C240.3,284.7,238.3,286.8,236.6,286.8z M228.6,283.6c0,0.6,0.9,1.7,1.3,2.1c0.7,0.7,0.9,1.1,1.6,1.8c1.1,1.1,2.6,2.1,4.5,2.3
			c2.9,0.4,10.9-3.8,5.1-11.3c-3.5-4.6-3.8-3.5-6-1.4C233.9,278.4,228.6,282.3,228.6,283.6L228.6,283.6z"/>
		<path class="st0" d="M433.5,224.1c0,1.6,0.9,3,2,3.8c2.4,1.6,6.3,1.7,8.7,0c3-2.1,2.3-8.6-3.5-8.6c-2,0-4-0.1-5.6,1.3
			C434.3,221.3,433.5,222.8,433.5,224.1L433.5,224.1z"/>
		<path class="st0" d="M315.5,310.8c1,0,4.8-1.1,4.8,1.4c0,2.1-2.3,2.3-4.3,2.3C316,313.5,315.8,311.4,315.5,310.8z M314.8,321.8
			c3,0,1.6-2.6,1.6-5c2.8,0,3.6,4.1,5.9,4.1c1,0,1.4-0.5,1.8-1.1c-0.4-1.6-3-2.5-3.4-4.1c2.3-0.2,3.5-3.4,2-5.9
			c-1.3-2.2-4.5-1.7-7.3-1.4c-1.5,0.2-3,0.2-3.1,1.6c0,0.5,0.4,3.3,0.5,4.2C313.2,316.5,313.2,321.8,314.8,321.8z"/>
		<path class="st0" d="M375.2,281.3c6.3,0,6.1,7.8,1.1,7.8S370.9,281.3,375.2,281.3z M369.3,285.2c0,0.6,0.4,2.1,0.6,2.6
			c3.1,7.3,13.1,4.4,13.1-2.4c0-3-1.6-5.2-4-6.3C373.9,276.7,369.3,281.1,369.3,285.2z"/>
		<path class="st0" d="M243.3,297.8c0,1.9,1.3,2,3.5,3.8c0.7,0.6,1.2,0.9,1.9,1.5s1.2,1.1,2.1,1.3c0.8-0.4,1.1-0.7,1.4-1.6
			c-0.7-1.2-1.3-1.5-2.5-2.4c-0.7-0.5-2.4-1.7-2.8-2.2c0.2-0.7,1-1.7,1.6-2.1c1.6,1.1,3,2.7,4.3,2.7c0.3,0,2.4-0.9,0-2.7
			c-0.7-0.5-2.2-1.9-2.9-2.1c0.5-0.7,1-1.3,1.4-2.1c1.6,0.8,4.9,3.9,5.7,3.9c0.6,0,1.4-1,1.4-1.6c0-0.8-2.8-2.6-3.5-3.1
			c-5-3.7-3.7-4.3-9.8,4C244.7,295.7,243.3,297.3,243.3,297.8L243.3,297.8z"/>
		<path class="st0" d="M304.8,321.6c0.7-2.8-0.7-2.3-3.4-2.6c-4.6-0.5-3.5,0.8-3.5-2.9c4.4,0,5.7,1.2,5.7-1.4c0-1.3-4.2-1.1-5.5-1.1
			c0-1.2,0.2-1.2,0.2-2.5c2.2,0,4.3,0.5,6.6,0.5c2.5-3.7-2.4-2.7-7.1-3.2c-4.3-0.5-2.2,3.2-3.4,10.2c-0.3,1.9,0,2.7,1.7,2.9
			C298.1,321.5,303.2,322.3,304.8,321.6z"/>
		<path class="st0" d="M278.3,308.8c0,3.7,3,3.6,4.9,5.2c0.8,0.7,0.6,1.2,0.2,2.1c-3.8,0.9-4.6-1.9-5.7-2.7
			c-1.8,0.9-1.8,2.2-0.5,3.5c2.7,2.6,9.9,3.2,9.9-1.9c0-3.4-4.6-4.3-5.4-5.4c-1.8-2.5,4.1-2.7,5,0.6c2.4-0.1,2.2-2,1.1-3.1
			c-0.3-0.3-1-0.7-1.4-0.9C282.7,304.2,278.3,305,278.3,308.8L278.3,308.8z"/>
		<path class="st0" d="M262,302.6c0,3.1,4.3,4.6,4.3,5.7c0,2.9-4.6,1.4-5.5-2.3c-3,0.2-2.5,2.9,0.2,4.8c3.6,2.6,8.5,2,8.5-2.3
			c0-2.4-3.5-4-4.6-5.9c0.4-0.8,0.4-1.1,1.4-1.1c2.1,0,3.3,1.5,3.7,3.2c3.1,0,2.6-2.7-0.1-4.5C265.5,297.2,262,299.3,262,302.6z"/>
		<path class="st0" d="M354.9,297.5c0,3.5,2.7,6.6,5.9,7.1c3.9,0.7,7.6-3,7.6-5.1l-0.2-2.1c-3-1.4-2.4,1.1-2.6,1.8
			c-0.8,2.6-4.6,3.2-6.4,1c-2.5-3.1-0.3-6.4,1.9-6.4l2.3,0.2C366.8,288.9,354.9,290.1,354.9,297.5L354.9,297.5z"/>
		<path class="st0" d="M329.7,308.5c1.6,0,2.3-0.6,3.7-0.9c0.1,0.9,0.6,2.3,0.9,3.2c0.3,1,0.6,2.1,1,3.3c0.3,0.8,0.7,2.5,1.2,3
			c0.8,0.7,2.6,0,2.6-1c0-1.4-2.2-7.1-2.7-9.4c0.6-0.3,1.4-0.5,2-0.7c3.2-1,0.9-2.9,0.7-2.9c-0.9,0-9.1,2.6-9.8,3.1
			C328.3,306.8,328.6,308.5,329.7,308.5L329.7,308.5z"/>
		<path class="st0" d="M232.1,104.6c0.2,0.8,1.9,3.1,2.5,4.3c1-0.5,2-1.2,3-1.8c3.3-2,2.8-5.1-0.5-5.1
			C235.4,102,233.7,104.2,232.1,104.6L232.1,104.6z"/>
		<path class="st0" d="M397.2,122.2c1,1.5,3.3,3.9,5.7,3.9c1.1,0,1.6-1.2,1.6-2.5c0-1.3-3.6-4.6-4.3-4.8
			C399.8,120,397.9,121,397.2,122.2z"/>
		<path class="st0" d="M265.2,89c0.1,1.5,1.3,3.8,1.4,5.3c0.8-0.1,2.6-0.7,3.4-1c3.7-1.5,2.1-5.2-0.4-5.2
			C267.8,88.1,266.8,88.9,265.2,89z"/>
		<path class="st0" d="M417.7,151.4c0.4,0.8,0.8,1.5,1.3,2.3c0.7,1.1,0.9,1.8,1.6,2.2c0.3-1.2,4.3-5,4.6-6.2L417.7,151.4z"/>
		<path class="st0" d="M213.1,321.8l6.9-3.4c-0.9-1.3-2.6-2.8-3.9-3.7c-0.5,1-1,2.3-1.5,3.5L213.1,321.8z"/>
		<path class="st0" d="M169.9,215.5c0.6,0.8,6,2.8,6.9,3l0.2-5C175.5,213.5,172,215,169.9,215.5z"/>
		<path class="st0" d="M313.7,351.5c0.4,1.9,2.6,5.6,2.7,6.9h0.5c0.1-1.1,0.6-2.6,0.9-3.6c0.2-0.8,0.9-2.8,0.9-3.7
			C318.3,351.3,314.4,351.5,313.7,351.5z"/>
		<path class="st0" d="M388,276.1c0,2.3,3.4,2.6,3.4-0.2c0-0.6-1.5-2.3-2.8-0.7C388.6,275.2,388,276,388,276.1L388,276.1z"/>
	</g>
	<path class="st0" d="M73.9,605.5c-0.6,4.1,1.7,7.9,4.3,12.1c3.4,5.4,15.3,1.9,20.3,1c5-0.9,8.7-1.3,13.8-2c22.4-3.1,79-6.4,103.2-7
		l45.7-1.1c25-0.5,69.4-0.1,94.1,1.3c4.8,0.3,10.6,0.7,15.9,0.7l48.8,3c6.2,0.7,10.7,0.8,16.6,1.7c5.7,0.8,12,2.1,17.5,2.1
		c5.2-0.1,12.3,1.3,16.3,2.5c3.7,1,16.5,2.4,24.8,4.3c18.1,4,35.2,7.5,52.5,15.2c5.4,2.4,13.1,6.2,17.4,9.8c2,1.7,3.2,3.2,5.9,3.8
		c2.7-7,15.2-16,2.1-32.8c-11.7-15-51.9-19.2-72.3-22c-16.6-2.3-33.6-3.6-50.4-5l-91.5-4.1c-17.2-1.4-89.1-0.6-107.9-0.1l-53,1.6
		c-31.4,1.7-72.1,3.6-102.3,8.1C90.6,599.3,74.7,600,73.9,605.5L73.9,605.5z"/>
	<path class="st0" d="M48.6,459.5c-1.6,11.4,8.4,20.7,19.1,22.1c3.2,0.4,17.6-6.6,22.4-8.6c10-4.2,41.3-13.7,48.9-3.4
		c3.8,5.1,5.2,17,4,25.9c-1.4,9.8-6.7,17.2-11.1,23.5c-2,2.9-5.3,6.6-7.8,9.1c-12,12-36.7,29.4-53.2,27.1
		c-15.3-2.1-12.7-10.6-14-14.2c-2.2-6.2-10.6-6.8-11.8,1.9c-2.3,16.2,11.2,33.1,30.6,35.8c16.1,2.3,45.3-10.4,56.2-18.5
		c25.2-18.8,41.9-36.2,44.2-70.2c0.6-8.7-2.4-17.9-7-23c-14.9-16.6-48.4-14-66.9-9.5c-11,2.7-37.1,14.6-35.9,6.3
		c0.9-6.1,10-15.7,13.7-19.3c1.4-1.4,2.7-2.6,4.1-3.9c15-13,38.5-30.1,59-27.2c5.1,0.7,9.4,2.8,13,4.9c2.4,1.4,9,6.3,10.9,6.5
		c11.1,1.6,1.4-38.8-20.4-41.8c-7.5-1-13,0-19.7,1.9c-15.2,4.4-28.3,13.4-40.6,22.7C74.4,416.8,51.4,439.9,48.6,459.5L48.6,459.5z"
		/>
	<path class="st0" d="M336.4,510.5l-7.2-1c1.3-9.5,4.2-21.5,9.5-27.3c7.8-8.5,14.5-5.1,12,12.8C349.6,502.3,343.2,511.5,336.4,510.5
		L336.4,510.5z M400,516.7l1.8-17.9c3.3-23.9,23.8-40.8,19.3-8.1c-1.4,10.3-5.7,17.2-13,22.5C405.3,515.4,403.2,515.6,400,516.7z
		 M340.2,550.7c-12-1.7-12.1-27.9-11.6-37.2c10.6,2.4,18.2,5.3,27.5-3.4c12.3-11.6,10.8-45.6-5.5-47.9c-8.2-1.2-14.7-1.9-22.8,1.1
		c-12.5,4.6-22.4,29.2-24.3,42.7c-2,14.2-2.5,26.6,3.7,39.1c5.1,10.2,12.2,16.2,25.3,18c15.4,2.2,26.1-9.5,33.7-20.1
		c1.5-2,6.5-9.9,7.1-12.5l1.3,0.2c-0.6,10.7,10.5,34.4,27.8,36.8c18.4,2.6,27.1-9,36-21.8c5.6-8,11.1-20.5,15-30.1
		c0.7-1.9,1.4-3.9,2.1-5.8c0.9-2.2,1.8-3.5,1.4-5.2c-2.7-1.7-5.2,0.8-6.4,3.2l-4,8.7c-5,10-20.1,40.9-34.2,39
		c-9.7-1.4-12.7-28-12-33.9c8.4-2.7,20.3-3,29.5-15.6c11.1-15.2,6.1-41.9-7.1-43.8c-27.9-3.9-44,23.8-48.3,47.7
		c-0.7,3.9,0.6,5.6-0.9,9.7c-2.7,7.2-12.5,21.3-18.3,25.8C351.6,547.7,345.6,551.4,340.2,550.7L340.2,550.7z"/>
	<path class="st0" d="M268,466v32.4c0,6.6-3.4,27.2-5.7,34.1c-1.9,5.6-6,14.5-9.9,16.6c-0.2-1.8-2.1-9.2-2.9-16.7
		c-0.8-7.7-0.1-19.7-0.4-28.6c-0.1-2.9,0.6-7-0.6-9.5c-2.9-5.6-24.1-13.8-25.7-2.4c-2.1,15.3,2.6,18.5-3.4,33.8
		c-2,5.1-3.6,9.9-5.7,15.1c-1.6,3.9-5.3,11.8-5.9,15.6l-1.3-0.2c-0.7-7.9-2.4-7.2-2.9-22.6c-0.1-4.1,0.2-8.1,0.3-12.6
		c0.1-3.8,1.1-9.6,1.1-13.8c-0.2-18.1,14-36.6-14.2-40.6c-1.8-0.3-3.2-0.3-4.2-0.1c-3.1,0.3-4.3,1.6-3.9,4.4
		c0.5,3.7,1.4,0.1,1.2,10.4l-1.9,30.9c-0.2,15.3-2.7,28.1,4.3,40.9c2.4,4.3,3.8,5.9,7.4,9.2c6.5,6,16.8,8.6,17.2,5.9
		c1.1-7.6-4.9,3,4-18.9l7.9-18.4c-2.8,19.8,10.8,33.1,27.3,36c1.3,0.2,3.1,0.2,4.1,0c3.7-0.6,3-2.1,3-2.1l0.2-1.7
		c-0.2-2.1-2.3-6.4-3-8.4c12.9,1.8,17.8,2.9,26.5-8.7c12.8-17,13.1-43.7,12.6-64.4c-0.1-2.6-0.5-22.3-5.4-23
		C283.9,458.2,268.8,460.9,268,466L268,466z"/>
	<path class="st0" d="M475.8,397.7l-3.4,24.4c-0.6,2.9-1.1,3.1-1.6,6.5c-0.9,6.4,0.5,9.2-5.9,8.6c-4.2-0.4-8.9-0.4-12.8-0.6
		c-15.1-0.5-31.7-2.8-46.9-5.1c-2.8-0.4-5.1-1.4-5.5,1.3c-0.4,2.5,5.2,5.4,7.3,6.9c22.6,15.5,35.8,13.9,58.8,15.2
		c-3.8,27.4-8.2,53.4-6.6,76.8c1.1,16.1,9.6,49.9,26.1,52.2c5.3,0.7,8,1.6,4.5-7c-1.4-3.5-2-5.4-3-9c-10.3-36.2,0-77.1,5.2-114.1
		c2.2-0.7,7.9-1,10.8-1.3c18-1.9,53-6.1,69.5-11.8c2.5-0.9,2.9-0.8,3.4-4c-10.4-1.5-30.3-0.1-41.7,0.2l-29,0.6c-3.1,0-7.2,0.3-10,0
		c0.9-6.7,5.9-26.1,2.8-33.4C492.5,391.4,477.2,387.8,475.8,397.7L475.8,397.7z"/>
	<path class="st0" d="M501.6,472.5c2.6,5.3,14.8,7.4,22.3,8.5c10.4,1.5,21.4,0.3,30.3-0.5c-3.8,5.2-10.9,18.4-14.4,24.7
		c-5.1,9-12.5,22.6-19.5,29.6c-3.5,3.5-5.7,6.1-10.7,7.7c-3,0.9-5.3-0.1-7.2,2.3c-4.1,5.2,4.2,22.5,11.9,23.5
		c6.4,0.9,9.1-3.8,18.9-6.2c37.7-9.4,45.1,12.5,50.7,13.2c5.8,0.8,4.9-15.7,3.4-19c-5.5-12.1-41-7.7-48.3-5.4l10.3-17.6
		c5-8.8,19.8-42.5,30.2-45.9c2.9-1,5.1,0.3,5.4-3.2c0.5-6.1-8.4-17.3-12.1-20.7c-1.8,0.2-2.3,0.3-3.9,1.1c-2.2,1.1-0.8,0.7-3.6,1.5
		c-12,3.6-31.7,8-44.1,6.3C513.4,471.5,504.8,468.9,501.6,472.5L501.6,472.5z"/>
</g>
</svg>
