<?xml version="1.0" encoding="utf-8"?>
<!-- Generator: Adobe Illustrator 25.2.3, SVG Export Plug-In . SVG Version: 6.00 Build 0)  -->
<svg version="1.1" id="Warstwa_1" xmlns="http://www.w3.org/2000/svg" xmlns:xlink="http://www.w3.org/1999/xlink" x="0px" y="0px"
	 viewBox="0 0 612 665.9" style="enable-background:new 0 0 612 665.9;" xml:space="preserve">
<style type="text/css">
	.st0{fill-rule:evenodd;clip-rule:evenodd;fill:#FFFFFF;}
</style>
<g transform="translate(0.000000,1358.000000) scale(0.100000,-0.100000)">
</g>
<g id="Layer_x0020_1">
	<g id="_2913010634624">
		<path class="st0" d="M325.8,571.5c-3.4,0-4-2.6-5.3-5.2c-1.2-2.4-2.4-4.5-3.4-6.9c-1-2.2-6.5-13.1-6.5-14.3c0-4.5,5.3-5,7.4,4
			c4.7,0,7.6-0.3,12.2-0.3c2.1-4.3,1-7.9,5.2-7.9c4.3,0,0.3,8.8-0.2,10.5l-4.8,14.8C329.4,568.6,328.7,571.5,325.8,571.5z
			 M293.4,555.8c1-0.3,3.8-2.6,4.7-3.6c1-1,0.7,0.2,1-2.1c0.9-4.1-1-8.1,3.6-8.1c3.3,0,2.2,5.5,2.1,6.4l-1.4,21
			c-0.7,3.4-4.7,3.1-5.5,0.7l0.2-7.9c0.2-1.4,0.3-2.1,0.3-4c-2.1,1-2.9,2.6-5.5,4.7c-2.1,1.6-7.8,7.9-9.8,7.9
			c-3.3,0-3.6-3.3-1.2-5.2c1.4-1,6.4-5.5,7.6-5.9c-1.2-5.2-11.4-15.5-8.3-18.4c3.4-3.1,6,2.8,7.2,5.2
			C289.8,548.7,293.1,554.1,293.4,555.8L293.4,555.8z M363.2,535.3c2.9,0,2.9,2.8,3.6,5.2c1,4.5,4.3,18.8,4.3,22.4
			c0,1.9-1.9,1.9-3.1,1.9c-2.8,0-4-9.6-4-11c-1.7,0-4.7,0.9-6.4,1.2c-2.1,0.3-4.3,1.2-6.7,1.2c0.2,5.9,5,12.6-1.6,12.6
			c-2.6,0-3.6-8.8-4.3-12.6c-1.2-5.5-5.2-16.9-0.3-16.9c2.9,0,3.1,2.4,3.6,5c0.3,2.1,1.4,5.5,1.6,7.6c1,0,12.4-2.4,12.9-2.8
			c-0.3-1.6-2.6-10.2-2.2-11.5C360.9,536.3,362,535.3,363.2,535.3L363.2,535.3z M252.9,538.4c0-4.3,6.4-1.6,12.2-0.3
			c3.1,0.7,9.5,1.4,9.5,3.4c0,3.8-4.3,24.6-5.7,25.8c-1.7,1.6-8.6-0.7-12.2-1.4c-2.2-0.5-4.3-0.7-6.5-1.4c-3.4-0.9-1.6-4.3-0.5-4.3
			c4.1,0,11.2,2.4,15,2.8c0.2-2.2,1-5.3,1.6-7.4l-11.9-2.2c-4.3-1-2.6-4.5,0-4.3c1.2,0.2,9.8,2.4,12.7,2.8c0.2-2.6,1.6-5.5,1.6-8.3
			c-1.2-0.7-6.7-1.6-8.4-1.9C257.8,541.2,252.9,540.7,252.9,538.4L252.9,538.4z M242.6,551.8c0,3.6-3.6,7.4-6.7,7.4h-2.4
			c-11.7,0-15.2-12.6-9.5-12.6c4.5,0,0,8.6,9.1,8.6c4.7,0,5.3-4.1,1.2-6.7c-1.4-0.9-2.8-1.7-4-2.8c-2.9-2.1-5.9-4.3-5.9-8.3
			c0-4.8,4.3-8.6,9.1-8.6c13.8,0,16.7,14.6,11,14.6c-4.5,0,0.3-10.2-9.8-10.2c-3.1,0-8.3,3.8-0.7,9c1.9,1.2,3.8,2.4,5.3,3.8
			c0.9,0.7,1.4,1.4,2.1,2.4C241.9,549.1,242.6,550.8,242.6,551.8L242.6,551.8z M378.5,537.7c0,1.9,0,4.3,4.7,4.3
			c4.1,0,16.2-3.3,16.2,7.1c0,3.3-2.1,5.2-4,6.5c-7.2,5.2-16,2.6-16-2.2c0-0.9,1.6-2.4,1.9-2.4c3.4,0,1.9,3.1,7.4,3.1
			c6,0,10.5-9.1-2.2-7.4c-6.2,0.9-13.4,0.2-13.4-7.9c0-5.3,5.3-8.4,9.5-9.8c9.8-3.1,15.7,6,10.7,7.6c-1.9,0.5-2.9-1.7-4.5-2.9
			C384.4,530.5,378.5,534.6,378.5,537.7L378.5,537.7z M281.4,530.1c-2.9,0-4.5-0.9-7.1-0.9L281.4,530.1z M271.9,528.6h1.9v0.3
			c-0.3,0-0.9,0-1.2,0C271.9,528.8,272.2,528.9,271.9,528.6L271.9,528.6z M271.9,528.6c-0.3,0-0.9,0-1.2,0c-0.7-0.2-0.3-0.2-0.9-0.3
			c0.3,0,0.9,0,1.2,0C271.7,528.4,271.4,528.4,271.9,528.6z M269.8,528.3c-0.3,0-0.9,0-1.2,0c-0.7-0.2-0.3-0.2-0.9-0.3
			c0.3,0,0.9,0,1.2,0C269.8,528.1,269.5,527.9,269.8,528.3L269.8,528.3z M267.9,527.9c-0.3,0-0.9,0-1.2,0c-0.7-0.2-0.3-0.2-0.9-0.3
			c0.3,0,0.9,0,1.2,0C267.8,527.6,267.4,527.6,267.9,527.9z M265.9,527.4c-0.2,0-0.7,0-0.7,0c-0.7-0.2-0.3-0.2-0.9-0.3
			c0.2,0,0.7,0,0.7,0C265.9,527.2,265.5,527.2,265.9,527.4z M264.3,527h-1.6c0.7-0.5-0.9-0.5,0.9-0.3
			C264.5,526.7,264,526.7,264.3,527z M260.9,526.2h1.6c-0.7,0.5,0.9,0.5-0.9,0.3C260.7,526.5,261.2,526.5,260.9,526.2z M260.9,526.2
			c-2.1,0-0.7,0-1.2-0.3C261.7,525.8,260.2,525.8,260.9,526.2z M258.1,525.5c0.3-0.3,2.1,0.5,0.7,0.2h-0.2
			C258.5,525.7,257.4,526.2,258.1,525.5L258.1,525.5z M256.6,525c0.3-0.3,2.1,0.5,0.7,0.2h-0.2C256.9,525.2,255.9,525.7,256.6,525z
			 M254.8,524.6c2.1,0,0.7,0,1.2,0.3C254,525,255.5,525,254.8,524.6z M254.8,524.6c-2.1,0-0.7,0-1.2-0.3
			C255.9,524.3,254.3,524.3,254.8,524.6z M252.1,523.9c2.1,0,0.7,0,1.2,0.3C251.2,524.3,252.8,524.3,252.1,523.9z M252.1,523.9
			c-1.9,0-0.7,0-1.2-0.3C252.8,523.4,251.7,523.4,252.1,523.9z M250.9,523.4c-2.1,0-0.7,0-1.2-0.3
			C251.9,523.1,250.4,523.1,250.9,523.4z M248.1,522.7c2.1,0,0.7,0,1.2,0.3C247.3,523.1,248.8,523.1,248.1,522.7z M248.1,522.7
			c-1.9,0-0.7,0-1.2-0.3C248.8,522.2,247.8,522.2,248.1,522.7z M247.1,522.2c-1.9,0-0.7,0-1.2-0.3
			C247.8,521.9,246.6,521.9,247.1,522.2z M245.9,521.9c-1.9,0-0.7,0-1.2-0.3C246.6,521.5,245.4,521.5,245.9,521.9z M244.7,521.5
			c-1.9,0-0.7,0-1.2-0.3C245.4,521.2,244.2,521.2,244.7,521.5z M243.5,521.2l-0.9-0.2L243.5,521.2z M241.6,520.3
			c0.3-0.3,1.6,0.7,0.5,0.2C241.9,520.5,240.9,521,241.6,520.3z M240.4,520c0.3-0.3,1.6,0.7,0.5,0.2
			C240.7,520.2,239.7,520.7,240.4,520z M239.2,519.5l0.9,0.2L239.2,519.5z M239.2,519.5l-0.9-0.2L239.2,519.5z M237.1,518.8
			c0.3-0.3,1.6,0.7,0.5,0.2C237.6,519,236.6,519.5,237.1,518.8z M236.1,518.4l0.9,0.2L236.1,518.4z M236.1,518.4l-0.9-0.2
			L236.1,518.4z M234,517.6l0.9,0.2L234,517.6z M234,517.6l-0.9-0.2L234,517.6z M232.1,516.7l0.9,0.2L232.1,516.7z M232.1,516.7
			l-0.9-0.2L232.1,516.7z M416.4,513.6c2.9,0,3.3,1.4,5.7,6.2c0.7,1.4,1.2,2.4,1.9,3.6c0.7,1.4,1.4,2.2,1.9,3.6
			c0.9,1.6,5.3,9.8,5.3,11c0,1.4-1,2.8-2.6,2.8c-2.8,0-3.3-2.8-4.3-4.7c-1-1.9-2.6-4-3.1-6.4l-3.8,10.5c-1.4,4.5-1.6,8.8-5,8.8
			c-1.2,0-2.2-1.6-2.2-2.4c0-0.9,0.7-3.3,1-4c0.7-1.9,2.2-5.3,2.4-7.4c-1.4-0.7-2.8-1.2-4.1-2.1c-1.6-0.9-2.6-1.6-4.3-2.4
			c-2.1-1-4.5-2.1-6.4-3.4c-3.6-2.8-0.3-5,1.6-5c2.2,0,12.7,7.2,15.3,7.9c1.9-8.1,3.4-3.6-0.5-11.7
			C413.3,515,415.2,513.6,416.4,513.6L416.4,513.6z M230,516l0.9,0.2L230,516z M230,516l-0.9-0.3L230,516z M229.4,515.7l-0.9-0.2
			L229.4,515.7z M227.8,514.8L227.8,514.8C227.8,515,227.6,514.8,227.8,514.8z M226.6,514.5l0.9,0.2L226.6,514.5z M226.6,514.5
			l-0.9-0.3L226.6,514.5z M225.7,514l-0.9-0.2L225.7,514z M224.2,513.3L224.2,513.3C224.4,513.4,224.2,513.3,224.2,513.3z
			 M223.3,512.9C223.5,512.7,223.5,512.9,223.3,512.9L223.3,512.9z M222.6,512.4L222.6,512.4C222.6,512.6,222.6,512.6,222.6,512.4z
			 M221.4,512.1l0.9,0.2L221.4,512.1z M221.4,512.1l-0.9-0.3L221.4,512.1z M220.6,511.7l-0.9-0.3L220.6,511.7z M219.9,511.2
			l-0.9-0.3L219.9,511.2z M219,510.9l-0.9-0.3L219,510.9z M218.3,510.5l-0.9-0.3L218.3,510.5z M217.5,510.2l-0.9-0.3L217.5,510.2z
			 M216.8,509.6l-0.9-0.3L216.8,509.6z M215.9,509.3L215.9,509.3z M214.7,508.4L214.7,508.4C214.9,508.6,214.7,508.6,214.7,508.4z
			 M214,508.1C214,508.1,214,508.3,214,508.1L214,508.1z M213.2,507.8L213.2,507.8C213.3,507.9,213.2,507.8,213.2,507.8z
			 M212.3,507.4L212.3,507.4z M212.3,507.4l-0.9-0.3L212.3,507.4z M211.6,506.9l-0.9-0.3L211.6,506.9z M210.8,506.5L210.8,506.5z
			 M209.5,505.7C209.7,505.7,209.7,505.9,209.5,505.7L209.5,505.7z M425,513.3c0,0-5-1,1-5.3c2.2-1.6,10.7-8.1,12.9-8.1
			c1.4,0,3.4,3.4,4.5,5c1.4,2.1,2.6,3.8,4,5.9c1.4,1.9,2.6,3.6,4,5.5c0.7,1,3.8,5,3.8,6.2c0,0.2-1.6,6.9-7.1-1.2
			c-1.2-1.9-2.2-3.3-3.6-5.2l-7.2-10.2C434.1,506.5,427.8,513.3,425,513.3L425,513.3z M208.9,505.3L208.9,505.3z M208.9,505.3
			L208,505L208.9,505.3z M208,505L208,505z M206.8,504.1L206.8,504.1z M178,499.8c3.8,0,7.4,2.1,9.3,4c11.2,10.5-1.2,25.8-10.9,25.8
			c-14,0-16.5-17.7-11-17.7c4,0,2.4,3.1,2.4,5.5c0,4,3.6,7.4,7.4,7.4c7.6,0,17.1-14.6,6.9-19.6c-3.3-1.6-5.2-0.9-7.9,0.9
			c-1.7,1-3.6,1.4-4.3-0.9C169.2,502.6,174.6,499.8,178,499.8L178,499.8z M206.8,504.1l-0.9-0.3L206.8,504.1z M206.1,503.8
			L206.1,503.8z M204.9,502.9L204.9,502.9z M204.9,502.9l-0.9-0.3L204.9,502.9z M204,502.6L204,502.6z M203,501.9L203,501.9z
			 M203,501.9L203,501.9z M201.8,501L201.8,501C201.8,501.2,201.6,501,201.8,501z M200.9,500.7L200.9,500.7z M200.9,500.7
			L200.9,500.7z M199.7,499.8L199.7,499.8z M199.7,499.8L199.7,499.8z M198.5,499.1L198.5,499.1z M198.5,499.1L198.5,499.1z
			 M197.5,498.3L197.5,498.3z M197.5,498.3L197.5,498.3z M196.3,497.4L196.3,497.4z M196.3,497.4L196.3,497.4z M195.1,496.7
			L195.1,496.7z M195.1,496.7L195.1,496.7z M193.9,495.9L193.9,495.9z M193.9,495.9L193.9,495.9z M192.7,495.2L192.7,495.2z
			 M445.5,494c0-1.7,1.7-2.8,2.8-2.8c1.6,0,4.7,4.3,6.2,6l3.6,4.3c1.2,1.4,8.8,9.8,8.8,11.4c0,1.4-1.4,2.8-2.8,2.8
			c-1.9,0-4-3.4-5.2-4.7l-11.5-13.8C446.4,496.2,445.5,495.7,445.5,494z M192.7,495.2L192.7,495.2z M191.1,494L191.1,494z
			 M191.1,494L191.1,494z M189.9,493.1L189.9,493.1z M189.9,493.1l-0.3-0.3L189.9,493.1z M189.6,492.8L189.6,492.8z M188.4,491.9
			L188.4,491.9z M188.4,491.9l-0.3-0.3L188.4,491.9z M188,491.6L188,491.6z M186.8,490.9L186.8,490.9z M186.8,490.9l-0.3-0.3
			L186.8,490.9z M186.3,490.4L186.3,490.4z M185.3,489.7L185.3,489.7z M185.3,489.7l-0.3-0.3L185.3,489.7z M184.7,489.2L184.7,489.2
			z M183.2,488.1L183.2,488.1z M183.2,488.1l-0.3-0.3L183.2,488.1z M182.8,487.6L182.8,487.6z M181.3,486.4L181.3,486.4z
			 M181.3,486.4l-0.3-0.3L181.3,486.4z M180.8,486.1l-0.3-0.3L180.8,486.1z M180.4,485.7L180.4,485.7z M178.9,484.5L178.9,484.5z
			 M178.9,484.5l-0.3-0.3L178.9,484.5z M178.5,484.2l-0.3-0.3L178.5,484.2z M178,483.6L178,483.6z M176.1,482.1L176.1,482.1z
			 M176.1,482.1l-0.3-0.3L176.1,482.1z M175.8,481.7l-0.3-0.3L175.8,481.7z M175.3,481.4l-0.3-0.3L175.3,481.4z M174.9,480.9
			L174.9,480.9z M154.1,485.7c0.9,1.4,2.8,3.1,4,4.3l4.7,4c1.4-0.3,9.5-5.5,9.5-0.3c0,2.6-3.1,3.3-6.7,5.2l-16.5,7.8
			c-1.6,0.7-2.8,1.4-4.3,0.9c-5.2-1.7-1.7-7.9-0.5-11l5.5-14.3c0.7-1.9,1.7-5.9,4.1-5.9c0.9,0,2.8,1.4,2.8,1.9
			C156.5,481.1,154.6,483.3,154.1,485.7L154.1,485.7z M172.5,479L172.5,479z M172.5,479l-0.3-0.3L172.5,479z M172.2,478.6l-0.3-0.3
			L172.2,478.6z M171.8,478.1l-0.3-0.3L171.8,478.1z M171.5,477.8l-0.3-0.3L171.5,477.8z M171,477.4l-0.3-0.3L171,477.4z
			 M170.6,477.1l-0.3-0.3L170.6,477.1z M170.3,476.6L170.3,476.6z M470.7,469.9c0-2.1,0.7-2.8,2.8-2.8c1.2,0,11.7,10.3,13.1,11.7
			c5.7,5.7,8.8,6.7,5.3,10.3c-3.3,3.4-2.8,4.3-12.4-1.6c-1.6-0.9-2.8-1.4-4.3-2.4c-1.2-0.7-3.4-2.2-4.8-2.2l9.1,15
			c0.7,1.2,1.4,1.9,0.7,3.4c-0.7,1.4-3.6,4.5-5.3,4.3c-1.6-0.2-7.2-6.5-10.3-9c-2.4-2.1-5.2-5.5-7.4-7.2c-3.3-2.6-2.8-5.7,0.5-5.7
			c1.9,0,14.8,14.5,16.9,15c-1.9-2.8-12.2-19.3-12.2-20.2c0-2.4,2.4-3.6,2.8-3.6c3.3,0,17.9,10.3,21.2,11c-2.1-3.1-5.3-5.2-7.9-7.8
			C477.2,477.1,470.7,471.1,470.7,469.9L470.7,469.9z M161.5,468L161.5,468z M161.5,468l-0.3-0.3L161.5,468z M161.1,467.6l-0.3-0.3
			L161.1,467.6z M160.8,467.1L160.8,467.1z M157.2,463.1L157.2,463.1z M157.2,463.1l-0.3-0.3L157.2,463.1z M156.8,462.8L156.8,462.8
			z M154.4,460L154.4,460C154.6,460.2,154.4,460,154.4,460z M132.4,472.6c10.7,0,3.1,3.4,11.9-3.1c4.1-3.1,7.1,1.6,3.3,4.5
			c-2.9,2.2-18.4,15.5-20.3,15.5c-1.6,0-2.8-1.9-2.6-3.1c0.2-1.6,1.7-2.4,2.9-3.4l6.9-5.7c-3.4-0.3-8.1-0.7-11.5-1.2
			c-4-0.3-9.5,0.5-9.5-3.6c0-4.3,9.6-0.9,13.8-0.9l4.1-14.8c2.2-6.9,6-2.6,6-0.2L132.4,472.6L132.4,472.6z M491.7,447.1
			c-2.4,0-2.6-2.1-1.9-3.4l4.5-7.8c5.9-10.7,4.1-10.3,16.9-2.9l11.4,6.7c2.4,2.1,0.2,4.5-1.7,7.8c-1,1.9-5.9,11.4-7.6,11.4
			c-1.6,0-1.2-0.3-2.4-1.2c0.2-2.1,2.2-5.2,3.4-7.2c0.7-1.2,1.4-2.4,2.1-3.4c0.7-1.2,1.6-2.2,1.6-4c-2.4-0.5-4.7-2.9-6.7-3.1
			c-0.3,1.4-2.6,5-3.4,6.4s-2.8,5.9-4.5,5.9c-1,0-1.9-0.9-1.9-2.4c0-1,6.4-10.7,6.7-12.2c-1.7-0.9-6-3.8-7.9-4
			C499.4,435.2,493.6,447.1,491.7,447.1L491.7,447.1z M117.1,431.3c0-1.9,2.6-2.9,4.3-0.3l9.1,15.7c0,2.2-2.2,3.1-4.8,4.7
			c-2.4,1.6-16.5,10.3-18.1,10.3c-2.6,0-3.8-3.8-6.2-7.6c-4.1-6.5-5.7-7.4-4.8-11c3.3-0.9,2.6-0.7,6.5,5.7c1.4,2.4,2.9,4.7,4.1,6.9
			c1.2-0.3,5.7-3.1,6.4-4c-0.3-1.4-2.4-4.7-3.4-6c-0.7-1-3.3-5.2-3.3-6.2c0-0.7,1.9-4.3,4.5,0.2c1.2,1.9,5.2,9,6.2,9.6
			c2.2-0.5,5.2-3.4,7.4-4c-1.2-2.4-2.6-4.7-4.1-6.9C120,437.3,117.1,432.8,117.1,431.3L117.1,431.3z M101.7,415.6
			c0,4.8,1.2,7.1,1.2,10.7c0,9-11.9,11.9-16.5,0c-2.2-6-0.2-11.7,3.4-11.7c2.2,0,2.1,1,2.8,2.4c-1,1.9-3.4,4-3.1,6.5
			c0.9,6.5,9,8.8,7.8,0.2c-0.7-4.7-2.2-10.3,1-14c3.6-3.8,9.5-3.6,13.8,1.7c5.9,7.4,3.1,17.2-2.6,17.2c-0.9,0-1.9-1-1.9-1.9
			c0-3.1,3.6-3.1,3.6-7.4C111.2,411.6,101.7,409.9,101.7,415.6L101.7,415.6z M504.6,423.5c-4.5,0,0.7-9,2.4-13.3
			c3.8-9.3,1.7-9.5,18.9-1.7c11,4.8,12.2,3.1,8.8,10.7l-4,9.5c-1,2.2-1.2,4.1-3.4,4.1c-3.8,0-0.2-6.2,0.3-7.6
			c0.9-2.1,3.1-6.7,3.3-8.6c-1.4-0.3-5.3-2.1-6.7-2.8c-2.1,3.8-4.1,11.4-6.4,13.4c-5.2-0.3-1.7-4.7,1-11.5c0.5-1.4,1-2.1,1.4-3.4
			c-1.4-0.7-6.9-3.1-8.3-3.1c-0.3,1.2-1,2.8-1.6,4C508.9,416.5,507.2,423.5,504.6,423.5L504.6,423.5z M516,381.3
			c0-5.3,8.1-1.9,14.3,0l12.1,3.4c4.8,1.6,1.6,6.7-1.2,16.7c-1.6,5.7-4.7,2.8-4.7,0.9c0-1.7,1.2-4.7,1.6-6.4
			c0.5-1.9,1.4-4.5,1.6-6.4c-2.9,0-4.7-1.6-7.4-1.6c-0.2,1.7-1.2,4.3-1.7,6.2c-0.7,2.6-0.5,3.8-2.8,5.2c-3.8-0.9-2.2-2.8-1-7.4
			c0.5-1.7,1-3.6,1.6-5.5c-2.1,0-4.8-1.2-6.9-1.7C519.2,384.3,516,383.6,516,381.3L516,381.3z M109.6,364.8L109.6,364.8
			C109.6,364.8,109.5,364.8,109.6,364.8z M108.4,357.2L108.4,357.2C108.4,357.4,108.4,357.4,108.4,357.2z M520.8,356.2
			c0-3.8,4.7-2.6,6.2-2.2c2.6,0.3,5.3,0.9,8.1,1.2c4.5,0.7,14.8,1.4,14.8,4.1c0,3.6-0.7,6.5-1.2,9.8c-0.7,4.3-0.2,7.9-3.4,7.9
			c-3.8,0,0-8.8,0-14.6c-1.9-0.2-4-0.9-6.2-1c-1.6-0.2-1.4-0.2-1.7,1.4c-0.3,2.1-0.9,7.6-1.6,9.1c-1.2,2.8-4,0.5-4,0
			c0-3.8,1.6-7.9,1.6-11.4c-2.1,0-5-0.7-7.2-1C523.4,358.9,520.8,359.1,520.8,356.2L520.8,356.2z M107.9,354.5L107.9,354.5
			C108.1,354.6,107.9,354.6,107.9,354.5z M107.6,351.4c-0.2-0.7,0.5-1.4,0.2-0.2C107.9,351.2,107.9,352.7,107.6,351.4z M107.2,347.4
			c-0.2-0.7,0.5-1.4,0.2-0.2C107.4,347.2,107.4,348.8,107.2,347.4z M106.9,341.5c0.5,0.7,0.5-0.9,0.3,0.9c0,0.9,0,0.3-0.3,0.9V341.5
			z M65.9,341.9c0-1,0-1.4,0.5-2.2c1.4-1.9,5.9-0.5,9.3-0.2l15.7,2.1c6.4,0.9,7.4,5.3,1.2,7.8l-11.2,4.5c-1.9,0.9-4,1.7-6,2.2
			c0.9,1.2,1.7,0.9,5.7,1.4c2.4,0.3,4.1,0.7,6.5,1c2.1,0.3,4.3,0.5,6.5,1c4.1,0.7,4.5,1.7,4.5,4.1c0,2.8-3.1,3.3-5.3,4.1l-14.1,5.2
			c-1.7,0.7-5.5,2.4-7.4,2.4c-1,0-2.4-1.7-2.4-2.8c0-2.8,10.5-5.5,14.5-6.9c1.7-0.5,4-1.7,5.7-1.9c-0.9-1.2-2.1-0.9-6-1.4
			c-2.4-0.3-4.3-0.5-6.5-1c-3.3-0.5-10-0.2-9.1-5.3c0.5-2.8,5.5-4.1,9.3-5.7l10.5-4.3c-3.3-0.7-7.9-0.9-11.7-1.4
			C72.1,344.5,65.9,344.6,65.9,341.9L65.9,341.9z M538.9,348.3c-4.7,0-8.8-0.2-12.6-3.6c-6.4-6-7.2-24.8,11.7-24.8
			c11.9,0,16.9,10.5,13.4,19.8c-1,2.8-2.2,4.5-4.5,6C544.7,347.4,542,348.3,538.9,348.3L538.9,348.3z M309.3,134.7
			c25.7,0,56.8,6.2,79.4,17.1c1.6,0.7,2.8,1.2,4.1,1.9c6.7,3.4,13.3,6.7,19.5,10.9c2.6,1.7,4.8,2.9,7.4,4.8
			c14.6,10.2,20,16,32.2,28.1l8.4,9.6c1,1.2,1.7,2.1,2.6,3.3c8.8,11.9,11.5,16.2,18.9,29.5c4.7,8.4,11,25,13.8,34.6
			c4.3,15.2,6.2,25.1,7.4,41.2c0.3,3.4,0.2,8.1,0.3,11.9c0.5,6.5-0.2,15.5-0.9,22.4c-2.4,22.6-9.1,45.8-18.9,65.3l-4.1,7.9
			c-5.2,10.2-12.6,20-19.5,28.9l-11.5,12.9c-18.8,18.8-38.9,33.1-64.6,43.7c-2.9,1.2-5.7,2.4-8.8,3.4l-9.1,3.1
			c-13.8,4.7-36.3,8.3-52.4,8.3c-20.3,0-32.2-0.9-51.2-5.5c-14.8-3.8-30.7-9.6-43.7-16.5c-7.1-3.8-16.5-9.5-22.6-14.1l-11.7-9.1
			c-0.7-0.7-1-0.7-1.7-1.4c-3.3-2.9-12.9-11.5-15.5-14.8c-1-1.2-1.9-1.9-2.9-3.1l-5.5-6.7c-1-1.2-1.7-1.9-2.6-3.3
			c-1-1.2-1.7-2.1-2.6-3.3l-9.6-14.3c-1.6-2.6-3.3-5-4.5-7.8c-3.1-6-5.2-9.6-8.1-16.4c-7.8-17.2-14.8-43.6-15.7-62.7l-0.3-11.9
			c0-5.7-0.2-11,0.3-16.9c0.3-4.1,0.3-7.2,1-11.2c2.4-17.7,8.1-40.3,16.2-56.3c3.3-6.4,4.3-9.1,8.1-15.8c4.8-8.4,9-14.1,14.5-21.7
			c1.7-2.2,3.4-4.7,5.5-6.7c20.5-23.6,40.5-38.8,68.9-52C250.4,142.3,279,134.7,309.3,134.7L309.3,134.7z M106.9,315.2h0.3v1.9h-0.3
			V315.2z M107.2,310.4c0.5,0.7,0.5-0.9,0.3,0.9c0,0.9,0,0.3-0.3,0.9V310.4z M89.1,314c0,4.7-0.3,7.6-0.3,12.2c1.2,0.3,2.9,1,4,1.6
			c3.1,1.6,3.1,1,3.1,3.6c0,1.2-1.7,2.4-2.9,2.2l-20-8.8c-3.1-1.4-6.5-2.1-6.5-5.7c0-2.9,3.1-4,5.5-4.8c4.3-1.4,21-7.8,22.9-7.8
			c0.7,0,4,2.9,1,5C94.1,312.6,90.9,313.1,89.1,314z M107.6,307.3c-0.2-0.7,0.5-1.4,0.2-0.2C107.9,307.1,107.9,308.6,107.6,307.3z
			 M107.9,303.6c0-1,0.7,0,0.2,0C108.3,303.6,107.9,304.9,107.9,303.6z M108.4,300.9c-0.2-0.7,0.5-1.4,0.2-0.2
			C108.6,300.7,108.6,302.3,108.4,300.9z M108.8,298.1c0-1,0.7,0,0.2,0C109,298.1,108.8,299.3,108.8,298.1z M109.1,295.4
			c0-1,0.7,0,0.2,0C109.5,295.4,109.1,296.6,109.1,295.4z M109.6,293.5c-0.2-0.7,0.5-1.4,0.2-0.2
			C109.8,293.3,109.8,294.9,109.6,293.5z M525.1,301.8c0,9,9.1,6.4,9.1,10.2c0,4.5-13.4,3.6-13.4-11.4c0-7.6,7.8-12.6,13.8-12.6h3.6
			c6.2,0,11,4.8,12.4,10.2c0.9,3.4,0.5,6.5-0.9,9.3c-3.3,6.7-8.8,6.9-8.8,2.6c0-2.4,5.5-2.2,5.5-9.1c0-5.2-5.2-8.1-10.9-7.2
			c-3.4,0.5-4.5,0.5-7.1,2.1C526.6,296.8,525.1,299.2,525.1,301.8L525.1,301.8z M110,291.1c0-1,0.7,0,0.2,0
			C110.2,291.1,110,292.3,110,291.1z M110.3,289.2c0-1,0.7,0,0.2,0C110.7,289.2,110.3,290.2,110.3,289.2z M110.7,287.1
			c0-1,0.7,0,0.2,0C111,287.1,110.7,288.3,110.7,287.1z M111.2,285.2c0-1,0.7,0,0.2,0C111.4,285.2,111.2,286.3,111.2,285.2z
			 M111.5,283.7c0-1,0.7,0,0.2,0C111.7,283.7,111.5,284.7,111.5,283.7z M111.9,281.6L111.9,281.6
			C112.1,281.8,111.9,281.8,111.9,281.6z M73.8,292.3c9.1,2.1,7.6,1.4,8.1-1.7c0.7-3.8,0.7-9,3.3-9c4,0,1,7.2,0.5,11.4
			c-0.3,2.2,0.9,1.7,8.1,2.8c6.7,1,4.1,5.3,2.1,5.9c-1.6,0.3-17.4-2.8-20.2-3.1c-8.6-1.4-7.4-0.7-5.5-12.4c1.4-7.9,0.9-9,5-8.1
			C76.4,283,74.2,286.4,73.8,292.3z M112.4,280.1c0-1,0.7,0,0.2,0C112.6,280.1,112.4,281.3,112.4,280.1z M112.7,278.5L112.7,278.5
			C112.9,278.7,112.7,278.5,112.7,278.5z M113.1,277L113.1,277C113.3,277.1,113.1,277,113.1,277z M113.4,275.7c0-1,0.7,0,0.2,0
			C113.8,275.7,113.4,276.8,113.4,275.7z M114,274.2c0-1,0.7,0,0.2,0C114.1,274.2,114,275.2,114,274.2z M114.3,273c0-1,0.7,0,0.2,0
			C114.5,273,114.3,274,114.3,273z M114.6,271.4c0-1,0.7,0,0.2,0C115,271.4,114.6,272.5,114.6,271.4z M115.2,270.2c0-1,0.7,0,0.2,0
			C115.3,270.2,115.2,271.3,115.2,270.2z M115.5,268.7L115.5,268.7C115.7,268.9,115.5,268.7,115.5,268.7z M115.8,267.5
			c0-1,0.7,0,0.2,0C116.2,267.5,115.8,268.5,115.8,267.5z M116.2,266.3c0-1,0.7,0,0.2,0C116.5,266.3,116.2,267.5,116.2,266.3z
			 M116.7,265.1c0-1,0.7,0,0.2,0C116.9,265.1,116.7,266.3,116.7,265.1z M117.1,263.9c0-1,0.7,0,0.2,0
			C117.2,263.9,117.1,265.1,117.1,263.9z M117.4,262.8c0-1,0.7,0,0.2,0C117.7,262.8,117.4,263.9,117.4,262.8z M117.9,261.6
			c0-1,0.7,0,0.2,0C118.1,261.6,117.9,262.7,117.9,261.6z M118.3,260.4L118.3,260.4C118.4,260.6,118.3,260.4,118.3,260.4z
			 M118.6,259.6c0-1,0.7,0,0.2,0C118.9,259.6,118.6,260.8,118.6,259.6z M118.9,258.4c0-1,0.7,0,0.2,0
			C119.3,258.4,118.9,259.6,118.9,258.4z M119.8,256.8l-0.2,0.9L119.8,256.8z M119.8,256.8l0.2-0.9L119.8,256.8z M120.2,255.2
			c0-1,0.7,0,0.2,0C120.5,255.2,120.2,256.5,120.2,255.2z M120.7,254L120.7,254C120.7,254.2,120.5,254.2,120.7,254z M121.4,252.8
			l-0.2,0.9L121.4,252.8z M121.4,252.8l0.2-0.9L121.4,252.8z M79.7,265.1c2.4,0.2,5,1.7,7.4,1.9c0.2-2.1,1-4.1,1.7-6.2
			c0.5-1.7,0.9-5.2,3.1-5.2c4.7,0-0.3,8.3-0.9,12.6c2.2,1,9.6,2.4,11,3.6c1.4,1.2,1.4,3.3-0.2,4.3c-1.9,1.4-13.1-2.8-16.7-3.8
			c-13.3-3.8-11.4-1.9-8.1-13.8c0.3-1.4,0.9-2.9,1.4-4.7c0.7-2.1,0.7-2.6,2.1-3.8c1.9,0.3,1.6,0.7,2.8,1.6
			C82.9,255.1,79.8,261.8,79.7,265.1L79.7,265.1z M122.2,250.9l-0.2,0.9L122.2,250.9z M122.2,250.9l0.2-0.9L122.2,250.9z M122.9,249
			l-0.2,0.9L122.9,249z M123.4,248.2l-0.3,0.9L123.4,248.2z M123.4,248.2l0.2-0.9L123.4,248.2z M123.8,246.6L123.8,246.6
			C123.9,246.6,123.8,246.6,123.8,246.6z M124.5,245.4l-0.2,0.9L124.5,245.4z M125,244.6l-0.3,0.9L125,244.6z M125.3,243.9l-0.3,0.9
			L125.3,243.9z M125.7,243l-0.3,0.9L125.7,243z M125.7,243l0.2-0.9L125.7,243z M126.2,241.5L126.2,241.5
			C126.2,241.6,126,241.5,126.2,241.5z M126.9,240.3l-0.2,0.9L126.9,240.3z M127.2,239.6l-0.3,0.9L127.2,239.6z M127.7,238.7
			l-0.3,0.9L127.7,238.7z M128.1,238l-0.3,0.9L128.1,238z M128.4,237.2l-0.3,0.9L128.4,237.2z M108.4,252.8
			c-2.2,0-17.1-6.7-20.3-8.1c-1.9-0.9-5.3-1.9-5.3-4.1c0-1.2,1.4-2.8,2.4-2.8c1.4,0,13.6,5.3,16.4,6.5c1.6,0.7,4,1.9,5.9,2.1
			c1.6-2.8,3.1-7.8,4.7-10.9c0.7-1.6,1.2-1.7,2.9-2.2c2.9,2.6,1.7,2.6-1.9,11.5C112.2,246.5,109.8,252.8,108.4,252.8L108.4,252.8z
			 M128.9,236.3l-0.3,0.9L128.9,236.3z M129.3,235.6l-0.3,0.9L129.3,235.6z M129.3,235.6L129.3,235.6z M130.1,234.4L130.1,234.4z
			 M130.5,233.5l-0.3,0.9L130.5,233.5z M130.8,232.9l-0.3,0.9L130.8,232.9z M131.2,232l-0.3,0.9L131.2,232z M131.7,231.3l-0.3,0.9
			L131.7,231.3z M132,230.4l-0.3,0.9L132,230.4z M132.4,230.1l-0.3,0.3L132.4,230.1z M501.5,235.6c0-2.4,9.3-5.5,12.1-6.5
			c2.2-0.9,12.1-5.3,13.6-5.3c2.1,0,3.6,5.3,3.6,6c0.2,2.4-8.4,7.8-10.2,9.1l-5.9,4.5l15.2-1.9c3.1-0.5,5-1.4,6.4,1.2
			c0.9,1.6,2.4,4.8,1,6.2c-0.9,0.9-10.2,4.5-12.1,5.3c-2.4,1-11,4.8-12.7,4.8s-3.6-3.1-0.5-4.8c2.9-1.6,13.4-5.3,17.6-7.2
			c0.9-0.3,0.9-0.5,1.4-0.9c-4.3,0-21.4,4.1-23.8,2.4c-5-3.4,3.8-8.3,7.6-11.2c1.6-1.2,9.1-6.4,9.8-7.4c-1.2,0.2-4.7,1.7-6,2.2
			c-2.2,1-13.6,6.4-15.3,5.9C502.4,237.9,501.5,236.6,501.5,235.6L501.5,235.6z M132.9,229.2l-0.3,0.9L132.9,229.2z M133.2,228.6
			l-0.3,0.9L133.2,228.6z M133.6,227.7l-0.3,0.9L133.6,227.7z M133.6,227.7c0.3-1.2,0-0.5,0.9-1.2
			C134.1,227.7,134.4,227.2,133.6,227.7z M134.8,225.8l-0.3,0.7L134.8,225.8z M134.8,225.8c0.3-1.2,0-0.5,0.9-1.2
			C135.3,225.6,135.7,225.1,134.8,225.8z M136,223.7l-0.3,0.9L136,223.7z M136,223.7c0.3-1.2,0-0.5,0.9-1.2
			C136.5,223.7,136.9,223.2,136,223.7z M137.2,221.8l-0.3,0.9L137.2,221.8z M137.5,221.3l-0.3,0.3L137.5,221.3z M137.9,220.6
			l-0.3,0.9L137.9,220.6z M137.9,220.6c0.3-1.2,0-0.5,0.9-1.2C138.4,220.6,138.8,220.1,137.9,220.6z M138.8,219.4
			c0.3-1.2,0-0.5,0.9-1.2C139.3,219.4,139.6,218.9,138.8,219.4z M139.4,218.2c0.3-1.2,0-0.5,0.9-1.2
			C140,218.2,140.3,217.7,139.4,218.2z M140.3,217c0.3-1.2,0-0.5,0.9-1.2C140.8,217,141.2,216.5,140.3,217z M141.2,215.8
			c0.3-1.2,0-0.5,0.9-1.2C141.7,215.8,141.9,215.3,141.2,215.8z M141.9,214.8c0.3-1.2,0-0.5,0.9-1.2
			C142.4,214.6,142.7,214.1,141.9,214.8z M142.7,213.6c0.3-1.2,0-0.5,0.9-1.2C143.2,213.4,143.6,212.9,142.7,213.6z M143.4,212.4
			c0.3-1.2,0-0.5,0.9-1.2C143.9,212.4,144.3,211.7,143.4,212.4z M144.6,210.8l-0.3,0.3L144.6,210.8z M144.6,210.8
			c0.3-1.2,0-0.5,0.9-1.2C145.1,210.6,145.5,210.1,144.6,210.8z M145.5,209.6c0.3-1.4,0.2-0.9,1.2-1.6
			C146.2,209.4,146.5,208.9,145.5,209.6z M146.7,208.1c0.3-1.4,0.2-0.9,1.2-1.6C147.4,207.9,147.7,207.4,146.7,208.1z M500.3,229.2
			c-6.9,0-0.7-6.9,1.2-9.1c-1.9-3.6-4.3-7.1-6.4-10.7c-5.9,1.4-9.1,2.6-9.1-1.9c0-2.6,9.8-3.4,12.9-4c3.3-0.5,12.7-2.4,15.3-2.4
			c1.7,0,2.9,1.2,3.4,2.6c0.7,1.7,0.2,2.9-0.9,4.5L506,222.7C505.3,223.9,501.7,229.2,500.3,229.2L500.3,229.2z M147.7,206.5
			c0.3-1.4,0.2-0.9,1.2-1.6C148.6,206.2,148.7,205.8,147.7,206.5z M149.4,204.4l-0.3,0.3L149.4,204.4z M149.4,204.4
			c0.3-1.4,0.2-0.9,1.2-1.6C150.1,204.3,150.5,203.7,149.4,204.4z M150.5,202.9c0.3-1.4,0.5-1.4,1.6-1.9
			C151.8,202.2,151.5,202.2,150.5,202.9z M100.5,213.9c1.2,0.7,2.1,1.2,3.3,1.9c1.2,0.7,1.9,1.4,3.4,1.7c0.2-1,1-2.2,1.6-3.1
			c0.7-1.2,4.8-9.1,5.9-9.1c3.8,0,2.2,3.3,1,5c-0.7,1-1,1.9-1.7,2.9l-3.3,6.2c0.9,1,6,4,7.1,4.3c1-0.9,1.6-1.9,2.2-3.3l4.1-7.2
			c2.9-5.5,5-1.7,5-0.9c0,1.6-2.1,4.3-2.8,5.5l-6,10.5c-2.6,3.4-4.5,0.7-10.5-2.6l-10.5-6c-7.1-4-5.2-4,2.4-17.1
			c0.5-1,0.9-1.6,1.4-2.6c2.2-3.6,4.3-1,4.3,0c0,1.7-4,7.8-5.3,10.2C101.5,211.7,100.9,212.4,100.5,213.9L100.5,213.9z M152.2,201
			c0.3-1.2,1-1.7,1.9-2.4C153.7,199.8,153,200.3,152.2,201z M154.1,198.6c0.3-1.4,1.4-2.1,2.4-2.8
			C156.2,197.2,155.1,197.9,154.1,198.6z M156.5,195.8c0.3-1.6,1.9-2.8,3.1-3.6C159.3,193.8,157.7,195,156.5,195.8z M123.8,181.7
			c-6.9,0-8.4,9.5-3.6,9.5c4.1,0,8.6-7.9,15-7.9c4.3,0,12.9,5.9,4,17.2c-4.5,5.9-13.8,5.7-13.8,0.9c0-4,6.4,0,9.5-2.2
			c6.2-4.5,3.6-14.5-4.8-7.9c-5,4-9.1,7.9-14.6,3.6c-6.7-5.3,1.2-18.1,9.1-18.1c5,0,5.3,4.7,2.6,5.3
			C126,182.2,125.5,181.7,123.8,181.7L123.8,181.7z M486.5,180.8c1.9,3.8,12.6,13.4,6.4,13.4c-1.9,0-7.6-9.1-9.8-10.7
			c-2.4,1.6-4.3,3.4-6.7,5.2c1.4,2.2,3.1,4.1,4.8,6.2c1.4,1.6,8.3,8.8,2.2,8.8c-1.2,0-1.6-1-2.1-1.7l-5.9-7.2c-4-5-6.9-6.7-2.9-9.8
			c2.9-2.4,17.9-14.6,19.1-14.6c2.2,0,8.8,9.5,10.5,11.5c1.2,1.4,2.4,2.8,2.9,4.7c-2.9,3.4-4.1,0.2-6.9-3.1l-5.9-7.2
			C491.2,176.9,487.2,179.8,486.5,180.8L486.5,180.8z M482.2,161.9c0,3.4-1.9,6-4.5,7.4c-4.1,2.1-5.5-0.3-8.6-1c0.2,1.7,0.3,1,0.3,4
			c0,2.4-1.2,10.2-4,10.2c-5.9,0-0.9-8.1-0.9-15.7c0-2.2-2.2-4.1-3.6-5.2c-3.1,2.1-6.9,7.6-8.8,8.1c-1,0.2-5.7-1.4-1.2-5.5
			c1.2-1.2,1.6-1.9,2.8-3.1c2.1-2.1,4-3.8,5.9-5.9c1-1.2,1.4-1.9,2.6-2.9c6.2-6,5.5-6.5,9.6-3.1c1.9,1.6,4,3.8,5.7,5.7
			C479.6,156.6,482.2,158.3,482.2,161.9L482.2,161.9z M155.6,149c0,4.3,0.5,5.7,3.6,9.3c4.1,5,10.9,5.7,14.1,0.2c0.5-1,1-2.8,1-4
			c0,0-0.3-1.9-0.5-2.2c-0.3-1-0.5-1-0.5-2.2c0-2.2,5.9-5.3,5.9,5.5c0,5-5.9,9.8-9.8,11c-2.8,0.9-5.7,0.7-8.3-0.5
			c-7.8-3.3-16.5-15.5-5.9-25.5c5.2-4.8,15.3-4.1,15.3,1c0,3.8-6,0.3-8.3,0.3c-1.7,0-3.6,1.2-4.7,2.1
			C156.7,145.4,155.6,146.9,155.6,149L155.6,149z M433.8,145.4v2.4c0,2.2,4.3,9.5,12.4,4.5c1-0.5,1.2-0.9,2.1-0.7
			c4.1,0.9,1.7,7.2-6.5,7.2c-5.7,0-12.9-6-12.9-11.4v-2.8c0-6.5,7.4-15.3,13.8-15.3h2.8c5.3,0,12.2,6.4,12.2,11.9v1.9
			c0,2.1-1.4,3.4-3.1,4c-4.1-2.2-0.7-4-2.2-8.3c-1-2.9-4-4.7-7.6-4.7c-3.1,0-5.3,2.2-7.1,4C436,139.5,433.8,142.8,433.8,145.4
			L433.8,145.4z M194.7,133.1c3.8,0,12.9,2.9,12.9,6.7c0,1-1.7,2.4-2.8,2.4c-3.3,0-8.4-5.5-14.1-5.5c-1.6,0-3.1,1.4-4.3,1.9
			c1,4.5,8.8,10.5,3.8,12.9c-2.1,1-3.4-1.2-4.7-3.1c-0.7-1-1.2-1.7-1.9-2.9c-1.2-1.9-2.2-3.6-3.3-5.3c-1-1.6-6.4-10-6.5-11.2
			c-0.5-2.6,6.4-5.9,9.6-7.8c3.4-2.1,8.4-4.7,12.4-0.5C200.9,126.4,196.3,130.5,194.7,133.1L194.7,133.1z M159.6,192.2
			c0.5-1.9,13.6-14.3,16.5-16.5c11.5-9.3,15.5-12.9,28.8-20.8c2.9-1.9,12.7-7.4,16-8.8c2.1-0.9,3.4-1.9,5.5-2.8
			c41.7-17.9,81.5-22.6,126.9-13.3c10.7,2.2,16,4.1,25.7,7.4c6.4,2.1,17.7,7.1,23.3,9.8l10.7,5.9c13.4,8.1,20,13.1,31.3,22.6
			l18.8,18.8c0.9,0.9,0.9,1.2,1.7,2.2l9.3,11.9c43.7,58.2,53.1,144.3,17.6,212.5l-2.9,5.3c-2.9,5.5-9.3,15.8-12.7,20.3l-12.7,16.4
			c-9.3,11-26,25.1-37.4,33.2c-7.9,5.7-22.6,14-31.9,18.1c-22,9.8-41.9,14.8-65.8,17.2c-2.6,0.3-5.2,0.5-7.8,0.5
			c-5.2,0-9.8,0.9-15.8,0.2c-2.6-0.3-5.3,0.2-7.9-0.3c-1.7-0.3-13.8-1-15.2-1.7c4.5,0,15,1.6,22.9,1.6c15.5,0,23.8-0.2,38.8-2.6
			c9-1.6,18.9-3.8,26.7-6.4c18.3-6.2,28.2-10.5,45.3-20.5l28.4-21.2c3.3-2.6,9.6-9,12.7-12.1c0.9-0.9,1-1.2,1.7-2.2
			c0.7-0.9,1.4-1.4,2.2-2.2c6.4-6.5,20-25.3,24.3-33.2c8.4-15.3,11.4-20.3,17.9-40c4.5-13.4,6.9-26.4,8.6-40.6
			c0.3-2.8,0.3-5,0.7-7.6c2.4-18.8-1.4-49.3-6.4-66.7c-0.5-2.1-1.4-4.5-1.9-6.4L497,252c-2.8-6.4-4.5-10.5-7.8-16.7l-2.9-5.3
			c-6.2-10.5-15.7-25-23.9-33.9l-10-10.5c-2.6-2.1-6.7-6.5-10.9-10c-16.2-13.1-30.5-23.4-50.5-31.9c-22.2-9.3-35.1-12.6-58.2-15.8
			c-6.7-0.9-24.5-1.7-31.3-1c-1.2,0.2-2.6,0-4,0c-2.1,0-2.2,0.3-4,0.3c-10.3,0.5-19.8,2.4-28.8,4.3c-28.6,6-58,20.8-81,38.8
			c-5.3,4.3-10.5,8.8-15.5,13.8C166,186.2,161.7,190.8,159.6,192.2L159.6,192.2z M403.8,118.1c3.1,1.7,12.6,5.3,12.6,7.1
			c0,1-0.2,1-0.3,1.9c-2.8,0.7-1.6,0.5-7.9-2.4c-1.9-0.9-4.3-2.8-6.7-2.8c-0.5,2.4-2.9,5.7-3.1,7.9c1.4,0.3,2.4,1,3.6,1.6
			c1.9,0.9,10.7,4.3,10.7,5.9c0,4.8-5.9,1.2-10.7-1.2c-13.3-6.7-11.2-2.6-4-18.9c5.7-12.7,5-12.9,11.4-9.6c1.7,0.9,3.1,1.4,4.8,2.2
			c2.6,1,7.2,3.1,8.6,5.2c-0.9,3.8-2.9,2.2-5.3,1c-2.1-1-9.3-4.5-10.9-4.7C405.9,113.8,404,115.7,403.8,118.1L403.8,118.1z
			 M208.5,112.6c1.2,2.2,2.1,4.5,3.1,6.7c1.4-0.3,2.1-0.7,3.1-1.2c1.9-0.9,8.4-4,9.8-4c1.6,0,2.2,2.1,1.2,3.1
			c-0.9,0.9-10.7,4.8-12.7,5.9c1.4,2.4,2.2,5.5,3.6,7.9l7.2-3.1c1.6-0.7,5.7-2.9,7.4-2.9c1.7,0,3.1,2.8,0.3,4.3l-16.9,7.2
			c-2.8,0-4.8-7.8-6.7-11.4c-0.7-1.4-5.5-12.2-5.5-12.9c0-2.4,5.2-3.8,8.4-5.3c5.2-2.4,11.7-6.5,11.7-1.7c0,1.6-1.7,1.9-2.8,2.4
			c-1.2,0.5-2.4,1-3.8,1.7C213.5,110.6,210.8,111.4,208.5,112.6L208.5,112.6z M230.9,100.4c0-2.2,4.5-2.9,6.7-3.6
			c5.2-1.6,10.7-3.8,14.5,0.9c1.6,1.9,2.1,4.1,2.1,7.1c0,6-8.3,8.3-13.4,9.5c0,2.8,5.2,12.6-0.3,12.6c-2.9,0-4.5-8.3-5.5-12.2
			C234,112.1,230.9,102.3,230.9,100.4L230.9,100.4z M369.9,113.5c0,6.7,3.6,8.3,9.1,8.3c3.8,0,4.8-4.7,7.1-4.7
			c7.2,0-2.9,16.7-17.6,5.7c-8.3-6.2-3.1-26.2,9.3-26.2h1.9c5.7,0,12.2,4.5,12.2,11.9c0,0.9-1.6,2.4-1.9,2.4c-5.3,0-0.7-9.8-11-9.8
			C373.2,100.9,369.9,109.4,369.9,113.5L369.9,113.5z M353.4,120.2c-5.3,0-3.4-3.6-2.2-9.6l2.9-14.3c0.5-2.2,0.7-5.5,3.1-5.5
			c5.2,0,2.2,7.6,0.9,14.3c-0.5,2.8-1,5.3-1.7,8.1C355.9,115,355.6,120.2,353.4,120.2L353.4,120.2z M266.7,94.2
			c0,3.1,0.9,4.5,0.9,7.4c0.9-0.3,7.1-1.2,8.4-1.4c3.3-0.5,7.1-1.9,7.1,1.4c0,2.4-4.1,2.4-6.4,2.8s-5.9,1.2-8.3,1.2
			c0.2,1.9,0.7,4,1,6c0.3,2.9-0.3,2.6,4.3,1.9c3.6-0.5,9.6-1.9,12.6-1.4c0.9,3.8,1,3.8-8.6,5.2c-15,2.1-11.9,6-15.7-17.2
			c-1.4-8.3-2.4-9.3,3.6-10.3l12.2-1.9c3.6-0.5,4.5-0.5,4.5,2.2c0,2.1-4.7,2.2-6.9,2.6C272.4,93.3,269.3,94,266.7,94.2L266.7,94.2z
			 M295.8,93.3c0,6,17.7,1.9,17.7,12.9c0,9.3-13.1,11.7-19.5,7.4c-2.8-1.9-6.5-8.4-0.5-8.4c2.2,0,2.4,6.4,6.7,6.4h2.4
			c5.2,0,7.2-5.3,3.6-7.6c-2.9-1.7-8.1-1.7-11.7-3.6c-7.4-4-4.1-14.8,7.4-14.8c9.6,0,12.7,9.5,7.1,9.5c-2.2,0-2.6-5.2-6.4-5.2
			C300.5,89.9,295.8,89.4,295.8,93.3L295.8,93.3z M54.9,322.3c0,17.6-0.2,23.3,2.8,41.3c1.4,8.3,9,40.6,12.1,50.1
			c4.1,12.6,9.8,26.5,16.5,37.9c8.6,14.5,17.9,28.4,28.6,41.5c9.1,11.2,13.4,15.3,24.5,25.7c0.9,0.9,1.2,0.9,2.2,1.7
			c1.4,1.4,2.8,2.4,4.3,3.6l8.8,6.7c14.8,11,21,15.2,37.5,24.6c7.1,4.1,24.8,11.4,33.1,13.8c10.3,3.1,39.4,10.3,50.1,12.1
			c23.6,4,46.3,4,69.9,0c8.6-1.4,40.6-9,50.1-12.1c24.6-8.3,40.5-16.9,61.1-31.9c9.3-6.7,15.7-11.2,24.1-18.4
			c6.5-5.5,19.8-19.5,24.6-25.7l13.3-17.9c8.6-11.5,11.4-16.9,18.1-28.4c2.9-5.2,7.2-15.3,9.6-21.4c1.6-3.8,2.9-7.8,4.1-11.5
			c3.1-10.3,10.3-39.4,12.1-50.1c4-23.6,4-46.2,0.2-69.6c-1.4-8.4-9-40.6-12.1-50.1c-1.4-4-2.6-7.8-4-11.4
			c-8.1-20.2-15-32.4-27.7-50.1c-1.2-1.6-2.1-2.8-3.1-4.3L505.6,165c-1.2-1.4-2.1-2.8-3.3-4.1c-5.5-5.9-13.1-15-19.3-19.8
			l-26.5-20.5c-6-4.7-12.1-8.4-18.6-12.4c-9.1-5.5-11.9-6.4-20.3-10.7c-3.3-1.7-7.1-3.1-10.9-4.5c-11.5-4.7-23.8-7.9-36.3-10.5
			c-32.6-7.1-32.7-8.4-67.5-8.4c-20.7,0-45.6,6.4-65.8,11.4c-9.1,2.2-20.5,6-29.1,9.8c-17.9,7.9-27.9,13.6-44.3,25.3
			c-1.6,1.2-2.8,2.1-4.3,3.1l-19.8,15.2c-6.5,5.5-19.8,19.5-24.6,25.7l-6.7,8.8c-11.5,15.5-15,21-24.6,37.5l-7.4,15.8
			c-6.2,15.3-9.1,25-12.7,41.9c-1.9,8.6-4.1,16.5-5.7,25.5C56.3,302.6,54.9,312.4,54.9,322.3L54.9,322.3z"/>
		<path class="st0" d="M173.4,375c0,2.4,1.7,4.5,3.4,6.7c2.4,2.9,9.1-0.2,12.1-1c2.8-0.9,5-1.4,7.9-2.2
			c12.9-3.6,45.8-10.2,59.9-12.6l26.7-4.5c14.6-2.4,40.6-5.7,55.3-6.9c2.8-0.2,6.2-0.5,9.3-0.9l28.8-2.2c3.8-0.2,6.4-0.3,9.8-0.3
			c3.4,0,7.2,0.3,10.3-0.2s7.2-0.2,9.8,0.2c2.2,0.3,9.8,0,14.8,0.5c10.9,0.9,21.2,1.6,32,4.7c3.3,1,8.3,2.6,11,4.3
			c1.4,0.9,2.1,1.6,3.8,1.7c1-4.3,7.6-10.7-1.6-19.5c-8.1-7.9-32-7.1-44.3-7.1c-10,0-20,0.7-30,1.2l-53.9,5.2
			c-10.2,0.7-52.4,6.9-63.4,8.8l-31,5.3c-18.3,3.6-42,7.9-59.3,13.1C182.7,370,173.4,371.7,173.4,375L173.4,375z"/>
		<path class="st0" d="M146.7,291.6c0,6.9,6.5,11.4,12.9,11.4c1.9,0,9.8-5.3,12.4-6.9c5.5-3.3,23.1-11.4,28.4-6
			c2.6,2.8,4.5,9.5,4.5,14.8c0,5.9-2.6,10.7-4.7,14.6c-1,1.9-2.6,4.3-3.8,6c-6,8.1-19.1,20.3-28.9,20.3c-9.1,0-8.3-5.2-9.3-7.2
			c-1.9-3.4-6.7-3.1-6.7,2.1c0,9.6,9.3,18.4,20.8,18.4c9.6,0,25.7-9.8,31.3-15.5c13.3-13.1,21.5-24.6,20.2-44.8
			c-0.3-5.2-2.9-10.3-6-12.9c-10.2-8.4-29.6-4.3-40,0c-6.2,2.6-20.5,11.5-20.5,6.7c0-3.6,4.7-10,6.5-12.4c0.7-0.9,1.4-1.7,2.1-2.6
			c7.8-8.8,20.2-20.8,32.4-20.8c3.1,0,5.7,0.9,8.1,1.7c1.6,0.7,5.9,2.9,6.9,2.9c6.7,0-2.4-22.9-15.3-22.9c-4.5,0-7.6,1-11.4,2.8
			c-8.6,3.8-15.5,10.2-22,16.7C158.2,264.4,146.7,279.7,146.7,291.6L146.7,291.6z"/>
		<path class="st0" d="M319.4,297.8h-4.3c0-5.7,0.7-12.9,3.3-16.7c3.8-5.7,8.1-4.1,8.1,6.5C326.7,291.9,323.6,297.8,319.4,297.8z
			 M357.3,296.2l-0.3-10.7c0-14.3,10.7-25.8,10.7-6.4c0,6.2-1.9,10.5-5.9,14.3C360.3,295,359,295.4,357.3,296.2L357.3,296.2z
			 M324.9,321c-7.2,0-9.3-15.3-9.8-20.8c6.4,0.5,11,1.7,15.8-4.3c6.2-7.8,2.6-27.6-7.2-27.6c-5,0-8.8,0-13.3,2.4
			c-6.9,3.6-10.7,18.9-10.7,27c0,8.4,0.7,15.8,5.3,22.6c3.8,5.5,8.4,8.4,16.4,8.4c9.1,0,14.5-7.8,18.1-14.6c0.7-1.4,3.1-6.4,3.1-7.9
			h0.9c0.5,6.4,9,19.3,19.3,19.3c11,0,15.2-7.4,19.3-15.7c2.6-5.2,4.8-12.9,6.4-18.9c0.3-1.2,0.5-2.4,0.9-3.6
			c0.3-1.4,0.9-2.2,0.3-3.1c-1.7-0.9-2.9,0.9-3.4,2.4l-1.7,5.5c-2.1,6.2-8.4,25.7-16.9,25.7c-5.9,0-9.8-15.3-9.8-18.9
			c4.7-2.2,11.7-3.4,16-11.5c5.3-9.8,0.2-25.1-7.8-25.1c-16.7,0-23.8,17.6-24.5,31.9c-0.2,2.4,0.9,3.3,0.3,5.7
			c-1,4.5-5.5,13.6-8.6,16.5C331.5,318.5,328.2,321,324.9,321L324.9,321z"/>
		<path class="st0" d="M275.9,277.3l2.6,18.9c0.5,4,0.2,16.2-0.5,20.5c-0.7,3.4-2.2,9-4.5,10.5c-0.2-1-2.1-5.2-3.1-9.5
			c-1-4.5-1.7-11.5-2.6-16.7c-0.3-1.7-0.2-4.1-1.2-5.5c-2.1-3.1-15.3-6-15.3,0.7c0,9.1,3.1,10.7,0.9,20.2c-0.7,3.1-1.4,6-2.1,9.3
			c-0.7,2.4-2.2,7.4-2.2,9.6h-0.9c-1-4.7-2.1-4-3.6-12.9c-0.3-2.4-0.5-4.8-0.9-7.4c-0.2-2.2-0.2-5.7-0.5-8.1
			c-1.6-10.5,5.2-22.6-11.7-22.6c-1,0-1.9,0.2-2.4,0.3c-1.7,0.5-2.4,1.2-1.9,2.9c0.5,2.1,0.9,0,1.6,6l1.4,18.3
			c1.2,9,0.7,16.7,5.9,23.6c1.7,2.2,2.8,3.1,5.2,4.8c4.3,2.9,10.5,3.6,10.5,2.1c0-4.5-2.6,2.1,0.9-11.4l3.1-11.4
			c0,11.9,9.1,18.6,18.9,18.9c0.9,0,1.9-0.2,2.4-0.3c2.1-0.7,1.6-1.6,1.6-1.4v-1c-0.3-1.2-1.9-3.6-2.4-4.7c7.8,0,10.7,0.2,14.8-7.2
			c6.2-11,4.1-26.7,2.1-38.8c-0.3-1.6-2.1-13.1-5-13.1C284.5,271.4,275.9,274.2,275.9,277.3L275.9,277.3z"/>
		<path class="st0" d="M391.9,220.3v14.6c-0.2,1.7-0.3,1.9-0.3,4c0,3.8,1,5.3-2.8,5.5c-2.6,0.2-5.3,0.5-7.6,0.7
			c-9,0.9-18.8,1-27.9,0.9c-1.7,0-3.1-0.3-3.1,1.2c0,1.6,3.4,2.8,4.8,3.4c14.5,7.2,22,5.2,35.7,4.1c0,16.4-0.5,32,2.4,45.6
			c1.9,9.3,9.8,28.4,19.6,28.4c3.1,0,4.8,0.3,2.1-4.5c-1-1.9-1.6-2.9-2.4-5c-9-20.3-6.4-45.3-6.4-67.3c1.2-0.5,4.5-1.2,6.2-1.7
			c10.3-2.6,30.7-7.9,39.8-12.6c1.4-0.7,1.7-0.7,1.7-2.6c-6.2,0-17.7,2.4-24.5,3.6l-16.9,2.8c-1.7,0.2-4.1,0.7-5.9,0.9
			c0-4,1.4-15.8-1-19.8C401.2,215.1,391.9,214.3,391.9,220.3L391.9,220.3z"/>
		<path class="st0" d="M413.3,262c1.9,2.9,9.3,3.1,13.8,3.1c6.2,0,12.6-1.6,17.7-2.8c-1.7,3.4-4.8,11.7-6.4,15.7
			c-2.2,5.7-5.5,14.3-9,18.9c-1.7,2.4-2.8,4-5.7,5.3c-1.7,0.9-3.1,0.3-4,1.9c-1.9,3.3,4.3,12.7,9,12.7c3.8,0,5-2.9,10.5-5.2
			c21.4-8.6,27.6,3.6,30.8,3.6c3.4,0,1.6-9.6,0.3-11.4c-4.3-6.7-24.6-1.2-28.8,0.9l4.7-11.2c2.2-5.5,8.1-26.5,14-29.5
			c1.6-0.9,2.9-0.2,2.9-2.2c-0.2-3.6-6.4-9.5-8.8-11.2c-1,0.2-1.4,0.3-2.2,1c-1.2,0.9-0.5,0.5-1.9,1.2c-6.7,3.1-17.9,7.2-25.3,7.4
			C420,260.4,414.9,259.6,413.3,262L413.3,262z"/>
		<path class="st0" d="M187.5,442c-3.8,0-5.9-1.4-7.9-5.2c2.9-2.1,8.3-7.4,10.2-8.6c1.2,2.2,4,4,4,7.1
			C193.9,438.3,190.4,442,187.5,442z M173.7,436.4c0,1,1.6,2.9,2.2,3.6c1.2,1.2,1.6,1.9,2.8,3.1c1.9,1.9,4.5,3.6,7.8,4
			c5,0.7,18.8-6.5,8.8-19.5c-6-7.9-6.5-6-10.3-2.4C182.8,427.5,173.7,434.2,173.7,436.4L173.7,436.4z"/>
		<path class="st0" d="M526.6,334c0,2.8,1.6,5.2,3.4,6.5c4.1,2.8,10.9,2.9,15,0c5.2-3.6,4-14.8-6-14.8c-3.4,0-6.9-0.2-9.6,2.2
			C528,329.1,526.6,331.7,526.6,334L526.6,334z"/>
		<path class="st0" d="M323.4,483.3c1.7,0,8.3-1.9,8.3,2.4c0,3.6-4,4-7.4,4C324.3,487.9,323.9,484.3,323.4,483.3z M322.2,502.2
			c5.2,0,2.8-4.5,2.8-8.6c4.8,0,6.2,7.1,10.2,7.1c1.7,0,2.4-0.9,3.1-1.9c-0.7-2.8-5.2-4.3-5.9-7.1c4-0.3,6-5.9,3.4-10.2
			c-2.2-3.8-7.8-2.9-12.6-2.4c-2.6,0.3-5.2,0.3-5.3,2.8c0,0.9,0.7,5.7,0.9,7.2C319.4,493.1,319.4,502.2,322.2,502.2z"/>
		<path class="st0" d="M426.2,432.5c10.9,0,10.5,13.4,1.9,13.4S418.8,432.5,426.2,432.5z M416.1,439.2c0,1,0.7,3.6,1,4.5
			c5.3,12.6,22.6,7.6,22.6-4.1c0-5.2-2.8-9-6.9-10.9C424,424.6,416.1,432.1,416.1,439.2z"/>
		<path class="st0" d="M199,460.9c0,3.3,2.2,3.4,6,6.5c1.2,1,2.1,1.6,3.3,2.6c1.2,1,2.1,1.9,3.6,2.2c1.4-0.7,1.9-1.2,2.4-2.8
			c-1.2-2.1-2.2-2.6-4.3-4.1c-1.2-0.9-4.1-2.9-4.8-3.8c0.3-1.2,1.7-2.9,2.8-3.6c2.8,1.9,5.2,4.7,7.4,4.7c0.5,0,4.1-1.6,0-4.7
			c-1.2-0.9-3.8-3.3-5-3.6c0.9-1.2,1.7-2.2,2.4-3.6c2.8,1.4,8.4,6.7,9.8,6.7c1,0,2.4-1.7,2.4-2.8c0-1.4-4.8-4.5-6-5.3
			c-8.6-6.4-6.4-7.4-16.9,6.9C201.4,457.3,199,460,199,460.9L199,460.9z"/>
		<path class="st0" d="M305,501.9c1.2-4.8-1.2-4-5.9-4.5c-7.9-0.9-6,1.4-6-5c7.6,0,9.8,2.1,9.8-2.4c0-2.2-7.2-1.9-9.5-1.9
			c0-2.1,0.3-2.1,0.3-4.3c3.8,0,7.4,0.9,11.4,0.9c4.3-6.4-4.1-4.7-12.2-5.5c-7.4-0.9-3.8,5.5-5.9,17.6c-0.5,3.3,0,4.7,2.9,5
			C293.4,501.7,302.2,503.1,305,501.9z"/>
		<path class="st0" d="M259.3,479.9c0,6.4,5.2,6.2,8.4,9c1.4,1.2,1,2.1,0.3,3.6c-6.5,1.6-7.9-3.3-9.8-4.7c-3.1,1.6-3.1,3.8-0.9,6
			c4.7,4.5,17.1,5.5,17.1-3.3c0-5.9-7.9-7.4-9.3-9.3c-3.1-4.3,7.1-4.7,8.6,1c4.1-0.2,3.8-3.4,1.9-5.3c-0.5-0.5-1.7-1.2-2.4-1.6
			C266.9,471.9,259.3,473.3,259.3,479.9L259.3,479.9z"/>
		<path class="st0" d="M231.2,469.2c0,5.3,7.4,7.9,7.4,9.8c0,5-7.9,2.4-9.5-4c-5.2,0.3-4.3,5,0.3,8.3c6.2,4.5,14.6,3.4,14.6-4
			c0-4.1-6-6.9-7.9-10.2c0.7-1.4,0.7-1.9,2.4-1.9c3.6,0,5.7,2.6,6.4,5.5c5.3,0,4.5-4.7-0.2-7.8C237.3,459.9,231.2,463.5,231.2,469.2
			z"/>
		<path class="st0" d="M391.3,460.4c0,6,4.7,11.4,10.2,12.2c6.7,1.2,13.1-5.2,13.1-8.8l-0.3-3.6c-5.2-2.4-4.1,1.9-4.5,3.1
			c-1.4,4.5-7.9,5.5-11,1.7c-4.3-5.3-0.5-11,3.3-11l4,0.3C411.8,445.6,391.3,447.6,391.3,460.4L391.3,460.4z"/>
		<path class="st0" d="M347.9,479.3c2.8,0,4-1,6.4-1.6c0.2,1.6,1,4,1.6,5.5c0.5,1.7,1,3.6,1.7,5.7c0.5,1.4,1.2,4.3,2.1,5.2
			c1.4,1.2,4.5,0,4.5-1.7c0-2.4-3.8-12.2-4.7-16.2c1-0.5,2.4-0.9,3.4-1.2c5.5-1.7,1.6-5,1.2-5c-1.6,0-15.7,4.5-16.9,5.3
			C345.4,476.4,346,479.3,347.9,479.3L347.9,479.3z"/>
		<path class="st0" d="M179.7,128.1c0.3,1.4,3.3,5.3,4.3,7.4c1.7-0.9,3.4-2.1,5.2-3.1c5.7-3.4,4.8-8.8-0.9-8.8
			C185.4,123.7,182.5,127.4,179.7,128.1L179.7,128.1z"/>
		<path class="st0" d="M464.1,158.5c1.7,2.6,5.7,6.7,9.8,6.7c1.9,0,2.8-2.1,2.8-4.3c0-2.2-6.2-7.9-7.4-8.3
			C468.6,154.7,465.3,156.4,464.1,158.5z"/>
		<path class="st0" d="M236.8,101.3c0.2,2.6,2.2,6.5,2.4,9.1c1.4-0.2,4.5-1.2,5.9-1.7c6.4-2.6,3.6-9-0.7-9
			C241.2,99.7,239.5,101.1,236.8,101.3z"/>
		<path class="st0" d="M499.4,208.7c0.7,1.4,1.4,2.6,2.2,4c1.2,1.9,1.6,3.1,2.8,3.8c0.5-2.1,7.4-8.6,7.9-10.7L499.4,208.7z"/>
		<path class="st0" d="M147,502.2l11.9-5.9c-1.6-2.2-4.5-4.8-6.7-6.4c-0.9,1.7-1.7,4-2.6,6L147,502.2z"/>
		<path class="st0" d="M72.6,319.2c1,1.4,10.3,4.8,11.9,5.2l0.3-8.6C82.3,315.7,76.2,318.3,72.6,319.2z"/>
		<path class="st0" d="M320.3,553.4c0.7,3.3,4.5,9.6,4.7,11.9h0.9c0.2-1.9,1-4.5,1.6-6.2c0.3-1.4,1.6-4.8,1.6-6.4
			C328.2,553.1,321.5,553.4,320.3,553.4z"/>
		<path class="st0" d="M448.3,423.5c0,4,5.9,4.5,5.9-0.3c0-1-2.6-4-4.8-1.2C449.3,422,448.3,423.4,448.3,423.5L448.3,423.5z"/>
	</g>
</g>
</svg>
